<svg xmlns="http://www.w3.org/2000/svg" xmlns:xlink="http://www.w3.org/1999/xlink" width="600" height="400" viewBox="0 0 2400 1600">
<defs>
  <clipPath id="clip800">
    <rect x="0" y="0" width="2400" height="1600"></rect>
  </clipPath>
</defs>
<path clip-path="url(#clip800)" d="
M0 1600 L2400 1600 L2400 0 L0 0  Z
  " fill="#ffffff" fill-rule="evenodd" fill-opacity="1"></path>
<defs>
  <clipPath id="clip801">
    <rect x="480" y="0" width="1681" height="1600"></rect>
  </clipPath>
</defs>
<path clip-path="url(#clip800)" d="
M186.274 1486.45 L2352.76 1486.45 L2352.76 123.472 L186.274 123.472  Z
  " fill="#ffffff" fill-rule="evenodd" fill-opacity="1"></path>
<defs>
  <clipPath id="clip802">
    <rect x="186" y="123" width="2167" height="1364"></rect>
  </clipPath>
</defs>
<polyline clip-path="url(#clip802)" style="stroke:#000000; stroke-linecap:butt; stroke-linejoin:round; stroke-width:2; stroke-opacity:0.1; fill:none" points="
  240.754,1486.45 240.754,123.472 
  "></polyline>
<polyline clip-path="url(#clip802)" style="stroke:#000000; stroke-linecap:butt; stroke-linejoin:round; stroke-width:2; stroke-opacity:0.1; fill:none" points="
  924.316,1486.45 924.316,123.472 
  "></polyline>
<polyline clip-path="url(#clip802)" style="stroke:#000000; stroke-linecap:butt; stroke-linejoin:round; stroke-width:2; stroke-opacity:0.1; fill:none" points="
  1607.88,1486.45 1607.88,123.472 
  "></polyline>
<polyline clip-path="url(#clip802)" style="stroke:#000000; stroke-linecap:butt; stroke-linejoin:round; stroke-width:2; stroke-opacity:0.1; fill:none" points="
  2291.44,1486.45 2291.44,123.472 
  "></polyline>
<polyline clip-path="url(#clip800)" style="stroke:#000000; stroke-linecap:butt; stroke-linejoin:round; stroke-width:4; stroke-opacity:1; fill:none" points="
  186.274,1486.45 2352.76,1486.45 
  "></polyline>
<polyline clip-path="url(#clip800)" style="stroke:#000000; stroke-linecap:butt; stroke-linejoin:round; stroke-width:4; stroke-opacity:1; fill:none" points="
  240.754,1486.45 240.754,1467.55 
  "></polyline>
<polyline clip-path="url(#clip800)" style="stroke:#000000; stroke-linecap:butt; stroke-linejoin:round; stroke-width:4; stroke-opacity:1; fill:none" points="
  924.316,1486.45 924.316,1467.55 
  "></polyline>
<polyline clip-path="url(#clip800)" style="stroke:#000000; stroke-linecap:butt; stroke-linejoin:round; stroke-width:4; stroke-opacity:1; fill:none" points="
  1607.88,1486.45 1607.88,1467.55 
  "></polyline>
<polyline clip-path="url(#clip800)" style="stroke:#000000; stroke-linecap:butt; stroke-linejoin:round; stroke-width:4; stroke-opacity:1; fill:none" points="
  2291.44,1486.45 2291.44,1467.55 
  "></polyline>
<path clip-path="url(#clip800)" d="M240.754 1517.37 Q237.143 1517.37 235.314 1520.93 Q233.509 1524.47 233.509 1531.6 Q233.509 1538.71 235.314 1542.27 Q237.143 1545.82 240.754 1545.82 Q244.388 1545.82 246.194 1542.27 Q248.022 1538.71 248.022 1531.6 Q248.022 1524.47 246.194 1520.93 Q244.388 1517.37 240.754 1517.37 M240.754 1513.66 Q246.564 1513.66 249.62 1518.27 Q252.698 1522.85 252.698 1531.6 Q252.698 1540.33 249.62 1544.94 Q246.564 1549.52 240.754 1549.52 Q234.944 1549.52 231.865 1544.94 Q228.81 1540.33 228.81 1531.6 Q228.81 1522.85 231.865 1518.27 Q234.944 1513.66 240.754 1513.66 Z" fill="#000000" fill-rule="evenodd" fill-opacity="1"></path><path clip-path="url(#clip800)" d="M883.923 1544.91 L891.562 1544.91 L891.562 1518.55 L883.251 1520.21 L883.251 1515.95 L891.515 1514.29 L896.191 1514.29 L896.191 1544.91 L903.83 1544.91 L903.83 1548.85 L883.923 1548.85 L883.923 1544.91 Z" fill="#000000" fill-rule="evenodd" fill-opacity="1"></path><path clip-path="url(#clip800)" d="M923.274 1517.37 Q919.663 1517.37 917.835 1520.93 Q916.029 1524.47 916.029 1531.6 Q916.029 1538.71 917.835 1542.27 Q919.663 1545.82 923.274 1545.82 Q926.909 1545.82 928.714 1542.27 Q930.543 1538.71 930.543 1531.6 Q930.543 1524.47 928.714 1520.93 Q926.909 1517.37 923.274 1517.37 M923.274 1513.66 Q929.085 1513.66 932.14 1518.27 Q935.219 1522.85 935.219 1531.6 Q935.219 1540.33 932.14 1544.94 Q929.085 1549.52 923.274 1549.52 Q917.464 1549.52 914.386 1544.94 Q911.33 1540.33 911.33 1531.6 Q911.33 1522.85 914.386 1518.27 Q917.464 1513.66 923.274 1513.66 Z" fill="#000000" fill-rule="evenodd" fill-opacity="1"></path><path clip-path="url(#clip800)" d="M953.436 1517.37 Q949.825 1517.37 947.996 1520.93 Q946.191 1524.47 946.191 1531.6 Q946.191 1538.71 947.996 1542.27 Q949.825 1545.82 953.436 1545.82 Q957.071 1545.82 958.876 1542.27 Q960.705 1538.71 960.705 1531.6 Q960.705 1524.47 958.876 1520.93 Q957.071 1517.37 953.436 1517.37 M953.436 1513.66 Q959.246 1513.66 962.302 1518.27 Q965.381 1522.85 965.381 1531.6 Q965.381 1540.33 962.302 1544.94 Q959.246 1549.52 953.436 1549.52 Q947.626 1549.52 944.547 1544.94 Q941.492 1540.33 941.492 1531.6 Q941.492 1522.85 944.547 1518.27 Q947.626 1513.66 953.436 1513.66 Z" fill="#000000" fill-rule="evenodd" fill-opacity="1"></path><path clip-path="url(#clip800)" d="M1571.57 1544.91 L1587.89 1544.91 L1587.89 1548.85 L1565.95 1548.85 L1565.95 1544.91 Q1568.61 1542.16 1573.19 1537.53 Q1577.8 1532.88 1578.98 1531.53 Q1581.22 1529.01 1582.1 1527.27 Q1583.01 1525.51 1583.01 1523.82 Q1583.01 1521.07 1581.06 1519.33 Q1579.14 1517.6 1576.04 1517.6 Q1573.84 1517.6 1571.39 1518.36 Q1568.95 1519.13 1566.18 1520.68 L1566.18 1515.95 Q1569 1514.82 1571.45 1514.24 Q1573.91 1513.66 1575.95 1513.66 Q1581.32 1513.66 1584.51 1516.35 Q1587.7 1519.03 1587.7 1523.52 Q1587.7 1525.65 1586.89 1527.57 Q1586.11 1529.47 1584 1532.07 Q1583.42 1532.74 1580.32 1535.95 Q1577.22 1539.15 1571.57 1544.91 Z" fill="#000000" fill-rule="evenodd" fill-opacity="1"></path><path clip-path="url(#clip800)" d="M1607.7 1517.37 Q1604.09 1517.37 1602.26 1520.93 Q1600.46 1524.47 1600.46 1531.6 Q1600.46 1538.71 1602.26 1542.27 Q1604.09 1545.82 1607.7 1545.82 Q1611.34 1545.82 1613.14 1542.27 Q1614.97 1538.71 1614.97 1531.6 Q1614.97 1524.47 1613.14 1520.93 Q1611.34 1517.37 1607.7 1517.37 M1607.7 1513.66 Q1613.51 1513.66 1616.57 1518.27 Q1619.65 1522.85 1619.65 1531.6 Q1619.65 1540.33 1616.57 1544.94 Q1613.51 1549.52 1607.7 1549.52 Q1601.89 1549.52 1598.82 1544.94 Q1595.76 1540.33 1595.76 1531.6 Q1595.76 1522.85 1598.82 1518.27 Q1601.89 1513.66 1607.7 1513.66 Z" fill="#000000" fill-rule="evenodd" fill-opacity="1"></path><path clip-path="url(#clip800)" d="M1637.87 1517.37 Q1634.26 1517.37 1632.43 1520.93 Q1630.62 1524.47 1630.62 1531.6 Q1630.62 1538.71 1632.43 1542.27 Q1634.26 1545.82 1637.87 1545.82 Q1641.5 1545.82 1643.31 1542.27 Q1645.13 1538.71 1645.13 1531.6 Q1645.13 1524.47 1643.31 1520.93 Q1641.5 1517.37 1637.87 1517.37 M1637.87 1513.66 Q1643.68 1513.66 1646.73 1518.27 Q1649.81 1522.85 1649.81 1531.6 Q1649.81 1540.33 1646.73 1544.94 Q1643.68 1549.52 1637.87 1549.52 Q1632.06 1549.52 1628.98 1544.94 Q1625.92 1540.33 1625.92 1531.6 Q1625.92 1522.85 1628.98 1518.27 Q1632.06 1513.66 1637.87 1513.66 Z" fill="#000000" fill-rule="evenodd" fill-opacity="1"></path><path clip-path="url(#clip800)" d="M2265.2 1530.21 Q2268.56 1530.93 2270.43 1533.2 Q2272.33 1535.47 2272.33 1538.8 Q2272.33 1543.92 2268.81 1546.72 Q2265.29 1549.52 2258.81 1549.52 Q2256.64 1549.52 2254.32 1549.08 Q2252.03 1548.66 2249.58 1547.81 L2249.58 1543.29 Q2251.52 1544.43 2253.84 1545.01 Q2256.15 1545.58 2258.67 1545.58 Q2263.07 1545.58 2265.36 1543.85 Q2267.68 1542.11 2267.68 1538.8 Q2267.68 1535.75 2265.53 1534.03 Q2263.4 1532.3 2259.58 1532.3 L2255.55 1532.3 L2255.55 1528.45 L2259.76 1528.45 Q2263.21 1528.45 2265.04 1527.09 Q2266.87 1525.7 2266.87 1523.11 Q2266.87 1520.45 2264.97 1519.03 Q2263.1 1517.6 2259.58 1517.6 Q2257.66 1517.6 2255.46 1518.01 Q2253.26 1518.43 2250.62 1519.31 L2250.62 1515.14 Q2253.28 1514.4 2255.6 1514.03 Q2257.93 1513.66 2259.99 1513.66 Q2265.32 1513.66 2268.42 1516.09 Q2271.52 1518.5 2271.52 1522.62 Q2271.52 1525.49 2269.88 1527.48 Q2268.23 1529.45 2265.2 1530.21 Z" fill="#000000" fill-rule="evenodd" fill-opacity="1"></path><path clip-path="url(#clip800)" d="M2291.2 1517.37 Q2287.59 1517.37 2285.76 1520.93 Q2283.95 1524.47 2283.95 1531.6 Q2283.95 1538.71 2285.76 1542.27 Q2287.59 1545.82 2291.2 1545.82 Q2294.83 1545.82 2296.64 1542.27 Q2298.47 1538.71 2298.47 1531.6 Q2298.47 1524.47 2296.64 1520.93 Q2294.83 1517.37 2291.2 1517.37 M2291.2 1513.66 Q2297.01 1513.66 2300.06 1518.27 Q2303.14 1522.85 2303.14 1531.6 Q2303.14 1540.33 2300.06 1544.94 Q2297.01 1549.52 2291.2 1549.52 Q2285.39 1549.52 2282.31 1544.94 Q2279.25 1540.33 2279.25 1531.6 Q2279.25 1522.85 2282.31 1518.27 Q2285.39 1513.66 2291.2 1513.66 Z" fill="#000000" fill-rule="evenodd" fill-opacity="1"></path><path clip-path="url(#clip800)" d="M2321.36 1517.37 Q2317.75 1517.37 2315.92 1520.93 Q2314.11 1524.47 2314.11 1531.6 Q2314.11 1538.71 2315.92 1542.27 Q2317.75 1545.82 2321.36 1545.82 Q2324.99 1545.82 2326.8 1542.27 Q2328.63 1538.71 2328.63 1531.6 Q2328.63 1524.47 2326.8 1520.93 Q2324.99 1517.37 2321.36 1517.37 M2321.36 1513.66 Q2327.17 1513.66 2330.22 1518.27 Q2333.3 1522.85 2333.3 1531.6 Q2333.3 1540.33 2330.22 1544.94 Q2327.17 1549.52 2321.36 1549.52 Q2315.55 1549.52 2312.47 1544.94 Q2309.41 1540.33 2309.41 1531.6 Q2309.41 1522.85 2312.47 1518.27 Q2315.55 1513.66 2321.36 1513.66 Z" fill="#000000" fill-rule="evenodd" fill-opacity="1"></path><polyline clip-path="url(#clip802)" style="stroke:#000000; stroke-linecap:butt; stroke-linejoin:round; stroke-width:2; stroke-opacity:0.1; fill:none" points="
  186.274,1447.89 2352.76,1447.89 
  "></polyline>
<polyline clip-path="url(#clip802)" style="stroke:#000000; stroke-linecap:butt; stroke-linejoin:round; stroke-width:2; stroke-opacity:0.1; fill:none" points="
  186.274,1126.43 2352.76,1126.43 
  "></polyline>
<polyline clip-path="url(#clip802)" style="stroke:#000000; stroke-linecap:butt; stroke-linejoin:round; stroke-width:2; stroke-opacity:0.1; fill:none" points="
  186.274,804.967 2352.76,804.967 
  "></polyline>
<polyline clip-path="url(#clip802)" style="stroke:#000000; stroke-linecap:butt; stroke-linejoin:round; stroke-width:2; stroke-opacity:0.1; fill:none" points="
  186.274,483.507 2352.76,483.507 
  "></polyline>
<polyline clip-path="url(#clip802)" style="stroke:#000000; stroke-linecap:butt; stroke-linejoin:round; stroke-width:2; stroke-opacity:0.1; fill:none" points="
  186.274,162.047 2352.76,162.047 
  "></polyline>
<polyline clip-path="url(#clip800)" style="stroke:#000000; stroke-linecap:butt; stroke-linejoin:round; stroke-width:4; stroke-opacity:1; fill:none" points="
  186.274,1486.45 186.274,123.472 
  "></polyline>
<polyline clip-path="url(#clip800)" style="stroke:#000000; stroke-linecap:butt; stroke-linejoin:round; stroke-width:4; stroke-opacity:1; fill:none" points="
  186.274,1447.89 205.172,1447.89 
  "></polyline>
<polyline clip-path="url(#clip800)" style="stroke:#000000; stroke-linecap:butt; stroke-linejoin:round; stroke-width:4; stroke-opacity:1; fill:none" points="
  186.274,1126.43 205.172,1126.43 
  "></polyline>
<polyline clip-path="url(#clip800)" style="stroke:#000000; stroke-linecap:butt; stroke-linejoin:round; stroke-width:4; stroke-opacity:1; fill:none" points="
  186.274,804.967 205.172,804.967 
  "></polyline>
<polyline clip-path="url(#clip800)" style="stroke:#000000; stroke-linecap:butt; stroke-linejoin:round; stroke-width:4; stroke-opacity:1; fill:none" points="
  186.274,483.507 205.172,483.507 
  "></polyline>
<polyline clip-path="url(#clip800)" style="stroke:#000000; stroke-linecap:butt; stroke-linejoin:round; stroke-width:4; stroke-opacity:1; fill:none" points="
  186.274,162.047 205.172,162.047 
  "></polyline>
<path clip-path="url(#clip800)" d="M62.9365 1433.69 Q59.3254 1433.69 57.4967 1437.25 Q55.6912 1440.79 55.6912 1447.92 Q55.6912 1455.03 57.4967 1458.59 Q59.3254 1462.14 62.9365 1462.14 Q66.5707 1462.14 68.3763 1458.59 Q70.205 1455.03 70.205 1447.92 Q70.205 1440.79 68.3763 1437.25 Q66.5707 1433.69 62.9365 1433.69 M62.9365 1429.98 Q68.7467 1429.98 71.8022 1434.59 Q74.8809 1439.17 74.8809 1447.92 Q74.8809 1456.65 71.8022 1461.26 Q68.7467 1465.84 62.9365 1465.84 Q57.1264 1465.84 54.0477 1461.26 Q50.9921 1456.65 50.9921 1447.92 Q50.9921 1439.17 54.0477 1434.59 Q57.1264 1429.98 62.9365 1429.98 Z" fill="#000000" fill-rule="evenodd" fill-opacity="1"></path><path clip-path="url(#clip800)" d="M83.0984 1459.29 L87.9827 1459.29 L87.9827 1465.17 L83.0984 1465.17 L83.0984 1459.29 Z" fill="#000000" fill-rule="evenodd" fill-opacity="1"></path><path clip-path="url(#clip800)" d="M108.168 1433.69 Q104.557 1433.69 102.728 1437.25 Q100.922 1440.79 100.922 1447.92 Q100.922 1455.03 102.728 1458.59 Q104.557 1462.14 108.168 1462.14 Q111.802 1462.14 113.608 1458.59 Q115.436 1455.03 115.436 1447.92 Q115.436 1440.79 113.608 1437.25 Q111.802 1433.69 108.168 1433.69 M108.168 1429.98 Q113.978 1429.98 117.033 1434.59 Q120.112 1439.17 120.112 1447.92 Q120.112 1456.65 117.033 1461.26 Q113.978 1465.84 108.168 1465.84 Q102.358 1465.84 99.2789 1461.26 Q96.2234 1456.65 96.2234 1447.92 Q96.2234 1439.17 99.2789 1434.59 Q102.358 1429.98 108.168 1429.98 Z" fill="#000000" fill-rule="evenodd" fill-opacity="1"></path><path clip-path="url(#clip800)" d="M138.33 1433.69 Q134.719 1433.69 132.89 1437.25 Q131.084 1440.79 131.084 1447.92 Q131.084 1455.03 132.89 1458.59 Q134.719 1462.14 138.33 1462.14 Q141.964 1462.14 143.769 1458.59 Q145.598 1455.03 145.598 1447.92 Q145.598 1440.79 143.769 1437.25 Q141.964 1433.69 138.33 1433.69 M138.33 1429.98 Q144.14 1429.98 147.195 1434.59 Q150.274 1439.17 150.274 1447.92 Q150.274 1456.65 147.195 1461.26 Q144.14 1465.84 138.33 1465.84 Q132.519 1465.84 129.441 1461.26 Q126.385 1456.65 126.385 1447.92 Q126.385 1439.17 129.441 1434.59 Q132.519 1429.98 138.33 1429.98 Z" fill="#000000" fill-rule="evenodd" fill-opacity="1"></path><path clip-path="url(#clip800)" d="M63.9319 1112.23 Q60.3208 1112.23 58.4921 1115.79 Q56.6865 1119.33 56.6865 1126.46 Q56.6865 1133.57 58.4921 1137.13 Q60.3208 1140.68 63.9319 1140.68 Q67.5661 1140.68 69.3717 1137.13 Q71.2004 1133.57 71.2004 1126.46 Q71.2004 1119.33 69.3717 1115.79 Q67.5661 1112.23 63.9319 1112.23 M63.9319 1108.52 Q69.742 1108.52 72.7976 1113.13 Q75.8763 1117.71 75.8763 1126.46 Q75.8763 1135.19 72.7976 1139.8 Q69.742 1144.38 63.9319 1144.38 Q58.1217 1144.38 55.043 1139.8 Q51.9875 1135.19 51.9875 1126.46 Q51.9875 1117.71 55.043 1113.13 Q58.1217 1108.52 63.9319 1108.52 Z" fill="#000000" fill-rule="evenodd" fill-opacity="1"></path><path clip-path="url(#clip800)" d="M84.0938 1137.83 L88.978 1137.83 L88.978 1143.71 L84.0938 1143.71 L84.0938 1137.83 Z" fill="#000000" fill-rule="evenodd" fill-opacity="1"></path><path clip-path="url(#clip800)" d="M103.191 1139.77 L119.51 1139.77 L119.51 1143.71 L97.566 1143.71 L97.566 1139.77 Q100.228 1137.02 104.811 1132.39 Q109.418 1127.74 110.598 1126.39 Q112.844 1123.87 113.723 1122.13 Q114.626 1120.37 114.626 1118.68 Q114.626 1115.93 112.682 1114.19 Q110.76 1112.46 107.658 1112.46 Q105.459 1112.46 103.006 1113.22 Q100.575 1113.99 97.7974 1115.54 L97.7974 1110.81 Q100.621 1109.68 103.075 1109.1 Q105.529 1108.52 107.566 1108.52 Q112.936 1108.52 116.131 1111.21 Q119.325 1113.89 119.325 1118.38 Q119.325 1120.51 118.515 1122.43 Q117.728 1124.33 115.621 1126.93 Q115.043 1127.6 111.941 1130.81 Q108.839 1134.01 103.191 1139.77 Z" fill="#000000" fill-rule="evenodd" fill-opacity="1"></path><path clip-path="url(#clip800)" d="M129.371 1109.15 L147.728 1109.15 L147.728 1113.08 L133.654 1113.08 L133.654 1121.55 Q134.672 1121.21 135.691 1121.05 Q136.709 1120.86 137.728 1120.86 Q143.515 1120.86 146.894 1124.03 Q150.274 1127.2 150.274 1132.62 Q150.274 1138.2 146.802 1141.3 Q143.33 1144.38 137.01 1144.38 Q134.834 1144.38 132.566 1144.01 Q130.32 1143.64 127.913 1142.9 L127.913 1138.2 Q129.996 1139.33 132.219 1139.89 Q134.441 1140.44 136.918 1140.44 Q140.922 1140.44 143.26 1138.34 Q145.598 1136.23 145.598 1132.62 Q145.598 1129.01 143.26 1126.9 Q140.922 1124.8 136.918 1124.8 Q135.043 1124.8 133.168 1125.21 Q131.316 1125.63 129.371 1126.51 L129.371 1109.15 Z" fill="#000000" fill-rule="evenodd" fill-opacity="1"></path><path clip-path="url(#clip800)" d="M62.9365 790.766 Q59.3254 790.766 57.4967 794.331 Q55.6912 797.873 55.6912 805.002 Q55.6912 812.109 57.4967 815.673 Q59.3254 819.215 62.9365 819.215 Q66.5707 819.215 68.3763 815.673 Q70.205 812.109 70.205 805.002 Q70.205 797.873 68.3763 794.331 Q66.5707 790.766 62.9365 790.766 M62.9365 787.062 Q68.7467 787.062 71.8022 791.669 Q74.8809 796.252 74.8809 805.002 Q74.8809 813.729 71.8022 818.335 Q68.7467 822.919 62.9365 822.919 Q57.1264 822.919 54.0477 818.335 Q50.9921 813.729 50.9921 805.002 Q50.9921 796.252 54.0477 791.669 Q57.1264 787.062 62.9365 787.062 Z" fill="#000000" fill-rule="evenodd" fill-opacity="1"></path><path clip-path="url(#clip800)" d="M83.0984 816.368 L87.9827 816.368 L87.9827 822.247 L83.0984 822.247 L83.0984 816.368 Z" fill="#000000" fill-rule="evenodd" fill-opacity="1"></path><path clip-path="url(#clip800)" d="M98.2141 787.687 L116.57 787.687 L116.57 791.623 L102.496 791.623 L102.496 800.095 Q103.515 799.748 104.534 799.585 Q105.552 799.4 106.571 799.4 Q112.358 799.4 115.737 802.572 Q119.117 805.743 119.117 811.159 Q119.117 816.738 115.645 819.84 Q112.172 822.919 105.853 822.919 Q103.677 822.919 101.409 822.548 Q99.1632 822.178 96.7558 821.437 L96.7558 816.738 Q98.8391 817.872 101.061 818.428 Q103.284 818.984 105.76 818.984 Q109.765 818.984 112.103 816.877 Q114.441 814.771 114.441 811.159 Q114.441 807.548 112.103 805.442 Q109.765 803.335 105.76 803.335 Q103.885 803.335 102.01 803.752 Q100.159 804.169 98.2141 805.048 L98.2141 787.687 Z" fill="#000000" fill-rule="evenodd" fill-opacity="1"></path><path clip-path="url(#clip800)" d="M138.33 790.766 Q134.719 790.766 132.89 794.331 Q131.084 797.873 131.084 805.002 Q131.084 812.109 132.89 815.673 Q134.719 819.215 138.33 819.215 Q141.964 819.215 143.769 815.673 Q145.598 812.109 145.598 805.002 Q145.598 797.873 143.769 794.331 Q141.964 790.766 138.33 790.766 M138.33 787.062 Q144.14 787.062 147.195 791.669 Q150.274 796.252 150.274 805.002 Q150.274 813.729 147.195 818.335 Q144.14 822.919 138.33 822.919 Q132.519 822.919 129.441 818.335 Q126.385 813.729 126.385 805.002 Q126.385 796.252 129.441 791.669 Q132.519 787.062 138.33 787.062 Z" fill="#000000" fill-rule="evenodd" fill-opacity="1"></path><path clip-path="url(#clip800)" d="M63.9319 469.306 Q60.3208 469.306 58.4921 472.871 Q56.6865 476.412 56.6865 483.542 Q56.6865 490.648 58.4921 494.213 Q60.3208 497.755 63.9319 497.755 Q67.5661 497.755 69.3717 494.213 Q71.2004 490.648 71.2004 483.542 Q71.2004 476.412 69.3717 472.871 Q67.5661 469.306 63.9319 469.306 M63.9319 465.602 Q69.742 465.602 72.7976 470.209 Q75.8763 474.792 75.8763 483.542 Q75.8763 492.269 72.7976 496.875 Q69.742 501.458 63.9319 501.458 Q58.1217 501.458 55.043 496.875 Q51.9875 492.269 51.9875 483.542 Q51.9875 474.792 55.043 470.209 Q58.1217 465.602 63.9319 465.602 Z" fill="#000000" fill-rule="evenodd" fill-opacity="1"></path><path clip-path="url(#clip800)" d="M84.0938 494.908 L88.978 494.908 L88.978 500.787 L84.0938 500.787 L84.0938 494.908 Z" fill="#000000" fill-rule="evenodd" fill-opacity="1"></path><path clip-path="url(#clip800)" d="M97.9826 466.227 L120.205 466.227 L120.205 468.218 L107.658 500.787 L102.774 500.787 L114.58 470.162 L97.9826 470.162 L97.9826 466.227 Z" fill="#000000" fill-rule="evenodd" fill-opacity="1"></path><path clip-path="url(#clip800)" d="M129.371 466.227 L147.728 466.227 L147.728 470.162 L133.654 470.162 L133.654 478.634 Q134.672 478.287 135.691 478.125 Q136.709 477.94 137.728 477.94 Q143.515 477.94 146.894 481.111 Q150.274 484.283 150.274 489.699 Q150.274 495.278 146.802 498.38 Q143.33 501.458 137.01 501.458 Q134.834 501.458 132.566 501.088 Q130.32 500.718 127.913 499.977 L127.913 495.278 Q129.996 496.412 132.219 496.968 Q134.441 497.523 136.918 497.523 Q140.922 497.523 143.26 495.417 Q145.598 493.31 145.598 489.699 Q145.598 486.088 143.26 483.982 Q140.922 481.875 136.918 481.875 Q135.043 481.875 133.168 482.292 Q131.316 482.709 129.371 483.588 L129.371 466.227 Z" fill="#000000" fill-rule="evenodd" fill-opacity="1"></path><path clip-path="url(#clip800)" d="M53.7467 175.392 L61.3856 175.392 L61.3856 149.026 L53.0754 150.693 L53.0754 146.434 L61.3393 144.767 L66.0152 144.767 L66.0152 175.392 L73.654 175.392 L73.654 179.327 L53.7467 179.327 L53.7467 175.392 Z" fill="#000000" fill-rule="evenodd" fill-opacity="1"></path><path clip-path="url(#clip800)" d="M83.0984 173.447 L87.9827 173.447 L87.9827 179.327 L83.0984 179.327 L83.0984 173.447 Z" fill="#000000" fill-rule="evenodd" fill-opacity="1"></path><path clip-path="url(#clip800)" d="M108.168 147.846 Q104.557 147.846 102.728 151.41 Q100.922 154.952 100.922 162.082 Q100.922 169.188 102.728 172.753 Q104.557 176.295 108.168 176.295 Q111.802 176.295 113.608 172.753 Q115.436 169.188 115.436 162.082 Q115.436 154.952 113.608 151.41 Q111.802 147.846 108.168 147.846 M108.168 144.142 Q113.978 144.142 117.033 148.748 Q120.112 153.332 120.112 162.082 Q120.112 170.808 117.033 175.415 Q113.978 179.998 108.168 179.998 Q102.358 179.998 99.2789 175.415 Q96.2234 170.808 96.2234 162.082 Q96.2234 153.332 99.2789 148.748 Q102.358 144.142 108.168 144.142 Z" fill="#000000" fill-rule="evenodd" fill-opacity="1"></path><path clip-path="url(#clip800)" d="M138.33 147.846 Q134.719 147.846 132.89 151.41 Q131.084 154.952 131.084 162.082 Q131.084 169.188 132.89 172.753 Q134.719 176.295 138.33 176.295 Q141.964 176.295 143.769 172.753 Q145.598 169.188 145.598 162.082 Q145.598 154.952 143.769 151.41 Q141.964 147.846 138.33 147.846 M138.33 144.142 Q144.14 144.142 147.195 148.748 Q150.274 153.332 150.274 162.082 Q150.274 170.808 147.195 175.415 Q144.14 179.998 138.33 179.998 Q132.519 179.998 129.441 175.415 Q126.385 170.808 126.385 162.082 Q126.385 153.332 129.441 148.748 Q132.519 144.142 138.33 144.142 Z" fill="#000000" fill-rule="evenodd" fill-opacity="1"></path><path clip-path="url(#clip800)" d="M604.924 16.7545 L604.924 25.383 Q600.792 21.5346 596.093 19.6307 Q591.434 17.7268 586.168 17.7268 Q575.798 17.7268 570.288 24.0867 Q564.779 30.4061 564.779 42.3968 Q564.779 54.3469 570.288 60.7069 Q575.798 67.0263 586.168 67.0263 Q591.434 67.0263 596.093 65.1223 Q600.792 63.2184 604.924 59.3701 L604.924 67.9175 Q600.63 70.8341 595.809 72.2924 Q591.029 73.7508 585.682 73.7508 Q571.949 73.7508 564.05 65.3654 Q556.151 56.9395 556.151 42.3968 Q556.151 27.8135 564.05 19.4281 Q571.949 11.0023 585.682 11.0023 Q591.11 11.0023 595.89 12.4606 Q600.711 13.8784 604.924 16.7545 Z" fill="#000000" fill-rule="evenodd" fill-opacity="1"></path><path clip-path="url(#clip800)" d="M634.819 32.4315 Q628.824 32.4315 625.34 37.1306 Q621.856 41.7891 621.856 49.9314 Q621.856 58.0738 625.3 62.7728 Q628.783 67.4314 634.819 67.4314 Q640.774 67.4314 644.258 62.7323 Q647.742 58.0333 647.742 49.9314 Q647.742 41.8701 644.258 37.1711 Q640.774 32.4315 634.819 32.4315 M634.819 26.1121 Q644.541 26.1121 650.091 32.4315 Q655.641 38.7509 655.641 49.9314 Q655.641 61.0714 650.091 67.4314 Q644.541 73.7508 634.819 73.7508 Q625.057 73.7508 619.507 67.4314 Q613.998 61.0714 613.998 49.9314 Q613.998 38.7509 619.507 32.4315 Q625.057 26.1121 634.819 26.1121 Z" fill="#000000" fill-rule="evenodd" fill-opacity="1"></path><path clip-path="url(#clip800)" d="M705.71 45.1919 L705.71 72.576 L698.256 72.576 L698.256 45.4349 Q698.256 38.994 695.745 35.7938 Q693.233 32.5936 688.21 32.5936 Q682.174 32.5936 678.691 36.4419 Q675.207 40.2903 675.207 46.9338 L675.207 72.576 L667.713 72.576 L667.713 27.2059 L675.207 27.2059 L675.207 34.2544 Q677.88 30.163 681.486 28.1376 Q685.132 26.1121 689.871 26.1121 Q697.689 26.1121 701.7 30.9732 Q705.71 35.7938 705.71 45.1919 Z" fill="#000000" fill-rule="evenodd" fill-opacity="1"></path><path clip-path="url(#clip800)" d="M715.23 27.2059 L723.129 27.2059 L737.307 65.2844 L751.485 27.2059 L759.385 27.2059 L742.371 72.576 L732.244 72.576 L715.23 27.2059 Z" fill="#000000" fill-rule="evenodd" fill-opacity="1"></path><path clip-path="url(#clip800)" d="M808.482 48.0275 L808.482 51.6733 L774.211 51.6733 Q774.697 59.3701 778.829 63.421 Q783.001 67.4314 790.415 67.4314 Q794.708 67.4314 798.719 66.3781 Q802.77 65.3249 806.74 63.2184 L806.74 70.267 Q802.729 71.9684 798.516 72.8596 Q794.303 73.7508 789.969 73.7508 Q779.112 73.7508 772.753 67.4314 Q766.433 61.1119 766.433 50.3365 Q766.433 39.1965 772.428 32.6746 Q778.464 26.1121 788.673 26.1121 Q797.828 26.1121 803.134 32.0264 Q808.482 37.9003 808.482 48.0275 M801.028 45.84 Q800.947 39.7232 797.585 36.0774 Q794.263 32.4315 788.754 32.4315 Q782.515 32.4315 778.748 35.9558 Q775.021 39.4801 774.454 45.8805 L801.028 45.84 Z" fill="#000000" fill-rule="evenodd" fill-opacity="1"></path><path clip-path="url(#clip800)" d="M847.006 34.1734 Q845.75 33.4443 844.251 33.1202 Q842.793 32.7556 841.01 32.7556 Q834.691 32.7556 831.288 36.8875 Q827.926 40.9789 827.926 48.6757 L827.926 72.576 L820.432 72.576 L820.432 27.2059 L827.926 27.2059 L827.926 34.2544 Q830.275 30.1225 834.043 28.1376 Q837.81 26.1121 843.198 26.1121 Q843.967 26.1121 844.899 26.2337 Q845.831 26.3147 846.965 26.5172 L847.006 34.1734 Z" fill="#000000" fill-rule="evenodd" fill-opacity="1"></path><path clip-path="url(#clip800)" d="M883.221 49.3643 Q883.221 41.2625 879.858 36.8065 Q876.537 32.3505 870.501 32.3505 Q864.506 32.3505 861.143 36.8065 Q857.822 41.2625 857.822 49.3643 Q857.822 57.4256 861.143 61.8816 Q864.506 66.3376 870.501 66.3376 Q876.537 66.3376 879.858 61.8816 Q883.221 57.4256 883.221 49.3643 M890.674 66.9452 Q890.674 78.5308 885.53 84.1616 Q880.385 89.8329 869.772 89.8329 Q865.842 89.8329 862.359 89.2252 Q858.875 88.6581 855.594 87.4428 L855.594 80.1917 Q858.875 81.9741 862.075 82.8248 Q865.275 83.6755 868.597 83.6755 Q875.929 83.6755 879.575 79.8271 Q883.221 76.0193 883.221 68.282 L883.221 64.5957 Q880.912 68.6061 877.306 70.5911 Q873.701 72.576 868.678 72.576 Q860.333 72.576 855.229 66.2161 Q850.125 59.8562 850.125 49.3643 Q850.125 38.832 855.229 32.472 Q860.333 26.1121 868.678 26.1121 Q873.701 26.1121 877.306 28.0971 Q880.912 30.082 883.221 34.0924 L883.221 27.2059 L890.674 27.2059 L890.674 66.9452 Z" fill="#000000" fill-rule="evenodd" fill-opacity="1"></path><path clip-path="url(#clip800)" d="M944.835 48.0275 L944.835 51.6733 L910.564 51.6733 Q911.05 59.3701 915.182 63.421 Q919.355 67.4314 926.768 67.4314 Q931.062 67.4314 935.072 66.3781 Q939.123 65.3249 943.093 63.2184 L943.093 70.267 Q939.083 71.9684 934.87 72.8596 Q930.657 73.7508 926.322 73.7508 Q915.466 73.7508 909.106 67.4314 Q902.787 61.1119 902.787 50.3365 Q902.787 39.1965 908.782 32.6746 Q914.818 26.1121 925.026 26.1121 Q934.181 26.1121 939.488 32.0264 Q944.835 37.9003 944.835 48.0275 M937.381 45.84 Q937.3 39.7232 933.938 36.0774 Q930.616 32.4315 925.107 32.4315 Q918.869 32.4315 915.101 35.9558 Q911.375 39.4801 910.807 45.8805 L937.381 45.84 Z" fill="#000000" fill-rule="evenodd" fill-opacity="1"></path><path clip-path="url(#clip800)" d="M994.783 45.1919 L994.783 72.576 L987.329 72.576 L987.329 45.4349 Q987.329 38.994 984.817 35.7938 Q982.306 32.5936 977.283 32.5936 Q971.247 32.5936 967.763 36.4419 Q964.279 40.2903 964.279 46.9338 L964.279 72.576 L956.785 72.576 L956.785 27.2059 L964.279 27.2059 L964.279 34.2544 Q966.953 30.163 970.558 28.1376 Q974.204 26.1121 978.944 26.1121 Q986.762 26.1121 990.772 30.9732 Q994.783 35.7938 994.783 45.1919 Z" fill="#000000" fill-rule="evenodd" fill-opacity="1"></path><path clip-path="url(#clip800)" d="M1042.3 28.9478 L1042.3 35.9153 Q1039.14 34.1734 1035.94 33.3227 Q1032.78 32.4315 1029.54 32.4315 Q1022.29 32.4315 1018.28 37.0496 Q1014.27 41.6271 1014.27 49.9314 Q1014.27 58.2358 1018.28 62.8538 Q1022.29 67.4314 1029.54 67.4314 Q1032.78 67.4314 1035.94 66.5807 Q1039.14 65.6895 1042.3 63.9476 L1042.3 70.8341 Q1039.18 72.2924 1035.82 73.0216 Q1032.5 73.7508 1028.73 73.7508 Q1018.48 73.7508 1012.44 67.3098 Q1006.41 60.8689 1006.41 49.9314 Q1006.41 38.832 1012.49 32.472 Q1018.6 26.1121 1029.22 26.1121 Q1032.66 26.1121 1035.94 26.8413 Q1039.22 27.5299 1042.3 28.9478 Z" fill="#000000" fill-rule="evenodd" fill-opacity="1"></path><path clip-path="url(#clip800)" d="M1094.07 48.0275 L1094.07 51.6733 L1059.8 51.6733 Q1060.29 59.3701 1064.42 63.421 Q1068.59 67.4314 1076 67.4314 Q1080.3 67.4314 1084.31 66.3781 Q1088.36 65.3249 1092.33 63.2184 L1092.33 70.267 Q1088.32 71.9684 1084.11 72.8596 Q1079.89 73.7508 1075.56 73.7508 Q1064.7 73.7508 1058.34 67.4314 Q1052.02 61.1119 1052.02 50.3365 Q1052.02 39.1965 1058.02 32.6746 Q1064.05 26.1121 1074.26 26.1121 Q1083.42 26.1121 1088.72 32.0264 Q1094.07 37.9003 1094.07 48.0275 M1086.62 45.84 Q1086.54 39.7232 1083.17 36.0774 Q1079.85 32.4315 1074.34 32.4315 Q1068.1 32.4315 1064.34 35.9558 Q1060.61 39.4801 1060.04 45.8805 L1086.62 45.84 Z" fill="#000000" fill-rule="evenodd" fill-opacity="1"></path><path clip-path="url(#clip800)" d="M1153.29 49.7694 Q1144.26 49.7694 1140.78 51.8354 Q1137.29 53.9013 1137.29 58.8839 Q1137.29 62.8538 1139.89 65.2034 Q1142.52 67.5124 1147.02 67.5124 Q1153.21 67.5124 1156.94 63.1374 Q1160.71 58.7219 1160.71 51.4303 L1160.71 49.7694 L1153.29 49.7694 M1168.16 46.6907 L1168.16 72.576 L1160.71 72.576 L1160.71 65.6895 Q1158.16 69.8214 1154.35 71.8063 Q1150.54 73.7508 1145.03 73.7508 Q1138.06 73.7508 1133.93 69.8619 Q1129.84 65.9325 1129.84 59.3701 Q1129.84 51.7138 1134.94 47.825 Q1140.09 43.9361 1150.26 43.9361 L1160.71 43.9361 L1160.71 43.2069 Q1160.71 38.0623 1157.3 35.2672 Q1153.94 32.4315 1147.83 32.4315 Q1143.94 32.4315 1140.25 33.3632 Q1136.56 34.295 1133.16 36.1584 L1133.16 29.2718 Q1137.25 27.692 1141.1 26.9223 Q1144.95 26.1121 1148.6 26.1121 Q1158.44 26.1121 1163.3 31.2163 Q1168.16 36.3204 1168.16 46.6907 Z" fill="#000000" fill-rule="evenodd" fill-opacity="1"></path><path clip-path="url(#clip800)" d="M1221.23 45.1919 L1221.23 72.576 L1213.77 72.576 L1213.77 45.4349 Q1213.77 38.994 1211.26 35.7938 Q1208.75 32.5936 1203.73 32.5936 Q1197.69 32.5936 1194.21 36.4419 Q1190.72 40.2903 1190.72 46.9338 L1190.72 72.576 L1183.23 72.576 L1183.23 27.2059 L1190.72 27.2059 L1190.72 34.2544 Q1193.4 30.163 1197 28.1376 Q1200.65 26.1121 1205.39 26.1121 Q1213.21 26.1121 1217.22 30.9732 Q1221.23 35.7938 1221.23 45.1919 Z" fill="#000000" fill-rule="evenodd" fill-opacity="1"></path><path clip-path="url(#clip800)" d="M1256.71 49.7694 Q1247.68 49.7694 1244.2 51.8354 Q1240.71 53.9013 1240.71 58.8839 Q1240.71 62.8538 1243.31 65.2034 Q1245.94 67.5124 1250.44 67.5124 Q1256.63 67.5124 1260.36 63.1374 Q1264.13 58.7219 1264.13 51.4303 L1264.13 49.7694 L1256.71 49.7694 M1271.58 46.6907 L1271.58 72.576 L1264.13 72.576 L1264.13 65.6895 Q1261.58 69.8214 1257.77 71.8063 Q1253.96 73.7508 1248.45 73.7508 Q1241.48 73.7508 1237.35 69.8619 Q1233.26 65.9325 1233.26 59.3701 Q1233.26 51.7138 1238.36 47.825 Q1243.51 43.9361 1253.68 43.9361 L1264.13 43.9361 L1264.13 43.2069 Q1264.13 38.0623 1260.72 35.2672 Q1257.36 32.4315 1251.25 32.4315 Q1247.36 32.4315 1243.67 33.3632 Q1239.98 34.295 1236.58 36.1584 L1236.58 29.2718 Q1240.67 27.692 1244.52 26.9223 Q1248.37 26.1121 1252.02 26.1121 Q1261.86 26.1121 1266.72 31.2163 Q1271.58 36.3204 1271.58 46.6907 Z" fill="#000000" fill-rule="evenodd" fill-opacity="1"></path><path clip-path="url(#clip800)" d="M1286.93 9.54393 L1294.39 9.54393 L1294.39 72.576 L1286.93 72.576 L1286.93 9.54393 Z" fill="#000000" fill-rule="evenodd" fill-opacity="1"></path><path clip-path="url(#clip800)" d="M1328.86 76.7889 Q1325.7 84.8907 1322.7 87.3618 Q1319.71 89.8329 1314.68 89.8329 L1308.73 89.8329 L1308.73 83.5945 L1313.1 83.5945 Q1316.18 83.5945 1317.88 82.1361 Q1319.58 80.6778 1321.65 75.2496 L1322.99 71.8468 L1304.64 27.2059 L1312.54 27.2059 L1326.71 62.6918 L1340.89 27.2059 L1348.79 27.2059 L1328.86 76.7889 Z" fill="#000000" fill-rule="evenodd" fill-opacity="1"></path><path clip-path="url(#clip800)" d="M1388 28.5427 L1388 35.5912 Q1384.84 33.9709 1381.44 33.1607 Q1378.04 32.3505 1374.39 32.3505 Q1368.84 32.3505 1366.05 34.0519 Q1363.29 35.7533 1363.29 39.156 Q1363.29 41.7486 1365.28 43.2475 Q1367.26 44.7058 1373.26 46.0426 L1375.81 46.6097 Q1383.75 48.3111 1387.07 51.4303 Q1390.43 54.509 1390.43 60.0587 Q1390.43 66.3781 1385.41 70.0644 Q1380.43 73.7508 1371.68 73.7508 Q1368.03 73.7508 1364.06 73.0216 Q1360.13 72.3329 1355.76 70.9151 L1355.76 63.2184 Q1359.89 65.3654 1363.9 66.4591 Q1367.91 67.5124 1371.84 67.5124 Q1377.11 67.5124 1379.94 65.73 Q1382.78 63.9071 1382.78 60.6258 Q1382.78 57.5877 1380.71 55.9673 Q1378.69 54.3469 1371.76 52.8481 L1369.17 52.2405 Q1362.24 50.7821 1359.16 47.7845 Q1356.08 44.7463 1356.08 39.4801 Q1356.08 33.0797 1360.62 29.5959 Q1365.16 26.1121 1373.5 26.1121 Q1377.63 26.1121 1381.28 26.7198 Q1384.93 27.3274 1388 28.5427 Z" fill="#000000" fill-rule="evenodd" fill-opacity="1"></path><path clip-path="url(#clip800)" d="M1402.3 27.2059 L1409.76 27.2059 L1409.76 72.576 L1402.3 72.576 L1402.3 27.2059 M1402.3 9.54393 L1409.76 9.54393 L1409.76 18.9825 L1402.3 18.9825 L1402.3 9.54393 Z" fill="#000000" fill-rule="evenodd" fill-opacity="1"></path><path clip-path="url(#clip800)" d="M1454.28 28.5427 L1454.28 35.5912 Q1451.12 33.9709 1447.71 33.1607 Q1444.31 32.3505 1440.67 32.3505 Q1435.12 32.3505 1432.32 34.0519 Q1429.57 35.7533 1429.57 39.156 Q1429.57 41.7486 1431.55 43.2475 Q1433.54 44.7058 1439.53 46.0426 L1442.08 46.6097 Q1450.02 48.3111 1453.34 51.4303 Q1456.71 54.509 1456.71 60.0587 Q1456.71 66.3781 1451.68 70.0644 Q1446.7 73.7508 1437.95 73.7508 Q1434.31 73.7508 1430.34 73.0216 Q1426.41 72.3329 1422.03 70.9151 L1422.03 63.2184 Q1426.16 65.3654 1430.17 66.4591 Q1434.18 67.5124 1438.11 67.5124 Q1443.38 67.5124 1446.22 65.73 Q1449.05 63.9071 1449.05 60.6258 Q1449.05 57.5877 1446.99 55.9673 Q1444.96 54.3469 1438.03 52.8481 L1435.44 52.2405 Q1428.51 50.7821 1425.43 47.7845 Q1422.36 44.7463 1422.36 39.4801 Q1422.36 33.0797 1426.89 29.5959 Q1431.43 26.1121 1439.77 26.1121 Q1443.91 26.1121 1447.55 26.7198 Q1451.2 27.3274 1454.28 28.5427 Z" fill="#000000" fill-rule="evenodd" fill-opacity="1"></path><path clip-path="url(#clip800)" d="M1517.92 9.54393 L1517.92 15.7418 L1510.79 15.7418 Q1506.78 15.7418 1505.2 17.3622 Q1503.66 18.9825 1503.66 23.1955 L1503.66 27.2059 L1515.93 27.2059 L1515.93 32.9987 L1503.66 32.9987 L1503.66 72.576 L1496.16 72.576 L1496.16 32.9987 L1489.03 32.9987 L1489.03 27.2059 L1496.16 27.2059 L1496.16 24.0462 Q1496.16 16.471 1499.69 13.0277 Q1503.21 9.54393 1510.87 9.54393 L1517.92 9.54393 Z" fill="#000000" fill-rule="evenodd" fill-opacity="1"></path><path clip-path="url(#clip800)" d="M1541.74 32.4315 Q1535.74 32.4315 1532.26 37.1306 Q1528.77 41.7891 1528.77 49.9314 Q1528.77 58.0738 1532.22 62.7728 Q1535.7 67.4314 1541.74 67.4314 Q1547.69 67.4314 1551.17 62.7323 Q1554.66 58.0333 1554.66 49.9314 Q1554.66 41.8701 1551.17 37.1711 Q1547.69 32.4315 1541.74 32.4315 M1541.74 26.1121 Q1551.46 26.1121 1557.01 32.4315 Q1562.56 38.7509 1562.56 49.9314 Q1562.56 61.0714 1557.01 67.4314 Q1551.46 73.7508 1541.74 73.7508 Q1531.97 73.7508 1526.42 67.4314 Q1520.91 61.0714 1520.91 49.9314 Q1520.91 38.7509 1526.42 32.4315 Q1531.97 26.1121 1541.74 26.1121 Z" fill="#000000" fill-rule="evenodd" fill-opacity="1"></path><path clip-path="url(#clip800)" d="M1601.2 34.1734 Q1599.95 33.4443 1598.45 33.1202 Q1596.99 32.7556 1595.21 32.7556 Q1588.89 32.7556 1585.49 36.8875 Q1582.12 40.9789 1582.12 48.6757 L1582.12 72.576 L1574.63 72.576 L1574.63 27.2059 L1582.12 27.2059 L1582.12 34.2544 Q1584.47 30.1225 1588.24 28.1376 Q1592.01 26.1121 1597.4 26.1121 Q1598.16 26.1121 1599.1 26.2337 Q1600.03 26.3147 1601.16 26.5172 L1601.2 34.1734 Z" fill="#000000" fill-rule="evenodd" fill-opacity="1"></path><path clip-path="url(#clip800)" d="M1635.72 12.096 L1673.96 12.096 L1673.96 18.9825 L1643.9 18.9825 L1643.9 36.8875 L1672.7 36.8875 L1672.7 43.7741 L1643.9 43.7741 L1643.9 65.6895 L1674.69 65.6895 L1674.69 72.576 L1635.72 72.576 L1635.72 12.096 Z" fill="#000000" fill-rule="evenodd" fill-opacity="1"></path><path clip-path="url(#clip800)" d="M1687.04 54.671 L1687.04 27.2059 L1694.5 27.2059 L1694.5 54.3874 Q1694.5 60.8284 1697.01 64.0691 Q1699.52 67.2693 1704.54 67.2693 Q1710.58 67.2693 1714.06 63.421 Q1717.59 59.5726 1717.59 52.9291 L1717.59 27.2059 L1725.04 27.2059 L1725.04 72.576 L1717.59 72.576 L1717.59 65.6084 Q1714.87 69.7404 1711.27 71.7658 Q1707.7 73.7508 1702.96 73.7508 Q1695.14 73.7508 1691.09 68.8897 Q1687.04 64.0286 1687.04 54.671 M1705.8 26.1121 L1705.8 26.1121 Z" fill="#000000" fill-rule="evenodd" fill-opacity="1"></path><path clip-path="url(#clip800)" d="M1766.68 34.1734 Q1765.43 33.4443 1763.93 33.1202 Q1762.47 32.7556 1760.69 32.7556 Q1754.37 32.7556 1750.96 36.8875 Q1747.6 40.9789 1747.6 48.6757 L1747.6 72.576 L1740.11 72.576 L1740.11 27.2059 L1747.6 27.2059 L1747.6 34.2544 Q1749.95 30.1225 1753.72 28.1376 Q1757.49 26.1121 1762.87 26.1121 Q1763.64 26.1121 1764.58 26.2337 Q1765.51 26.3147 1766.64 26.5172 L1766.68 34.1734 Z" fill="#000000" fill-rule="evenodd" fill-opacity="1"></path><path clip-path="url(#clip800)" d="M1790.26 32.4315 Q1784.26 32.4315 1780.78 37.1306 Q1777.3 41.7891 1777.3 49.9314 Q1777.3 58.0738 1780.74 62.7728 Q1784.22 67.4314 1790.26 67.4314 Q1796.21 67.4314 1799.7 62.7323 Q1803.18 58.0333 1803.18 49.9314 Q1803.18 41.8701 1799.7 37.1711 Q1796.21 32.4315 1790.26 32.4315 M1790.26 26.1121 Q1799.98 26.1121 1805.53 32.4315 Q1811.08 38.7509 1811.08 49.9314 Q1811.08 61.0714 1805.53 67.4314 Q1799.98 73.7508 1790.26 73.7508 Q1780.5 73.7508 1774.95 67.4314 Q1769.44 61.0714 1769.44 49.9314 Q1769.44 38.7509 1774.95 32.4315 Q1780.5 26.1121 1790.26 26.1121 Z" fill="#000000" fill-rule="evenodd" fill-opacity="1"></path><path clip-path="url(#clip800)" d="M1821.21 46.5287 L1843.04 46.5287 L1843.04 53.1722 L1821.21 53.1722 L1821.21 46.5287 Z" fill="#000000" fill-rule="evenodd" fill-opacity="1"></path><path clip-path="url(#clip800)" d="M1862.12 65.7705 L1862.12 89.8329 L1854.63 89.8329 L1854.63 27.2059 L1862.12 27.2059 L1862.12 34.0924 Q1864.47 30.0415 1868.04 28.0971 Q1871.64 26.1121 1876.62 26.1121 Q1884.89 26.1121 1890.03 32.6746 Q1895.22 39.2371 1895.22 49.9314 Q1895.22 60.6258 1890.03 67.1883 Q1884.89 73.7508 1876.62 73.7508 Q1871.64 73.7508 1868.04 71.8063 Q1864.47 69.8214 1862.12 65.7705 M1887.48 49.9314 Q1887.48 41.7081 1884.08 37.0496 Q1880.72 32.3505 1874.8 32.3505 Q1868.89 32.3505 1865.48 37.0496 Q1862.12 41.7081 1862.12 49.9314 Q1862.12 58.1548 1865.48 62.8538 Q1868.89 67.5124 1874.8 67.5124 Q1880.72 67.5124 1884.08 62.8538 Q1887.48 58.1548 1887.48 49.9314 Z" fill="#000000" fill-rule="evenodd" fill-opacity="1"></path><path clip-path="url(#clip800)" d="M1906.8 54.671 L1906.8 27.2059 L1914.26 27.2059 L1914.26 54.3874 Q1914.26 60.8284 1916.77 64.0691 Q1919.28 67.2693 1924.3 67.2693 Q1930.34 67.2693 1933.82 63.421 Q1937.35 59.5726 1937.35 52.9291 L1937.35 27.2059 L1944.8 27.2059 L1944.8 72.576 L1937.35 72.576 L1937.35 65.6084 Q1934.63 69.7404 1931.03 71.7658 Q1927.46 73.7508 1922.72 73.7508 Q1914.91 73.7508 1910.85 68.8897 Q1906.8 64.0286 1906.8 54.671 M1925.56 26.1121 L1925.56 26.1121 Z" fill="#000000" fill-rule="evenodd" fill-opacity="1"></path><path clip-path="url(#clip800)" d="M1967.53 14.324 L1967.53 27.2059 L1982.88 27.2059 L1982.88 32.9987 L1967.53 32.9987 L1967.53 57.6282 Q1967.53 63.1779 1969.03 64.7578 Q1970.56 66.3376 1975.22 66.3376 L1982.88 66.3376 L1982.88 72.576 L1975.22 72.576 Q1966.59 72.576 1963.31 69.3758 Q1960.03 66.1351 1960.03 57.6282 L1960.03 32.9987 L1954.56 32.9987 L1954.56 27.2059 L1960.03 27.2059 L1960.03 14.324 L1967.53 14.324 Z" fill="#000000" fill-rule="evenodd" fill-opacity="1"></path><polyline clip-path="url(#clip802)" style="stroke:#009af9; stroke-linecap:butt; stroke-linejoin:round; stroke-width:4; stroke-opacity:1; fill:none" points="
  247.59,766.722 254.425,1122.17 261.261,1283.65 268.096,1214.54 274.932,1335.01 281.768,1302.16 288.603,1446.92 295.439,1368.94 302.274,1404.1 309.11,1420.77 
  315.946,1387.47 322.781,1433.52 329.617,1384.15 336.453,1399.39 343.288,1387.59 350.124,1395.51 356.959,1394.57 363.795,1422.77 370.631,1403.4 377.466,1441.73 
  384.302,1413.14 391.138,1440.93 397.973,1423.26 404.809,1432.04 411.644,1433.43 418.48,1426.25 425.316,1443.49 432.151,1422.79 438.987,1442.45 445.823,1421.08 
  452.658,1432.91 459.494,1420.7 466.329,1423.69 473.165,1421.34 480.001,1422.37 486.836,1422.78 493.672,1431.37 500.508,1424.82 507.343,1438.74 514.179,1427.34 
  521.014,1444.74 527.85,1430.22 534.686,1446.18 541.521,1433.38 548.357,1442.31 555.192,1436.76 562.028,1439.27 568.864,1440.29 575.699,1436.93 582.535,1443.95 
  589.371,1435.2 596.206,1447.68 603.042,1433.99 609.877,1444.3 616.713,1433.23 623.549,1440.47 630.384,1432.86 637.22,1436.62 644.056,1432.82 650.891,1432.77 
  657.727,1433.08 664.562,1433.74 671.398,1433.59 678.234,1437.59 685.069,1434.31 691.905,1440.97 698.741,1435.23 705.576,1443.92 712.412,1436.31 719.247,1446.47 
  726.083,1437.54 732.919,1447.09 739.754,1438.9 746.59,1445.2 753.426,1440.36 760.261,1443.59 767.097,1441.92 773.932,1442.24 780.768,1443.56 787.604,1441.12 
  794.439,1445.27 801.275,1440.22 808.11,1447.05 814.946,1439.51 821.782,1446.9 828.617,1438.98 835.453,1445.03 842.289,1438.61 849.124,1443.12 855.96,1438.39 
  862.795,1441.18 869.631,1438.3 876.467,1439.22 883.302,1438.33 890.138,1437.23 896.974,1438.48 903.809,1439.32 910.645,1438.73 917.48,1441.27 924.316,1439.07 
  931.152,1443.04 937.987,1439.5 944.823,1444.64 951.659,1440.01 958.494,1446.09 965.33,1440.59 972.165,1447.38 979.001,1441.24 985.837,1447.23 992.672,1441.95 
  999.508,1446.2 1006.34,1442.71 1013.18,1445.28 1020.01,1443.52 1026.85,1444.48 1033.69,1444.39 1040.52,1443.79 1047.36,1445.29 1054.19,1443.19 1061.03,1446.23 
  1067.86,1442.68 1074.7,1447.21 1081.54,1442.26 1088.37,1447.56 1095.21,1441.91 1102.04,1446.51 1108.88,1441.65 1115.71,1445.45 1122.55,1441.45 1129.38,1444.35 
  1136.22,1441.33 1143.06,1443.24 1149.89,1441.26 1156.73,1442.1 1163.56,1441.25 1170.4,1440.95 1177.23,1441.3 1184.07,1441.2 1190.91,1441.41 1197.74,1442.39 
  1204.58,1441.56 1211.41,1443.5 1218.25,1441.75 1225.08,1444.52 1231.92,1441.99 1238.75,1445.46 1245.59,1442.27 1252.43,1446.34 1259.26,1442.59 1266.1,1447.14 
  1272.93,1442.95 1279.77,1447.87 1286.6,1443.34 1293.44,1447.23 1300.28,1443.76 1307.11,1446.62 1313.95,1444.21 1320.78,1446.06 1327.62,1444.69 1334.45,1445.56 
  1341.29,1445.2 1348.12,1445.12 1354.96,1445.73 1361.8,1444.72 1368.63,1446.29 1375.47,1444.37 1382.3,1446.87 1389.14,1444.06 1395.97,1447.47 1402.81,1443.8 
  1409.65,1447.69 1416.48,1443.58 1423.32,1447.05 1430.15,1443.4 1436.99,1446.4 1443.82,1443.25 1450.66,1445.73 1457.49,1443.15 1464.33,1445.04 1471.17,1443.07 
  1478,1444.34 1484.84,1443.03 1491.67,1443.62 1498.51,1443.02 1505.34,1442.89 1512.18,1443.04 1519.02,1442.74 1525.85,1443.09 1532.69,1443.5 1539.52,1443.17 
  1546.36,1444.22 1553.19,1443.27 1560.03,1444.9 1566.86,1443.4 1573.7,1445.53 1580.54,1443.55 1587.37,1446.13 1594.21,1443.73 1601.04,1446.69 1607.88,1443.92 
  1614.71,1447.21 1621.55,1444.14 1628.39,1447.69 1635.22,1444.38 1642.06,1447.63 1648.89,1444.63 1655.73,1447.21 1662.56,1444.91 1669.4,1446.83 1676.23,1445.2 
  1683.07,1446.47 1689.91,1445.51 1696.74,1446.15 1703.58,1445.84 1710.41,1445.85 1717.25,1446.18 1724.08,1445.58 1730.92,1446.54 1737.76,1445.33 1744.59,1446.91 
  1751.43,1445.12 1758.26,1447.29 1765.1,1444.92 1771.93,1447.69 1778.77,1444.75 1785.6,1447.68 1792.44,1444.61 1799.28,1447.26 1806.11,1444.48 1812.95,1446.83 
  1819.78,1444.38 1826.62,1446.38 1833.45,1444.3 1840.29,1445.93 1847.12,1444.24 1853.96,1445.47 1860.8,1444.2 1867.63,1445 1874.47,1444.17 1881.3,1444.51 
  1888.14,1444.17 1894.97,1444.02 1901.81,1444.18 1908.65,1443.91 1915.48,1444.21 1922.32,1444.42 1929.15,1444.25 1935.99,1444.91 1942.82,1444.31 1949.66,1445.38 
  1956.49,1444.39 1963.33,1445.82 1970.17,1444.48 1977,1446.24 1983.84,1444.59 1990.67,1446.63 1997.51,1444.7 2004.34,1447.01 2011.18,1444.84 2018.02,1447.36 
  2024.85,1444.98 2031.69,1447.69 2038.52,1445.14 2045.36,1447.77 2052.19,1445.31 2059.03,1447.48 2065.86,1445.49 2072.7,1447.21 2079.54,1445.68 2086.37,1446.95 
  2093.21,1445.88 2100.04,1446.71 2106.88,1446.1 2113.71,1446.49 2120.55,1446.32 2127.39,1446.29 2134.22,1446.55 2141.06,1446.1 2147.89,1446.8 2154.73,1445.93 
  2161.56,1447.05 2168.4,1445.77 2175.23,1447.31 2182.07,1445.63 2188.91,1447.58 2195.74,1445.5 2202.58,1447.86 2209.41,1445.39 2216.25,1447.63 2223.08,1445.29 
  2229.92,1447.34 2236.76,1445.2 2243.59,1447.04 2250.43,1445.13 2257.26,1446.73 2264.1,1445.07 2270.93,1446.41 2277.77,1445.02 2284.6,1446.09 2291.44,1444.99 
  
  "></polyline>
<polyline clip-path="url(#clip802)" style="stroke:#e26f46; stroke-linecap:butt; stroke-linejoin:round; stroke-width:4; stroke-opacity:1; fill:none" points="
  247.59,162.047 254.425,804.967 261.261,1019.27 268.096,1126.43 274.932,1190.72 281.768,1233.58 288.603,1264.2 295.439,1287.16 302.274,1305.02 309.11,1319.3 
  315.946,1330.99 322.781,1340.73 329.617,1348.98 336.453,1356.04 343.288,1362.17 350.124,1367.52 356.959,1372.25 363.795,1376.45 370.631,1380.21 377.466,1383.6 
  384.302,1386.66 391.138,1389.44 397.973,1391.98 404.809,1394.31 411.644,1396.45 418.48,1398.43 425.316,1400.26 432.151,1401.96 438.987,1403.55 445.823,1405.03 
  452.658,1406.41 459.494,1407.71 466.329,1408.92 473.165,1410.07 480.001,1411.15 486.836,1412.17 493.672,1413.14 500.508,1414.05 507.343,1414.92 514.179,1415.74 
  521.014,1416.53 527.85,1417.27 534.686,1417.98 541.521,1418.66 548.357,1419.31 555.192,1419.93 562.028,1420.53 568.864,1421.1 575.699,1421.65 582.535,1422.17 
  589.371,1422.68 596.206,1423.16 603.042,1423.63 609.877,1424.08 616.713,1424.51 623.549,1424.93 630.384,1425.33 637.22,1425.72 644.056,1426.09 650.891,1426.46 
  657.727,1426.81 664.562,1427.15 671.398,1427.48 678.234,1427.8 685.069,1428.11 691.905,1428.41 698.741,1428.7 705.576,1428.98 712.412,1429.25 719.247,1429.52 
  726.083,1429.78 732.919,1430.03 739.754,1430.27 746.59,1430.51 753.426,1430.74 760.261,1430.97 767.097,1431.19 773.932,1431.4 780.768,1431.61 787.604,1431.81 
  794.439,1432.01 801.275,1432.21 808.11,1432.4 814.946,1432.58 821.782,1432.76 828.617,1432.94 835.453,1433.11 842.289,1433.28 849.124,1433.44 855.96,1433.6 
  862.795,1433.76 869.631,1433.91 876.467,1434.06 883.302,1434.21 890.138,1434.35 896.974,1434.49 903.809,1434.63 910.645,1434.77 917.48,1434.9 924.316,1435.03 
  931.152,1435.16 937.987,1435.28 944.823,1435.4 951.659,1435.52 958.494,1435.64 965.33,1435.76 972.165,1435.87 979.001,1435.98 985.837,1436.09 992.672,1436.2 
  999.508,1436.3 1006.34,1436.41 1013.18,1436.51 1020.01,1436.61 1026.85,1436.71 1033.69,1436.8 1040.52,1436.9 1047.36,1436.99 1054.19,1437.08 1061.03,1437.17 
  1067.86,1437.26 1074.7,1437.35 1081.54,1437.43 1088.37,1437.52 1095.21,1437.6 1102.04,1437.68 1108.88,1437.76 1115.71,1437.84 1122.55,1437.92 1129.38,1438 
  1136.22,1438.07 1143.06,1438.15 1149.89,1438.22 1156.73,1438.29 1163.56,1438.36 1170.4,1438.43 1177.23,1438.5 1184.07,1438.57 1190.91,1438.64 1197.74,1438.7 
  1204.58,1438.77 1211.41,1438.83 1218.25,1438.9 1225.08,1438.96 1231.92,1439.02 1238.75,1439.08 1245.59,1439.14 1252.43,1439.2 1259.26,1439.26 1266.1,1439.32 
  1272.93,1439.37 1279.77,1439.43 1286.6,1439.48 1293.44,1439.54 1300.28,1439.59 1307.11,1439.65 1313.95,1439.7 1320.78,1439.75 1327.62,1439.8 1334.45,1439.85 
  1341.29,1439.9 1348.12,1439.95 1354.96,1440 1361.8,1440.05 1368.63,1440.09 1375.47,1440.14 1382.3,1440.19 1389.14,1440.23 1395.97,1440.28 1402.81,1440.32 
  1409.65,1440.37 1416.48,1440.41 1423.32,1440.46 1430.15,1440.5 1436.99,1440.54 1443.82,1440.58 1450.66,1440.62 1457.49,1440.66 1464.33,1440.7 1471.17,1440.74 
  1478,1440.78 1484.84,1440.82 1491.67,1440.86 1498.51,1440.9 1505.34,1440.94 1512.18,1440.97 1519.02,1441.01 1525.85,1441.05 1532.69,1441.08 1539.52,1441.12 
  1546.36,1441.16 1553.19,1441.19 1560.03,1441.23 1566.86,1441.26 1573.7,1441.29 1580.54,1441.33 1587.37,1441.36 1594.21,1441.39 1601.04,1441.43 1607.88,1441.46 
  1614.71,1441.49 1621.55,1441.52 1628.39,1441.55 1635.22,1441.58 1642.06,1441.62 1648.89,1441.65 1655.73,1441.68 1662.56,1441.71 1669.4,1441.74 1676.23,1441.76 
  1683.07,1441.79 1689.91,1441.82 1696.74,1441.85 1703.58,1441.88 1710.41,1441.91 1717.25,1441.93 1724.08,1441.96 1730.92,1441.99 1737.76,1442.02 1744.59,1442.04 
  1751.43,1442.07 1758.26,1442.1 1765.1,1442.12 1771.93,1442.15 1778.77,1442.17 1785.6,1442.2 1792.44,1442.22 1799.28,1442.25 1806.11,1442.27 1812.95,1442.3 
  1819.78,1442.32 1826.62,1442.35 1833.45,1442.37 1840.29,1442.39 1847.12,1442.42 1853.96,1442.44 1860.8,1442.46 1867.63,1442.49 1874.47,1442.51 1881.3,1442.53 
  1888.14,1442.55 1894.97,1442.57 1901.81,1442.6 1908.65,1442.62 1915.48,1442.64 1922.32,1442.66 1929.15,1442.68 1935.99,1442.7 1942.82,1442.72 1949.66,1442.74 
  1956.49,1442.76 1963.33,1442.79 1970.17,1442.81 1977,1442.83 1983.84,1442.85 1990.67,1442.87 1997.51,1442.88 2004.34,1442.9 2011.18,1442.92 2018.02,1442.94 
  2024.85,1442.96 2031.69,1442.98 2038.52,1443 2045.36,1443.02 2052.19,1443.04 2059.03,1443.05 2065.86,1443.07 2072.7,1443.09 2079.54,1443.11 2086.37,1443.13 
  2093.21,1443.14 2100.04,1443.16 2106.88,1443.18 2113.71,1443.2 2120.55,1443.21 2127.39,1443.23 2134.22,1443.25 2141.06,1443.26 2147.89,1443.28 2154.73,1443.3 
  2161.56,1443.31 2168.4,1443.33 2175.23,1443.34 2182.07,1443.36 2188.91,1443.38 2195.74,1443.39 2202.58,1443.41 2209.41,1443.42 2216.25,1443.44 2223.08,1443.45 
  2229.92,1443.47 2236.76,1443.48 2243.59,1443.5 2250.43,1443.51 2257.26,1443.53 2264.1,1443.54 2270.93,1443.56 2277.77,1443.57 2284.6,1443.59 2291.44,1443.6 
  
  "></polyline>
<path clip-path="url(#clip800)" d="
M1077.19 324.425 L2280.54 324.425 L2280.54 168.905 L1077.19 168.905  Z
  " fill="#ffffff" fill-rule="evenodd" fill-opacity="1"></path>
<polyline clip-path="url(#clip800)" style="stroke:#000000; stroke-linecap:butt; stroke-linejoin:round; stroke-width:4; stroke-opacity:1; fill:none" points="
  1077.19,324.425 2280.54,324.425 2280.54,168.905 1077.19,168.905 1077.19,324.425 
  "></polyline>
<polyline clip-path="url(#clip800)" style="stroke:#009af9; stroke-linecap:butt; stroke-linejoin:round; stroke-width:4; stroke-opacity:1; fill:none" points="
  1101.26,220.745 1245.69,220.745 
  "></polyline>
<path clip-path="url(#clip800)" d="M1274.44 207.307 L1274.44 234.182 L1280.09 234.182 Q1287.24 234.182 1290.55 230.941 Q1293.88 227.701 1293.88 220.71 Q1293.88 213.766 1290.55 210.548 Q1287.24 207.307 1280.09 207.307 L1274.44 207.307 M1269.76 203.465 L1279.37 203.465 Q1289.41 203.465 1294.11 207.654 Q1298.81 211.821 1298.81 220.71 Q1298.81 229.645 1294.09 233.835 Q1289.37 238.025 1279.37 238.025 L1269.76 238.025 L1269.76 203.465 Z" fill="#000000" fill-rule="evenodd" fill-opacity="1"></path><path clip-path="url(#clip800)" d="M1306.08 212.099 L1310.34 212.099 L1310.34 238.025 L1306.08 238.025 L1306.08 212.099 M1306.08 202.006 L1310.34 202.006 L1310.34 207.4 L1306.08 207.4 L1306.08 202.006 Z" fill="#000000" fill-rule="evenodd" fill-opacity="1"></path><path clip-path="url(#clip800)" d="M1332.38 202.006 L1332.38 205.548 L1328.3 205.548 Q1326.01 205.548 1325.11 206.474 Q1324.23 207.4 1324.23 209.807 L1324.23 212.099 L1331.24 212.099 L1331.24 215.409 L1324.23 215.409 L1324.23 238.025 L1319.95 238.025 L1319.95 215.409 L1315.87 215.409 L1315.87 212.099 L1319.95 212.099 L1319.95 210.293 Q1319.95 205.965 1321.96 203.997 Q1323.97 202.006 1328.35 202.006 L1332.38 202.006 Z" fill="#000000" fill-rule="evenodd" fill-opacity="1"></path><path clip-path="url(#clip800)" d="M1349.07 202.006 L1349.07 205.548 L1344.99 205.548 Q1342.7 205.548 1341.8 206.474 Q1340.92 207.4 1340.92 209.807 L1340.92 212.099 L1347.93 212.099 L1347.93 215.409 L1340.92 215.409 L1340.92 238.025 L1336.64 238.025 L1336.64 215.409 L1332.56 215.409 L1332.56 212.099 L1336.64 212.099 L1336.64 210.293 Q1336.64 205.965 1338.65 203.997 Q1340.66 202.006 1345.04 202.006 L1349.07 202.006 Z" fill="#000000" fill-rule="evenodd" fill-opacity="1"></path><path clip-path="url(#clip800)" d="M1374.81 223.997 L1374.81 226.08 L1355.22 226.08 Q1355.5 230.478 1357.86 232.793 Q1360.25 235.085 1364.48 235.085 Q1366.94 235.085 1369.23 234.483 Q1371.54 233.881 1373.81 232.677 L1373.81 236.705 Q1371.52 237.677 1369.11 238.187 Q1366.71 238.696 1364.23 238.696 Q1358.03 238.696 1354.39 235.085 Q1350.78 231.474 1350.78 225.316 Q1350.78 218.951 1354.21 215.224 Q1357.66 211.474 1363.49 211.474 Q1368.72 211.474 1371.75 214.853 Q1374.81 218.21 1374.81 223.997 M1370.55 222.747 Q1370.5 219.252 1368.58 217.168 Q1366.68 215.085 1363.53 215.085 Q1359.97 215.085 1357.82 217.099 Q1355.69 219.113 1355.36 222.77 L1370.55 222.747 Z" fill="#000000" fill-rule="evenodd" fill-opacity="1"></path><path clip-path="url(#clip800)" d="M1396.82 216.08 Q1396.1 215.664 1395.25 215.478 Q1394.41 215.27 1393.4 215.27 Q1389.78 215.27 1387.84 217.631 Q1385.92 219.969 1385.92 224.367 L1385.92 238.025 L1381.64 238.025 L1381.64 212.099 L1385.92 212.099 L1385.92 216.127 Q1387.26 213.766 1389.41 212.631 Q1391.57 211.474 1394.65 211.474 Q1395.09 211.474 1395.62 211.543 Q1396.15 211.59 1396.8 211.705 L1396.82 216.08 Z" fill="#000000" fill-rule="evenodd" fill-opacity="1"></path><path clip-path="url(#clip800)" d="M1422.42 223.997 L1422.42 226.08 L1402.84 226.08 Q1403.12 230.478 1405.48 232.793 Q1407.86 235.085 1412.1 235.085 Q1414.55 235.085 1416.84 234.483 Q1419.16 233.881 1421.43 232.677 L1421.43 236.705 Q1419.14 237.677 1416.73 238.187 Q1414.32 238.696 1411.84 238.696 Q1405.64 238.696 1402.01 235.085 Q1398.4 231.474 1398.4 225.316 Q1398.4 218.951 1401.82 215.224 Q1405.27 211.474 1411.1 211.474 Q1416.34 211.474 1419.37 214.853 Q1422.42 218.21 1422.42 223.997 M1418.16 222.747 Q1418.12 219.252 1416.2 217.168 Q1414.3 215.085 1411.15 215.085 Q1407.59 215.085 1405.43 217.099 Q1403.3 219.113 1402.98 222.77 L1418.16 222.747 Z" fill="#000000" fill-rule="evenodd" fill-opacity="1"></path><path clip-path="url(#clip800)" d="M1450.96 222.377 L1450.96 238.025 L1446.71 238.025 L1446.71 222.515 Q1446.71 218.835 1445.27 217.006 Q1443.84 215.178 1440.96 215.178 Q1437.52 215.178 1435.53 217.377 Q1433.53 219.576 1433.53 223.372 L1433.53 238.025 L1429.25 238.025 L1429.25 212.099 L1433.53 212.099 L1433.53 216.127 Q1435.06 213.789 1437.12 212.631 Q1439.21 211.474 1441.91 211.474 Q1446.38 211.474 1448.67 214.252 Q1450.96 217.006 1450.96 222.377 Z" fill="#000000" fill-rule="evenodd" fill-opacity="1"></path><path clip-path="url(#clip800)" d="M1478.12 213.094 L1478.12 217.076 Q1476.31 216.08 1474.48 215.594 Q1472.68 215.085 1470.83 215.085 Q1466.68 215.085 1464.39 217.724 Q1462.1 220.34 1462.1 225.085 Q1462.1 229.83 1464.39 232.469 Q1466.68 235.085 1470.83 235.085 Q1472.68 235.085 1474.48 234.599 Q1476.31 234.089 1478.12 233.094 L1478.12 237.029 Q1476.34 237.863 1474.41 238.279 Q1472.52 238.696 1470.36 238.696 Q1464.51 238.696 1461.06 235.015 Q1457.61 231.335 1457.61 225.085 Q1457.61 218.742 1461.08 215.108 Q1464.58 211.474 1470.64 211.474 Q1472.61 211.474 1474.48 211.891 Q1476.36 212.284 1478.12 213.094 Z" fill="#000000" fill-rule="evenodd" fill-opacity="1"></path><path clip-path="url(#clip800)" d="M1507.7 223.997 L1507.7 226.08 L1488.12 226.08 Q1488.4 230.478 1490.76 232.793 Q1493.14 235.085 1497.38 235.085 Q1499.83 235.085 1502.12 234.483 Q1504.44 233.881 1506.71 232.677 L1506.71 236.705 Q1504.41 237.677 1502.01 238.187 Q1499.6 238.696 1497.12 238.696 Q1490.92 238.696 1487.28 235.085 Q1483.67 231.474 1483.67 225.316 Q1483.67 218.951 1487.1 215.224 Q1490.55 211.474 1496.38 211.474 Q1501.61 211.474 1504.65 214.853 Q1507.7 218.21 1507.7 223.997 M1503.44 222.747 Q1503.4 219.252 1501.47 217.168 Q1499.58 215.085 1496.43 215.085 Q1492.86 215.085 1490.71 217.099 Q1488.58 219.113 1488.26 222.77 L1503.44 222.747 Z" fill="#000000" fill-rule="evenodd" fill-opacity="1"></path><path clip-path="url(#clip800)" d="M1539.81 215.085 Q1536.38 215.085 1534.39 217.77 Q1532.4 220.432 1532.4 225.085 Q1532.4 229.738 1534.37 232.423 Q1536.36 235.085 1539.81 235.085 Q1543.21 235.085 1545.2 232.4 Q1547.19 229.715 1547.19 225.085 Q1547.19 220.478 1545.2 217.793 Q1543.21 215.085 1539.81 215.085 M1539.81 211.474 Q1545.36 211.474 1548.53 215.085 Q1551.71 218.696 1551.71 225.085 Q1551.71 231.451 1548.53 235.085 Q1545.36 238.696 1539.81 238.696 Q1534.23 238.696 1531.06 235.085 Q1527.91 231.451 1527.91 225.085 Q1527.91 218.696 1531.06 215.085 Q1534.23 211.474 1539.81 211.474 Z" fill="#000000" fill-rule="evenodd" fill-opacity="1"></path><path clip-path="url(#clip800)" d="M1571.89 202.006 L1571.89 205.548 L1567.82 205.548 Q1565.52 205.548 1564.62 206.474 Q1563.74 207.4 1563.74 209.807 L1563.74 212.099 L1570.76 212.099 L1570.76 215.409 L1563.74 215.409 L1563.74 238.025 L1559.46 238.025 L1559.46 215.409 L1555.39 215.409 L1555.39 212.099 L1559.46 212.099 L1559.46 210.293 Q1559.46 205.965 1561.47 203.997 Q1563.49 202.006 1567.86 202.006 L1571.89 202.006 Z" fill="#000000" fill-rule="evenodd" fill-opacity="1"></path><path clip-path="url(#clip800)" d="M1595.39 221.52 L1595.39 234.182 L1602.89 234.182 Q1606.66 234.182 1608.46 232.631 Q1610.29 231.057 1610.29 227.84 Q1610.29 224.599 1608.46 223.071 Q1606.66 221.52 1602.89 221.52 L1595.39 221.52 M1595.39 207.307 L1595.39 217.724 L1602.31 217.724 Q1605.73 217.724 1607.4 216.451 Q1609.09 215.154 1609.09 212.516 Q1609.09 209.9 1607.4 208.604 Q1605.73 207.307 1602.31 207.307 L1595.39 207.307 M1590.71 203.465 L1602.65 203.465 Q1608 203.465 1610.89 205.687 Q1613.79 207.909 1613.79 212.006 Q1613.79 215.178 1612.31 217.053 Q1610.83 218.928 1607.95 219.39 Q1611.4 220.131 1613.3 222.492 Q1615.22 224.83 1615.22 228.349 Q1615.22 232.978 1612.08 235.502 Q1608.93 238.025 1603.12 238.025 L1590.71 238.025 L1590.71 203.465 Z" fill="#000000" fill-rule="evenodd" fill-opacity="1"></path><path clip-path="url(#clip800)" d="M1623.05 212.099 L1627.31 212.099 L1627.31 238.025 L1623.05 238.025 L1623.05 212.099 M1623.05 202.006 L1627.31 202.006 L1627.31 207.4 L1623.05 207.4 L1623.05 202.006 Z" fill="#000000" fill-rule="evenodd" fill-opacity="1"></path><path clip-path="url(#clip800)" d="M1657.77 222.377 L1657.77 238.025 L1653.51 238.025 L1653.51 222.515 Q1653.51 218.835 1652.07 217.006 Q1650.64 215.178 1647.77 215.178 Q1644.32 215.178 1642.33 217.377 Q1640.34 219.576 1640.34 223.372 L1640.34 238.025 L1636.06 238.025 L1636.06 212.099 L1640.34 212.099 L1640.34 216.127 Q1641.87 213.789 1643.93 212.631 Q1646.01 211.474 1648.72 211.474 Q1653.19 211.474 1655.48 214.252 Q1657.77 217.006 1657.77 222.377 Z" fill="#000000" fill-rule="evenodd" fill-opacity="1"></path><path clip-path="url(#clip800)" d="M1676.31 215.085 Q1672.88 215.085 1670.89 217.77 Q1668.9 220.432 1668.9 225.085 Q1668.9 229.738 1670.87 232.423 Q1672.86 235.085 1676.31 235.085 Q1679.71 235.085 1681.7 232.4 Q1683.7 229.715 1683.7 225.085 Q1683.7 220.478 1681.7 217.793 Q1679.71 215.085 1676.31 215.085 M1676.31 211.474 Q1681.87 211.474 1685.04 215.085 Q1688.21 218.696 1688.21 225.085 Q1688.21 231.451 1685.04 235.085 Q1681.87 238.696 1676.31 238.696 Q1670.73 238.696 1667.56 235.085 Q1664.41 231.451 1664.41 225.085 Q1664.41 218.696 1667.56 215.085 Q1670.73 211.474 1676.31 211.474 Z" fill="#000000" fill-rule="evenodd" fill-opacity="1"></path><path clip-path="url(#clip800)" d="M1715.45 217.076 Q1717.05 214.205 1719.27 212.84 Q1721.5 211.474 1724.51 211.474 Q1728.56 211.474 1730.75 214.321 Q1732.95 217.145 1732.95 222.377 L1732.95 238.025 L1728.67 238.025 L1728.67 222.515 Q1728.67 218.789 1727.35 216.983 Q1726.03 215.178 1723.32 215.178 Q1720.01 215.178 1718.09 217.377 Q1716.17 219.576 1716.17 223.372 L1716.17 238.025 L1711.89 238.025 L1711.89 222.515 Q1711.89 218.765 1710.57 216.983 Q1709.25 215.178 1706.5 215.178 Q1703.23 215.178 1701.31 217.4 Q1699.39 219.599 1699.39 223.372 L1699.39 238.025 L1695.11 238.025 L1695.11 212.099 L1699.39 212.099 L1699.39 216.127 Q1700.85 213.742 1702.88 212.608 Q1704.92 211.474 1707.72 211.474 Q1710.55 211.474 1712.51 212.909 Q1714.51 214.344 1715.45 217.076 Z" fill="#000000" fill-rule="evenodd" fill-opacity="1"></path><path clip-path="url(#clip800)" d="M1741.45 212.099 L1745.71 212.099 L1745.71 238.025 L1741.45 238.025 L1741.45 212.099 M1741.45 202.006 L1745.71 202.006 L1745.71 207.4 L1741.45 207.4 L1741.45 202.006 Z" fill="#000000" fill-rule="evenodd" fill-opacity="1"></path><path clip-path="url(#clip800)" d="M1766.4 224.992 Q1761.24 224.992 1759.25 226.173 Q1757.26 227.353 1757.26 230.201 Q1757.26 232.469 1758.74 233.812 Q1760.25 235.131 1762.81 235.131 Q1766.36 235.131 1768.49 232.631 Q1770.64 230.108 1770.64 225.941 L1770.64 224.992 L1766.4 224.992 M1774.9 223.233 L1774.9 238.025 L1770.64 238.025 L1770.64 234.089 Q1769.18 236.451 1767 237.585 Q1764.83 238.696 1761.68 238.696 Q1757.7 238.696 1755.34 236.474 Q1753 234.228 1753 230.478 Q1753 226.103 1755.92 223.881 Q1758.86 221.659 1764.67 221.659 L1770.64 221.659 L1770.64 221.242 Q1770.64 218.303 1768.69 216.705 Q1766.77 215.085 1763.28 215.085 Q1761.06 215.085 1758.95 215.617 Q1756.84 216.15 1754.9 217.215 L1754.9 213.279 Q1757.24 212.377 1759.44 211.937 Q1761.63 211.474 1763.72 211.474 Q1769.34 211.474 1772.12 214.391 Q1774.9 217.307 1774.9 223.233 Z" fill="#000000" fill-rule="evenodd" fill-opacity="1"></path><path clip-path="url(#clip800)" d="M1783.67 202.006 L1787.93 202.006 L1787.93 238.025 L1783.67 238.025 L1783.67 202.006 Z" fill="#000000" fill-rule="evenodd" fill-opacity="1"></path><path clip-path="url(#clip800)" d="M1816.77 207.307 L1816.77 220.293 L1822.65 220.293 Q1825.92 220.293 1827.7 218.603 Q1829.48 216.914 1829.48 213.789 Q1829.48 210.687 1827.7 208.997 Q1825.92 207.307 1822.65 207.307 L1816.77 207.307 M1812.1 203.465 L1822.65 203.465 Q1828.46 203.465 1831.43 206.104 Q1834.41 208.719 1834.41 213.789 Q1834.41 218.904 1831.43 221.52 Q1828.46 224.136 1822.65 224.136 L1816.77 224.136 L1816.77 238.025 L1812.1 238.025 L1812.1 203.465 Z" fill="#000000" fill-rule="evenodd" fill-opacity="1"></path><path clip-path="url(#clip800)" d="M1854.69 216.08 Q1853.97 215.664 1853.12 215.478 Q1852.28 215.27 1851.26 215.27 Q1847.65 215.27 1845.71 217.631 Q1843.79 219.969 1843.79 224.367 L1843.79 238.025 L1839.5 238.025 L1839.5 212.099 L1843.79 212.099 L1843.79 216.127 Q1845.13 213.766 1847.28 212.631 Q1849.43 211.474 1852.51 211.474 Q1852.95 211.474 1853.49 211.543 Q1854.02 211.59 1854.67 211.705 L1854.69 216.08 Z" fill="#000000" fill-rule="evenodd" fill-opacity="1"></path><path clip-path="url(#clip800)" d="M1859.16 212.099 L1863.42 212.099 L1863.42 238.025 L1859.16 238.025 L1859.16 212.099 M1859.16 202.006 L1863.42 202.006 L1863.42 207.4 L1859.16 207.4 L1859.16 202.006 Z" fill="#000000" fill-rule="evenodd" fill-opacity="1"></path><path clip-path="url(#clip800)" d="M1890.99 213.094 L1890.99 217.076 Q1889.18 216.08 1887.35 215.594 Q1885.55 215.085 1883.69 215.085 Q1879.55 215.085 1877.26 217.724 Q1874.97 220.34 1874.97 225.085 Q1874.97 229.83 1877.26 232.469 Q1879.55 235.085 1883.69 235.085 Q1885.55 235.085 1887.35 234.599 Q1889.18 234.089 1890.99 233.094 L1890.99 237.029 Q1889.2 237.863 1887.28 238.279 Q1885.38 238.696 1883.23 238.696 Q1877.37 238.696 1873.93 235.015 Q1870.48 231.335 1870.48 225.085 Q1870.48 218.742 1873.95 215.108 Q1877.44 211.474 1883.51 211.474 Q1885.48 211.474 1887.35 211.891 Q1889.23 212.284 1890.99 213.094 Z" fill="#000000" fill-rule="evenodd" fill-opacity="1"></path><path clip-path="url(#clip800)" d="M1920.57 223.997 L1920.57 226.08 L1900.99 226.08 Q1901.26 230.478 1903.62 232.793 Q1906.01 235.085 1910.24 235.085 Q1912.7 235.085 1914.99 234.483 Q1917.3 233.881 1919.57 232.677 L1919.57 236.705 Q1917.28 237.677 1914.87 238.187 Q1912.47 238.696 1909.99 238.696 Q1903.79 238.696 1900.15 235.085 Q1896.54 231.474 1896.54 225.316 Q1896.54 218.951 1899.97 215.224 Q1903.42 211.474 1909.25 211.474 Q1914.48 211.474 1917.51 214.853 Q1920.57 218.21 1920.57 223.997 M1916.31 222.747 Q1916.26 219.252 1914.34 217.168 Q1912.44 215.085 1909.3 215.085 Q1905.73 215.085 1903.58 217.099 Q1901.45 219.113 1901.12 222.77 L1916.31 222.747 Z" fill="#000000" fill-rule="evenodd" fill-opacity="1"></path><path clip-path="url(#clip800)" d="M1954.41 224.992 Q1949.25 224.992 1947.26 226.173 Q1945.27 227.353 1945.27 230.201 Q1945.27 232.469 1946.75 233.812 Q1948.25 235.131 1950.82 235.131 Q1954.36 235.131 1956.49 232.631 Q1958.65 230.108 1958.65 225.941 L1958.65 224.992 L1954.41 224.992 M1962.91 223.233 L1962.91 238.025 L1958.65 238.025 L1958.65 234.089 Q1957.19 236.451 1955.01 237.585 Q1952.84 238.696 1949.69 238.696 Q1945.71 238.696 1943.35 236.474 Q1941.01 234.228 1941.01 230.478 Q1941.01 226.103 1943.93 223.881 Q1946.86 221.659 1952.68 221.659 L1958.65 221.659 L1958.65 221.242 Q1958.65 218.303 1956.7 216.705 Q1954.78 215.085 1951.29 215.085 Q1949.06 215.085 1946.96 215.617 Q1944.85 216.15 1942.91 217.215 L1942.91 213.279 Q1945.24 212.377 1947.44 211.937 Q1949.64 211.474 1951.73 211.474 Q1957.35 211.474 1960.13 214.391 Q1962.91 217.307 1962.91 223.233 Z" fill="#000000" fill-rule="evenodd" fill-opacity="1"></path><path clip-path="url(#clip800)" d="M1993.23 222.377 L1993.23 238.025 L1988.97 238.025 L1988.97 222.515 Q1988.97 218.835 1987.54 217.006 Q1986.1 215.178 1983.23 215.178 Q1979.78 215.178 1977.79 217.377 Q1975.8 219.576 1975.8 223.372 L1975.8 238.025 L1971.52 238.025 L1971.52 212.099 L1975.8 212.099 L1975.8 216.127 Q1977.33 213.789 1979.39 212.631 Q1981.47 211.474 1984.18 211.474 Q1988.65 211.474 1990.94 214.252 Q1993.23 217.006 1993.23 222.377 Z" fill="#000000" fill-rule="evenodd" fill-opacity="1"></path><path clip-path="url(#clip800)" d="M2018.79 216.034 L2018.79 202.006 L2023.05 202.006 L2023.05 238.025 L2018.79 238.025 L2018.79 234.136 Q2017.44 236.451 2015.38 237.585 Q2013.35 238.696 2010.48 238.696 Q2005.78 238.696 2002.81 234.946 Q1999.87 231.196 1999.87 225.085 Q1999.87 218.974 2002.81 215.224 Q2005.78 211.474 2010.48 211.474 Q2013.35 211.474 2015.38 212.608 Q2017.44 213.719 2018.79 216.034 M2004.27 225.085 Q2004.27 229.784 2006.19 232.469 Q2008.14 235.131 2011.52 235.131 Q2014.9 235.131 2016.84 232.469 Q2018.79 229.784 2018.79 225.085 Q2018.79 220.386 2016.84 217.724 Q2014.9 215.039 2011.52 215.039 Q2008.14 215.039 2006.19 217.724 Q2004.27 220.386 2004.27 225.085 Z" fill="#000000" fill-rule="evenodd" fill-opacity="1"></path><path clip-path="url(#clip800)" d="M2051.75 221.52 L2051.75 234.182 L2059.25 234.182 Q2063.02 234.182 2064.83 232.631 Q2066.66 231.057 2066.66 227.84 Q2066.66 224.599 2064.83 223.071 Q2063.02 221.52 2059.25 221.52 L2051.75 221.52 M2051.75 207.307 L2051.75 217.724 L2058.67 217.724 Q2062.1 217.724 2063.76 216.451 Q2065.45 215.154 2065.45 212.516 Q2065.45 209.9 2063.76 208.604 Q2062.1 207.307 2058.67 207.307 L2051.75 207.307 M2047.07 203.465 L2059.02 203.465 Q2064.36 203.465 2067.26 205.687 Q2070.15 207.909 2070.15 212.006 Q2070.15 215.178 2068.67 217.053 Q2067.19 218.928 2064.32 219.39 Q2067.77 220.131 2069.67 222.492 Q2071.59 224.83 2071.59 228.349 Q2071.59 232.978 2068.44 235.502 Q2065.29 238.025 2059.48 238.025 L2047.07 238.025 L2047.07 203.465 Z" fill="#000000" fill-rule="evenodd" fill-opacity="1"></path><path clip-path="url(#clip800)" d="M2099.48 204.599 L2099.48 209.159 Q2096.82 207.886 2094.46 207.261 Q2092.1 206.636 2089.9 206.636 Q2086.08 206.636 2083.99 208.117 Q2081.93 209.599 2081.93 212.33 Q2081.93 214.622 2083.3 215.803 Q2084.69 216.96 2088.53 217.678 L2091.35 218.256 Q2096.59 219.252 2099.06 221.775 Q2101.56 224.275 2101.56 228.488 Q2101.56 233.511 2098.18 236.103 Q2094.83 238.696 2088.32 238.696 Q2085.87 238.696 2083.09 238.14 Q2080.34 237.585 2077.37 236.497 L2077.37 231.682 Q2080.22 233.279 2082.95 234.089 Q2085.68 234.9 2088.32 234.9 Q2092.33 234.9 2094.5 233.326 Q2096.68 231.752 2096.68 228.835 Q2096.68 226.289 2095.1 224.853 Q2093.55 223.418 2089.99 222.701 L2087.14 222.145 Q2081.91 221.103 2079.57 218.881 Q2077.23 216.659 2077.23 212.701 Q2077.23 208.117 2080.45 205.479 Q2083.69 202.84 2089.36 202.84 Q2091.79 202.84 2094.32 203.279 Q2096.84 203.719 2099.48 204.599 Z" fill="#000000" fill-rule="evenodd" fill-opacity="1"></path><path clip-path="url(#clip800)" d="M2128.6 207.307 L2128.6 220.293 L2134.48 220.293 Q2137.74 220.293 2139.53 218.603 Q2141.31 216.914 2141.31 213.789 Q2141.31 210.687 2139.53 208.997 Q2137.74 207.307 2134.48 207.307 L2128.6 207.307 M2123.92 203.465 L2134.48 203.465 Q2140.29 203.465 2143.25 206.104 Q2146.24 208.719 2146.24 213.789 Q2146.24 218.904 2143.25 221.52 Q2140.29 224.136 2134.48 224.136 L2128.6 224.136 L2128.6 238.025 L2123.92 238.025 L2123.92 203.465 Z" fill="#000000" fill-rule="evenodd" fill-opacity="1"></path><path clip-path="url(#clip800)" d="M2166.52 216.08 Q2165.8 215.664 2164.94 215.478 Q2164.11 215.27 2163.09 215.27 Q2159.48 215.27 2157.54 217.631 Q2155.61 219.969 2155.61 224.367 L2155.61 238.025 L2151.33 238.025 L2151.33 212.099 L2155.61 212.099 L2155.61 216.127 Q2156.96 213.766 2159.11 212.631 Q2161.26 211.474 2164.34 211.474 Q2164.78 211.474 2165.31 211.543 Q2165.85 211.59 2166.49 211.705 L2166.52 216.08 Z" fill="#000000" fill-rule="evenodd" fill-opacity="1"></path><path clip-path="url(#clip800)" d="M2170.98 212.099 L2175.24 212.099 L2175.24 238.025 L2170.98 238.025 L2170.98 212.099 M2170.98 202.006 L2175.24 202.006 L2175.24 207.4 L2170.98 207.4 L2170.98 202.006 Z" fill="#000000" fill-rule="evenodd" fill-opacity="1"></path><path clip-path="url(#clip800)" d="M2202.81 213.094 L2202.81 217.076 Q2201.01 216.08 2199.18 215.594 Q2197.37 215.085 2195.52 215.085 Q2191.38 215.085 2189.09 217.724 Q2186.79 220.34 2186.79 225.085 Q2186.79 229.83 2189.09 232.469 Q2191.38 235.085 2195.52 235.085 Q2197.37 235.085 2199.18 234.599 Q2201.01 234.089 2202.81 233.094 L2202.81 237.029 Q2201.03 237.863 2199.11 238.279 Q2197.21 238.696 2195.06 238.696 Q2189.2 238.696 2185.75 235.015 Q2182.3 231.335 2182.3 225.085 Q2182.3 218.742 2185.78 215.108 Q2189.27 211.474 2195.34 211.474 Q2197.3 211.474 2199.18 211.891 Q2201.05 212.284 2202.81 213.094 Z" fill="#000000" fill-rule="evenodd" fill-opacity="1"></path><path clip-path="url(#clip800)" d="M2232.4 223.997 L2232.4 226.08 L2212.81 226.08 Q2213.09 230.478 2215.45 232.793 Q2217.84 235.085 2222.07 235.085 Q2224.53 235.085 2226.82 234.483 Q2229.13 233.881 2231.4 232.677 L2231.4 236.705 Q2229.11 237.677 2226.7 238.187 Q2224.29 238.696 2221.82 238.696 Q2215.61 238.696 2211.98 235.085 Q2208.37 231.474 2208.37 225.316 Q2208.37 218.951 2211.79 215.224 Q2215.24 211.474 2221.08 211.474 Q2226.31 211.474 2229.34 214.853 Q2232.4 218.21 2232.4 223.997 M2228.14 222.747 Q2228.09 219.252 2226.17 217.168 Q2224.27 215.085 2221.12 215.085 Q2217.56 215.085 2215.41 217.099 Q2213.28 219.113 2212.95 222.77 L2228.14 222.747 Z" fill="#000000" fill-rule="evenodd" fill-opacity="1"></path><polyline clip-path="url(#clip800)" style="stroke:#e26f46; stroke-linecap:butt; stroke-linejoin:round; stroke-width:4; stroke-opacity:1; fill:none" points="
  1101.26,272.585 1245.69,272.585 
  "></polyline>
<path clip-path="url(#clip800)" d="M1270.43 285.929 L1278.07 285.929 L1278.07 259.564 L1269.76 261.231 L1269.76 256.971 L1278.03 255.305 L1282.7 255.305 L1282.7 285.929 L1290.34 285.929 L1290.34 289.865 L1270.43 289.865 L1270.43 285.929 Z" fill="#000000" fill-rule="evenodd" fill-opacity="1"></path><path clip-path="url(#clip800)" d="M1306.75 255.305 L1310.69 255.305 L1298.65 294.263 L1294.72 294.263 L1306.75 255.305 Z" fill="#000000" fill-rule="evenodd" fill-opacity="1"></path><path clip-path="url(#clip800)" d="M1336.71 274.217 L1336.71 289.865 L1332.45 289.865 L1332.45 274.355 Q1332.45 270.675 1331.01 268.846 Q1329.58 267.018 1326.71 267.018 Q1323.26 267.018 1321.27 269.217 Q1319.28 271.416 1319.28 275.212 L1319.28 289.865 L1314.99 289.865 L1314.99 263.939 L1319.28 263.939 L1319.28 267.967 Q1320.8 265.629 1322.86 264.471 Q1324.95 263.314 1327.66 263.314 Q1332.12 263.314 1334.41 266.092 Q1336.71 268.846 1336.71 274.217 Z" fill="#000000" fill-rule="evenodd" fill-opacity="1"></path></svg>