<svg xmlns="http://www.w3.org/2000/svg" xmlns:xlink="http://www.w3.org/1999/xlink" width="600" height="400" viewBox="0 0 2400 1600">
<defs>
  <clipPath id="clip760">
    <rect x="0" y="0" width="2400" height="1600"></rect>
  </clipPath>
</defs>
<path clip-path="url(#clip760)" d="
M0 1600 L2400 1600 L2400 0 L0 0  Z
  " fill="#ffffff" fill-rule="evenodd" fill-opacity="1"></path>
<defs>
  <clipPath id="clip761">
    <rect x="480" y="0" width="1681" height="1600"></rect>
  </clipPath>
</defs>
<path clip-path="url(#clip760)" d="
M186.274 1486.45 L2352.76 1486.45 L2352.76 123.472 L186.274 123.472  Z
  " fill="#ffffff" fill-rule="evenodd" fill-opacity="1"></path>
<defs>
  <clipPath id="clip762">
    <rect x="186" y="123" width="2167" height="1364"></rect>
  </clipPath>
</defs>
<polyline clip-path="url(#clip762)" style="stroke:#000000; stroke-linecap:butt; stroke-linejoin:round; stroke-width:2; stroke-opacity:0.1; fill:none" points="
  240.754,1486.45 240.754,123.472 
  "></polyline>
<polyline clip-path="url(#clip762)" style="stroke:#000000; stroke-linecap:butt; stroke-linejoin:round; stroke-width:2; stroke-opacity:0.1; fill:none" points="
  924.316,1486.45 924.316,123.472 
  "></polyline>
<polyline clip-path="url(#clip762)" style="stroke:#000000; stroke-linecap:butt; stroke-linejoin:round; stroke-width:2; stroke-opacity:0.1; fill:none" points="
  1607.88,1486.45 1607.88,123.472 
  "></polyline>
<polyline clip-path="url(#clip762)" style="stroke:#000000; stroke-linecap:butt; stroke-linejoin:round; stroke-width:2; stroke-opacity:0.1; fill:none" points="
  2291.44,1486.45 2291.44,123.472 
  "></polyline>
<polyline clip-path="url(#clip760)" style="stroke:#000000; stroke-linecap:butt; stroke-linejoin:round; stroke-width:4; stroke-opacity:1; fill:none" points="
  186.274,1486.45 2352.76,1486.45 
  "></polyline>
<polyline clip-path="url(#clip760)" style="stroke:#000000; stroke-linecap:butt; stroke-linejoin:round; stroke-width:4; stroke-opacity:1; fill:none" points="
  240.754,1486.45 240.754,1467.55 
  "></polyline>
<polyline clip-path="url(#clip760)" style="stroke:#000000; stroke-linecap:butt; stroke-linejoin:round; stroke-width:4; stroke-opacity:1; fill:none" points="
  924.316,1486.45 924.316,1467.55 
  "></polyline>
<polyline clip-path="url(#clip760)" style="stroke:#000000; stroke-linecap:butt; stroke-linejoin:round; stroke-width:4; stroke-opacity:1; fill:none" points="
  1607.88,1486.45 1607.88,1467.55 
  "></polyline>
<polyline clip-path="url(#clip760)" style="stroke:#000000; stroke-linecap:butt; stroke-linejoin:round; stroke-width:4; stroke-opacity:1; fill:none" points="
  2291.44,1486.45 2291.44,1467.55 
  "></polyline>
<path clip-path="url(#clip760)" d="M240.754 1517.37 Q237.143 1517.37 235.314 1520.93 Q233.509 1524.47 233.509 1531.6 Q233.509 1538.71 235.314 1542.27 Q237.143 1545.82 240.754 1545.82 Q244.388 1545.82 246.194 1542.27 Q248.022 1538.71 248.022 1531.6 Q248.022 1524.47 246.194 1520.93 Q244.388 1517.37 240.754 1517.37 M240.754 1513.66 Q246.564 1513.66 249.62 1518.27 Q252.698 1522.85 252.698 1531.6 Q252.698 1540.33 249.62 1544.94 Q246.564 1549.52 240.754 1549.52 Q234.944 1549.52 231.865 1544.94 Q228.81 1540.33 228.81 1531.6 Q228.81 1522.85 231.865 1518.27 Q234.944 1513.66 240.754 1513.66 Z" fill="#000000" fill-rule="evenodd" fill-opacity="1"></path><path clip-path="url(#clip760)" d="M883.923 1544.91 L891.562 1544.91 L891.562 1518.55 L883.251 1520.21 L883.251 1515.95 L891.515 1514.29 L896.191 1514.29 L896.191 1544.91 L903.83 1544.91 L903.83 1548.85 L883.923 1548.85 L883.923 1544.91 Z" fill="#000000" fill-rule="evenodd" fill-opacity="1"></path><path clip-path="url(#clip760)" d="M923.274 1517.37 Q919.663 1517.37 917.835 1520.93 Q916.029 1524.47 916.029 1531.6 Q916.029 1538.71 917.835 1542.27 Q919.663 1545.82 923.274 1545.82 Q926.909 1545.82 928.714 1542.27 Q930.543 1538.71 930.543 1531.6 Q930.543 1524.47 928.714 1520.93 Q926.909 1517.37 923.274 1517.37 M923.274 1513.66 Q929.085 1513.66 932.14 1518.27 Q935.219 1522.85 935.219 1531.6 Q935.219 1540.33 932.14 1544.94 Q929.085 1549.52 923.274 1549.52 Q917.464 1549.52 914.386 1544.94 Q911.33 1540.33 911.33 1531.6 Q911.33 1522.85 914.386 1518.27 Q917.464 1513.66 923.274 1513.66 Z" fill="#000000" fill-rule="evenodd" fill-opacity="1"></path><path clip-path="url(#clip760)" d="M953.436 1517.37 Q949.825 1517.37 947.996 1520.93 Q946.191 1524.47 946.191 1531.6 Q946.191 1538.71 947.996 1542.27 Q949.825 1545.82 953.436 1545.82 Q957.071 1545.82 958.876 1542.27 Q960.705 1538.71 960.705 1531.6 Q960.705 1524.47 958.876 1520.93 Q957.071 1517.37 953.436 1517.37 M953.436 1513.66 Q959.246 1513.66 962.302 1518.27 Q965.381 1522.85 965.381 1531.6 Q965.381 1540.33 962.302 1544.94 Q959.246 1549.52 953.436 1549.52 Q947.626 1549.52 944.547 1544.94 Q941.492 1540.33 941.492 1531.6 Q941.492 1522.85 944.547 1518.27 Q947.626 1513.66 953.436 1513.66 Z" fill="#000000" fill-rule="evenodd" fill-opacity="1"></path><path clip-path="url(#clip760)" d="M1571.57 1544.91 L1587.89 1544.91 L1587.89 1548.85 L1565.95 1548.85 L1565.95 1544.91 Q1568.61 1542.16 1573.19 1537.53 Q1577.8 1532.88 1578.98 1531.53 Q1581.22 1529.01 1582.1 1527.27 Q1583.01 1525.51 1583.01 1523.82 Q1583.01 1521.07 1581.06 1519.33 Q1579.14 1517.6 1576.04 1517.6 Q1573.84 1517.6 1571.39 1518.36 Q1568.95 1519.13 1566.18 1520.68 L1566.18 1515.95 Q1569 1514.82 1571.45 1514.24 Q1573.91 1513.66 1575.95 1513.66 Q1581.32 1513.66 1584.51 1516.35 Q1587.7 1519.03 1587.7 1523.52 Q1587.7 1525.65 1586.89 1527.57 Q1586.11 1529.47 1584 1532.07 Q1583.42 1532.74 1580.32 1535.95 Q1577.22 1539.15 1571.57 1544.91 Z" fill="#000000" fill-rule="evenodd" fill-opacity="1"></path><path clip-path="url(#clip760)" d="M1607.7 1517.37 Q1604.09 1517.37 1602.26 1520.93 Q1600.46 1524.47 1600.46 1531.6 Q1600.46 1538.71 1602.26 1542.27 Q1604.09 1545.82 1607.7 1545.82 Q1611.34 1545.82 1613.14 1542.27 Q1614.97 1538.71 1614.97 1531.6 Q1614.97 1524.47 1613.14 1520.93 Q1611.34 1517.37 1607.7 1517.37 M1607.7 1513.66 Q1613.51 1513.66 1616.57 1518.27 Q1619.65 1522.85 1619.65 1531.6 Q1619.65 1540.33 1616.57 1544.94 Q1613.51 1549.52 1607.7 1549.52 Q1601.89 1549.52 1598.82 1544.94 Q1595.76 1540.33 1595.76 1531.6 Q1595.76 1522.85 1598.82 1518.27 Q1601.89 1513.66 1607.7 1513.66 Z" fill="#000000" fill-rule="evenodd" fill-opacity="1"></path><path clip-path="url(#clip760)" d="M1637.87 1517.37 Q1634.26 1517.37 1632.43 1520.93 Q1630.62 1524.47 1630.62 1531.6 Q1630.62 1538.71 1632.43 1542.27 Q1634.26 1545.82 1637.87 1545.82 Q1641.5 1545.82 1643.31 1542.27 Q1645.13 1538.71 1645.13 1531.6 Q1645.13 1524.47 1643.31 1520.93 Q1641.5 1517.37 1637.87 1517.37 M1637.87 1513.66 Q1643.68 1513.66 1646.73 1518.27 Q1649.81 1522.85 1649.81 1531.6 Q1649.81 1540.33 1646.73 1544.94 Q1643.68 1549.52 1637.87 1549.52 Q1632.06 1549.52 1628.98 1544.94 Q1625.92 1540.33 1625.92 1531.6 Q1625.92 1522.85 1628.98 1518.27 Q1632.06 1513.66 1637.87 1513.66 Z" fill="#000000" fill-rule="evenodd" fill-opacity="1"></path><path clip-path="url(#clip760)" d="M2265.2 1530.21 Q2268.56 1530.93 2270.43 1533.2 Q2272.33 1535.47 2272.33 1538.8 Q2272.33 1543.92 2268.81 1546.72 Q2265.29 1549.52 2258.81 1549.52 Q2256.64 1549.52 2254.32 1549.08 Q2252.03 1548.66 2249.58 1547.81 L2249.58 1543.29 Q2251.52 1544.43 2253.84 1545.01 Q2256.15 1545.58 2258.67 1545.58 Q2263.07 1545.58 2265.36 1543.85 Q2267.68 1542.11 2267.68 1538.8 Q2267.68 1535.75 2265.53 1534.03 Q2263.4 1532.3 2259.58 1532.3 L2255.55 1532.3 L2255.55 1528.45 L2259.76 1528.45 Q2263.21 1528.45 2265.04 1527.09 Q2266.87 1525.7 2266.87 1523.11 Q2266.87 1520.45 2264.97 1519.03 Q2263.1 1517.6 2259.58 1517.6 Q2257.66 1517.6 2255.46 1518.01 Q2253.26 1518.43 2250.62 1519.31 L2250.62 1515.14 Q2253.28 1514.4 2255.6 1514.03 Q2257.93 1513.66 2259.99 1513.66 Q2265.32 1513.66 2268.42 1516.09 Q2271.52 1518.5 2271.52 1522.62 Q2271.52 1525.49 2269.88 1527.48 Q2268.23 1529.45 2265.2 1530.21 Z" fill="#000000" fill-rule="evenodd" fill-opacity="1"></path><path clip-path="url(#clip760)" d="M2291.2 1517.37 Q2287.59 1517.37 2285.76 1520.93 Q2283.95 1524.47 2283.95 1531.6 Q2283.95 1538.71 2285.76 1542.27 Q2287.59 1545.82 2291.2 1545.82 Q2294.83 1545.82 2296.64 1542.27 Q2298.47 1538.71 2298.47 1531.6 Q2298.47 1524.47 2296.64 1520.93 Q2294.83 1517.37 2291.2 1517.37 M2291.2 1513.66 Q2297.01 1513.66 2300.06 1518.27 Q2303.14 1522.85 2303.14 1531.6 Q2303.14 1540.33 2300.06 1544.94 Q2297.01 1549.52 2291.2 1549.52 Q2285.39 1549.52 2282.31 1544.94 Q2279.25 1540.33 2279.25 1531.6 Q2279.25 1522.85 2282.31 1518.27 Q2285.39 1513.66 2291.2 1513.66 Z" fill="#000000" fill-rule="evenodd" fill-opacity="1"></path><path clip-path="url(#clip760)" d="M2321.36 1517.37 Q2317.75 1517.37 2315.92 1520.93 Q2314.11 1524.47 2314.11 1531.6 Q2314.11 1538.71 2315.92 1542.27 Q2317.75 1545.82 2321.36 1545.82 Q2324.99 1545.82 2326.8 1542.27 Q2328.63 1538.71 2328.63 1531.6 Q2328.63 1524.47 2326.8 1520.93 Q2324.99 1517.37 2321.36 1517.37 M2321.36 1513.66 Q2327.17 1513.66 2330.22 1518.27 Q2333.3 1522.85 2333.3 1531.6 Q2333.3 1540.33 2330.22 1544.94 Q2327.17 1549.52 2321.36 1549.52 Q2315.55 1549.52 2312.47 1544.94 Q2309.41 1540.33 2309.41 1531.6 Q2309.41 1522.85 2312.47 1518.27 Q2315.55 1513.66 2321.36 1513.66 Z" fill="#000000" fill-rule="evenodd" fill-opacity="1"></path><polyline clip-path="url(#clip762)" style="stroke:#000000; stroke-linecap:butt; stroke-linejoin:round; stroke-width:2; stroke-opacity:0.1; fill:none" points="
  186.274,1450.42 2352.76,1450.42 
  "></polyline>
<polyline clip-path="url(#clip762)" style="stroke:#000000; stroke-linecap:butt; stroke-linejoin:round; stroke-width:2; stroke-opacity:0.1; fill:none" points="
  186.274,1146.56 2352.76,1146.56 
  "></polyline>
<polyline clip-path="url(#clip762)" style="stroke:#000000; stroke-linecap:butt; stroke-linejoin:round; stroke-width:2; stroke-opacity:0.1; fill:none" points="
  186.274,842.696 2352.76,842.696 
  "></polyline>
<polyline clip-path="url(#clip762)" style="stroke:#000000; stroke-linecap:butt; stroke-linejoin:round; stroke-width:2; stroke-opacity:0.1; fill:none" points="
  186.274,538.835 2352.76,538.835 
  "></polyline>
<polyline clip-path="url(#clip762)" style="stroke:#000000; stroke-linecap:butt; stroke-linejoin:round; stroke-width:2; stroke-opacity:0.1; fill:none" points="
  186.274,234.974 2352.76,234.974 
  "></polyline>
<polyline clip-path="url(#clip760)" style="stroke:#000000; stroke-linecap:butt; stroke-linejoin:round; stroke-width:4; stroke-opacity:1; fill:none" points="
  186.274,1486.45 186.274,123.472 
  "></polyline>
<polyline clip-path="url(#clip760)" style="stroke:#000000; stroke-linecap:butt; stroke-linejoin:round; stroke-width:4; stroke-opacity:1; fill:none" points="
  186.274,1450.42 205.172,1450.42 
  "></polyline>
<polyline clip-path="url(#clip760)" style="stroke:#000000; stroke-linecap:butt; stroke-linejoin:round; stroke-width:4; stroke-opacity:1; fill:none" points="
  186.274,1146.56 205.172,1146.56 
  "></polyline>
<polyline clip-path="url(#clip760)" style="stroke:#000000; stroke-linecap:butt; stroke-linejoin:round; stroke-width:4; stroke-opacity:1; fill:none" points="
  186.274,842.696 205.172,842.696 
  "></polyline>
<polyline clip-path="url(#clip760)" style="stroke:#000000; stroke-linecap:butt; stroke-linejoin:round; stroke-width:4; stroke-opacity:1; fill:none" points="
  186.274,538.835 205.172,538.835 
  "></polyline>
<polyline clip-path="url(#clip760)" style="stroke:#000000; stroke-linecap:butt; stroke-linejoin:round; stroke-width:4; stroke-opacity:1; fill:none" points="
  186.274,234.974 205.172,234.974 
  "></polyline>
<path clip-path="url(#clip760)" d="M62.9365 1436.22 Q59.3254 1436.22 57.4967 1439.78 Q55.6912 1443.32 55.6912 1450.45 Q55.6912 1457.56 57.4967 1461.12 Q59.3254 1464.67 62.9365 1464.67 Q66.5707 1464.67 68.3763 1461.12 Q70.205 1457.56 70.205 1450.45 Q70.205 1443.32 68.3763 1439.78 Q66.5707 1436.22 62.9365 1436.22 M62.9365 1432.51 Q68.7467 1432.51 71.8022 1437.12 Q74.8809 1441.7 74.8809 1450.45 Q74.8809 1459.18 71.8022 1463.79 Q68.7467 1468.37 62.9365 1468.37 Q57.1264 1468.37 54.0477 1463.79 Q50.9921 1459.18 50.9921 1450.45 Q50.9921 1441.7 54.0477 1437.12 Q57.1264 1432.51 62.9365 1432.51 Z" fill="#000000" fill-rule="evenodd" fill-opacity="1"></path><path clip-path="url(#clip760)" d="M83.0984 1461.82 L87.9827 1461.82 L87.9827 1467.7 L83.0984 1467.7 L83.0984 1461.82 Z" fill="#000000" fill-rule="evenodd" fill-opacity="1"></path><path clip-path="url(#clip760)" d="M108.168 1436.22 Q104.557 1436.22 102.728 1439.78 Q100.922 1443.32 100.922 1450.45 Q100.922 1457.56 102.728 1461.12 Q104.557 1464.67 108.168 1464.67 Q111.802 1464.67 113.608 1461.12 Q115.436 1457.56 115.436 1450.45 Q115.436 1443.32 113.608 1439.78 Q111.802 1436.22 108.168 1436.22 M108.168 1432.51 Q113.978 1432.51 117.033 1437.12 Q120.112 1441.7 120.112 1450.45 Q120.112 1459.18 117.033 1463.79 Q113.978 1468.37 108.168 1468.37 Q102.358 1468.37 99.2789 1463.79 Q96.2234 1459.18 96.2234 1450.45 Q96.2234 1441.7 99.2789 1437.12 Q102.358 1432.51 108.168 1432.51 Z" fill="#000000" fill-rule="evenodd" fill-opacity="1"></path><path clip-path="url(#clip760)" d="M138.33 1436.22 Q134.719 1436.22 132.89 1439.78 Q131.084 1443.32 131.084 1450.45 Q131.084 1457.56 132.89 1461.12 Q134.719 1464.67 138.33 1464.67 Q141.964 1464.67 143.769 1461.12 Q145.598 1457.56 145.598 1450.45 Q145.598 1443.32 143.769 1439.78 Q141.964 1436.22 138.33 1436.22 M138.33 1432.51 Q144.14 1432.51 147.195 1437.12 Q150.274 1441.7 150.274 1450.45 Q150.274 1459.18 147.195 1463.79 Q144.14 1468.37 138.33 1468.37 Q132.519 1468.37 129.441 1463.79 Q126.385 1459.18 126.385 1450.45 Q126.385 1441.7 129.441 1437.12 Q132.519 1432.51 138.33 1432.51 Z" fill="#000000" fill-rule="evenodd" fill-opacity="1"></path><path clip-path="url(#clip760)" d="M63.9319 1132.36 Q60.3208 1132.36 58.4921 1135.92 Q56.6865 1139.46 56.6865 1146.59 Q56.6865 1153.7 58.4921 1157.26 Q60.3208 1160.8 63.9319 1160.8 Q67.5661 1160.8 69.3717 1157.26 Q71.2004 1153.7 71.2004 1146.59 Q71.2004 1139.46 69.3717 1135.92 Q67.5661 1132.36 63.9319 1132.36 M63.9319 1128.65 Q69.742 1128.65 72.7976 1133.26 Q75.8763 1137.84 75.8763 1146.59 Q75.8763 1155.32 72.7976 1159.92 Q69.742 1164.51 63.9319 1164.51 Q58.1217 1164.51 55.043 1159.92 Q51.9875 1155.32 51.9875 1146.59 Q51.9875 1137.84 55.043 1133.26 Q58.1217 1128.65 63.9319 1128.65 Z" fill="#000000" fill-rule="evenodd" fill-opacity="1"></path><path clip-path="url(#clip760)" d="M84.0938 1157.96 L88.978 1157.96 L88.978 1163.84 L84.0938 1163.84 L84.0938 1157.96 Z" fill="#000000" fill-rule="evenodd" fill-opacity="1"></path><path clip-path="url(#clip760)" d="M103.191 1159.9 L119.51 1159.9 L119.51 1163.84 L97.566 1163.84 L97.566 1159.9 Q100.228 1157.15 104.811 1152.52 Q109.418 1147.86 110.598 1146.52 Q112.844 1144 113.723 1142.26 Q114.626 1140.5 114.626 1138.81 Q114.626 1136.06 112.682 1134.32 Q110.76 1132.59 107.658 1132.59 Q105.459 1132.59 103.006 1133.35 Q100.575 1134.11 97.7974 1135.67 L97.7974 1130.94 Q100.621 1129.81 103.075 1129.23 Q105.529 1128.65 107.566 1128.65 Q112.936 1128.65 116.131 1131.34 Q119.325 1134.02 119.325 1138.51 Q119.325 1140.64 118.515 1142.56 Q117.728 1144.46 115.621 1147.05 Q115.043 1147.73 111.941 1150.94 Q108.839 1154.14 103.191 1159.9 Z" fill="#000000" fill-rule="evenodd" fill-opacity="1"></path><path clip-path="url(#clip760)" d="M129.371 1129.28 L147.728 1129.28 L147.728 1133.21 L133.654 1133.21 L133.654 1141.68 Q134.672 1141.34 135.691 1141.17 Q136.709 1140.99 137.728 1140.99 Q143.515 1140.99 146.894 1144.16 Q150.274 1147.33 150.274 1152.75 Q150.274 1158.33 146.802 1161.43 Q143.33 1164.51 137.01 1164.51 Q134.834 1164.51 132.566 1164.14 Q130.32 1163.77 127.913 1163.03 L127.913 1158.33 Q129.996 1159.46 132.219 1160.02 Q134.441 1160.57 136.918 1160.57 Q140.922 1160.57 143.26 1158.47 Q145.598 1156.36 145.598 1152.75 Q145.598 1149.14 143.26 1147.03 Q140.922 1144.92 136.918 1144.92 Q135.043 1144.92 133.168 1145.34 Q131.316 1145.76 129.371 1146.64 L129.371 1129.28 Z" fill="#000000" fill-rule="evenodd" fill-opacity="1"></path><path clip-path="url(#clip760)" d="M62.9365 828.494 Q59.3254 828.494 57.4967 832.059 Q55.6912 835.601 55.6912 842.73 Q55.6912 849.837 57.4967 853.402 Q59.3254 856.943 62.9365 856.943 Q66.5707 856.943 68.3763 853.402 Q70.205 849.837 70.205 842.73 Q70.205 835.601 68.3763 832.059 Q66.5707 828.494 62.9365 828.494 M62.9365 824.791 Q68.7467 824.791 71.8022 829.397 Q74.8809 833.981 74.8809 842.73 Q74.8809 851.457 71.8022 856.064 Q68.7467 860.647 62.9365 860.647 Q57.1264 860.647 54.0477 856.064 Q50.9921 851.457 50.9921 842.73 Q50.9921 833.981 54.0477 829.397 Q57.1264 824.791 62.9365 824.791 Z" fill="#000000" fill-rule="evenodd" fill-opacity="1"></path><path clip-path="url(#clip760)" d="M83.0984 854.096 L87.9827 854.096 L87.9827 859.976 L83.0984 859.976 L83.0984 854.096 Z" fill="#000000" fill-rule="evenodd" fill-opacity="1"></path><path clip-path="url(#clip760)" d="M98.2141 825.416 L116.57 825.416 L116.57 829.351 L102.496 829.351 L102.496 837.823 Q103.515 837.476 104.534 837.314 Q105.552 837.129 106.571 837.129 Q112.358 837.129 115.737 840.3 Q119.117 843.471 119.117 848.888 Q119.117 854.467 115.645 857.568 Q112.172 860.647 105.853 860.647 Q103.677 860.647 101.409 860.277 Q99.1632 859.906 96.7558 859.166 L96.7558 854.467 Q98.8391 855.601 101.061 856.156 Q103.284 856.712 105.76 856.712 Q109.765 856.712 112.103 854.605 Q114.441 852.499 114.441 848.888 Q114.441 845.277 112.103 843.17 Q109.765 841.064 105.76 841.064 Q103.885 841.064 102.01 841.48 Q100.159 841.897 98.2141 842.777 L98.2141 825.416 Z" fill="#000000" fill-rule="evenodd" fill-opacity="1"></path><path clip-path="url(#clip760)" d="M138.33 828.494 Q134.719 828.494 132.89 832.059 Q131.084 835.601 131.084 842.73 Q131.084 849.837 132.89 853.402 Q134.719 856.943 138.33 856.943 Q141.964 856.943 143.769 853.402 Q145.598 849.837 145.598 842.73 Q145.598 835.601 143.769 832.059 Q141.964 828.494 138.33 828.494 M138.33 824.791 Q144.14 824.791 147.195 829.397 Q150.274 833.981 150.274 842.73 Q150.274 851.457 147.195 856.064 Q144.14 860.647 138.33 860.647 Q132.519 860.647 129.441 856.064 Q126.385 851.457 126.385 842.73 Q126.385 833.981 129.441 829.397 Q132.519 824.791 138.33 824.791 Z" fill="#000000" fill-rule="evenodd" fill-opacity="1"></path><path clip-path="url(#clip760)" d="M63.9319 524.633 Q60.3208 524.633 58.4921 528.198 Q56.6865 531.74 56.6865 538.869 Q56.6865 545.976 58.4921 549.541 Q60.3208 553.082 63.9319 553.082 Q67.5661 553.082 69.3717 549.541 Q71.2004 545.976 71.2004 538.869 Q71.2004 531.74 69.3717 528.198 Q67.5661 524.633 63.9319 524.633 M63.9319 520.93 Q69.742 520.93 72.7976 525.536 Q75.8763 530.119 75.8763 538.869 Q75.8763 547.596 72.7976 552.203 Q69.742 556.786 63.9319 556.786 Q58.1217 556.786 55.043 552.203 Q51.9875 547.596 51.9875 538.869 Q51.9875 530.119 55.043 525.536 Q58.1217 520.93 63.9319 520.93 Z" fill="#000000" fill-rule="evenodd" fill-opacity="1"></path><path clip-path="url(#clip760)" d="M84.0938 550.235 L88.978 550.235 L88.978 556.115 L84.0938 556.115 L84.0938 550.235 Z" fill="#000000" fill-rule="evenodd" fill-opacity="1"></path><path clip-path="url(#clip760)" d="M97.9826 521.555 L120.205 521.555 L120.205 523.545 L107.658 556.115 L102.774 556.115 L114.58 525.49 L97.9826 525.49 L97.9826 521.555 Z" fill="#000000" fill-rule="evenodd" fill-opacity="1"></path><path clip-path="url(#clip760)" d="M129.371 521.555 L147.728 521.555 L147.728 525.49 L133.654 525.49 L133.654 533.962 Q134.672 533.615 135.691 533.453 Q136.709 533.268 137.728 533.268 Q143.515 533.268 146.894 536.439 Q150.274 539.61 150.274 545.027 Q150.274 550.605 146.802 553.707 Q143.33 556.786 137.01 556.786 Q134.834 556.786 132.566 556.416 Q130.32 556.045 127.913 555.304 L127.913 550.605 Q129.996 551.74 132.219 552.295 Q134.441 552.851 136.918 552.851 Q140.922 552.851 143.26 550.744 Q145.598 548.638 145.598 545.027 Q145.598 541.416 143.26 539.309 Q140.922 537.203 136.918 537.203 Q135.043 537.203 133.168 537.619 Q131.316 538.036 129.371 538.916 L129.371 521.555 Z" fill="#000000" fill-rule="evenodd" fill-opacity="1"></path><path clip-path="url(#clip760)" d="M53.7467 248.318 L61.3856 248.318 L61.3856 221.953 L53.0754 223.619 L53.0754 219.36 L61.3393 217.694 L66.0152 217.694 L66.0152 248.318 L73.654 248.318 L73.654 252.254 L53.7467 252.254 L53.7467 248.318 Z" fill="#000000" fill-rule="evenodd" fill-opacity="1"></path><path clip-path="url(#clip760)" d="M83.0984 246.374 L87.9827 246.374 L87.9827 252.254 L83.0984 252.254 L83.0984 246.374 Z" fill="#000000" fill-rule="evenodd" fill-opacity="1"></path><path clip-path="url(#clip760)" d="M108.168 220.772 Q104.557 220.772 102.728 224.337 Q100.922 227.879 100.922 235.008 Q100.922 242.115 102.728 245.68 Q104.557 249.221 108.168 249.221 Q111.802 249.221 113.608 245.68 Q115.436 242.115 115.436 235.008 Q115.436 227.879 113.608 224.337 Q111.802 220.772 108.168 220.772 M108.168 217.069 Q113.978 217.069 117.033 221.675 Q120.112 226.258 120.112 235.008 Q120.112 243.735 117.033 248.342 Q113.978 252.925 108.168 252.925 Q102.358 252.925 99.2789 248.342 Q96.2234 243.735 96.2234 235.008 Q96.2234 226.258 99.2789 221.675 Q102.358 217.069 108.168 217.069 Z" fill="#000000" fill-rule="evenodd" fill-opacity="1"></path><path clip-path="url(#clip760)" d="M138.33 220.772 Q134.719 220.772 132.89 224.337 Q131.084 227.879 131.084 235.008 Q131.084 242.115 132.89 245.68 Q134.719 249.221 138.33 249.221 Q141.964 249.221 143.769 245.68 Q145.598 242.115 145.598 235.008 Q145.598 227.879 143.769 224.337 Q141.964 220.772 138.33 220.772 M138.33 217.069 Q144.14 217.069 147.195 221.675 Q150.274 226.258 150.274 235.008 Q150.274 243.735 147.195 248.342 Q144.14 252.925 138.33 252.925 Q132.519 252.925 129.441 248.342 Q126.385 243.735 126.385 235.008 Q126.385 226.258 129.441 221.675 Q132.519 217.069 138.33 217.069 Z" fill="#000000" fill-rule="evenodd" fill-opacity="1"></path><path clip-path="url(#clip760)" d="M502.314 16.7545 L502.314 25.383 Q498.182 21.5346 493.483 19.6307 Q488.825 17.7268 483.559 17.7268 Q473.188 17.7268 467.679 24.0867 Q462.17 30.4061 462.17 42.3968 Q462.17 54.3469 467.679 60.7069 Q473.188 67.0263 483.559 67.0263 Q488.825 67.0263 493.483 65.1223 Q498.182 63.2184 502.314 59.3701 L502.314 67.9175 Q498.02 70.8341 493.2 72.2924 Q488.42 73.7508 483.072 73.7508 Q469.34 73.7508 461.441 65.3654 Q453.541 56.9395 453.541 42.3968 Q453.541 27.8135 461.441 19.4281 Q469.34 11.0023 483.072 11.0023 Q488.501 11.0023 493.281 12.4606 Q498.101 13.8784 502.314 16.7545 Z" fill="#000000" fill-rule="evenodd" fill-opacity="1"></path><path clip-path="url(#clip760)" d="M532.21 32.4315 Q526.215 32.4315 522.731 37.1306 Q519.247 41.7891 519.247 49.9314 Q519.247 58.0738 522.69 62.7728 Q526.174 67.4314 532.21 67.4314 Q538.165 67.4314 541.648 62.7323 Q545.132 58.0333 545.132 49.9314 Q545.132 41.8701 541.648 37.1711 Q538.165 32.4315 532.21 32.4315 M532.21 26.1121 Q541.932 26.1121 547.482 32.4315 Q553.032 38.7509 553.032 49.9314 Q553.032 61.0714 547.482 67.4314 Q541.932 73.7508 532.21 73.7508 Q522.447 73.7508 516.897 67.4314 Q511.388 61.0714 511.388 49.9314 Q511.388 38.7509 516.897 32.4315 Q522.447 26.1121 532.21 26.1121 Z" fill="#000000" fill-rule="evenodd" fill-opacity="1"></path><path clip-path="url(#clip760)" d="M603.101 45.1919 L603.101 72.576 L595.647 72.576 L595.647 45.4349 Q595.647 38.994 593.135 35.7938 Q590.624 32.5936 585.601 32.5936 Q579.565 32.5936 576.081 36.4419 Q572.597 40.2903 572.597 46.9338 L572.597 72.576 L565.103 72.576 L565.103 27.2059 L572.597 27.2059 L572.597 34.2544 Q575.271 30.163 578.876 28.1376 Q582.522 26.1121 587.262 26.1121 Q595.08 26.1121 599.09 30.9732 Q603.101 35.7938 603.101 45.1919 Z" fill="#000000" fill-rule="evenodd" fill-opacity="1"></path><path clip-path="url(#clip760)" d="M612.62 27.2059 L620.52 27.2059 L634.698 65.2844 L648.876 27.2059 L656.775 27.2059 L639.761 72.576 L629.634 72.576 L612.62 27.2059 Z" fill="#000000" fill-rule="evenodd" fill-opacity="1"></path><path clip-path="url(#clip760)" d="M705.872 48.0275 L705.872 51.6733 L671.601 51.6733 Q672.088 59.3701 676.22 63.421 Q680.392 67.4314 687.805 67.4314 Q692.099 67.4314 696.109 66.3781 Q700.16 65.3249 704.13 63.2184 L704.13 70.267 Q700.12 71.9684 695.907 72.8596 Q691.694 73.7508 687.36 73.7508 Q676.503 73.7508 670.143 67.4314 Q663.824 61.1119 663.824 50.3365 Q663.824 39.1965 669.819 32.6746 Q675.855 26.1121 686.063 26.1121 Q695.218 26.1121 700.525 32.0264 Q705.872 37.9003 705.872 48.0275 M698.418 45.84 Q698.337 39.7232 694.975 36.0774 Q691.653 32.4315 686.144 32.4315 Q679.906 32.4315 676.139 35.9558 Q672.412 39.4801 671.845 45.8805 L698.418 45.84 Z" fill="#000000" fill-rule="evenodd" fill-opacity="1"></path><path clip-path="url(#clip760)" d="M744.396 34.1734 Q743.14 33.4443 741.642 33.1202 Q740.183 32.7556 738.401 32.7556 Q732.081 32.7556 728.679 36.8875 Q725.316 40.9789 725.316 48.6757 L725.316 72.576 L717.822 72.576 L717.822 27.2059 L725.316 27.2059 L725.316 34.2544 Q727.666 30.1225 731.433 28.1376 Q735.201 26.1121 740.588 26.1121 Q741.358 26.1121 742.29 26.2337 Q743.221 26.3147 744.356 26.5172 L744.396 34.1734 Z" fill="#000000" fill-rule="evenodd" fill-opacity="1"></path><path clip-path="url(#clip760)" d="M780.611 49.3643 Q780.611 41.2625 777.249 36.8065 Q773.927 32.3505 767.891 32.3505 Q761.896 32.3505 758.534 36.8065 Q755.212 41.2625 755.212 49.3643 Q755.212 57.4256 758.534 61.8816 Q761.896 66.3376 767.891 66.3376 Q773.927 66.3376 777.249 61.8816 Q780.611 57.4256 780.611 49.3643 M788.065 66.9452 Q788.065 78.5308 782.92 84.1616 Q777.776 89.8329 767.162 89.8329 Q763.233 89.8329 759.749 89.2252 Q756.265 88.6581 752.984 87.4428 L752.984 80.1917 Q756.265 81.9741 759.466 82.8248 Q762.666 83.6755 765.988 83.6755 Q773.32 83.6755 776.966 79.8271 Q780.611 76.0193 780.611 68.282 L780.611 64.5957 Q778.302 68.6061 774.697 70.5911 Q771.092 72.576 766.069 72.576 Q757.724 72.576 752.62 66.2161 Q747.515 59.8562 747.515 49.3643 Q747.515 38.832 752.62 32.472 Q757.724 26.1121 766.069 26.1121 Q771.092 26.1121 774.697 28.0971 Q778.302 30.082 780.611 34.0924 L780.611 27.2059 L788.065 27.2059 L788.065 66.9452 Z" fill="#000000" fill-rule="evenodd" fill-opacity="1"></path><path clip-path="url(#clip760)" d="M842.226 48.0275 L842.226 51.6733 L807.955 51.6733 Q808.441 59.3701 812.573 63.421 Q816.745 67.4314 824.159 67.4314 Q828.453 67.4314 832.463 66.3781 Q836.514 65.3249 840.484 63.2184 L840.484 70.267 Q836.473 71.9684 832.26 72.8596 Q828.047 73.7508 823.713 73.7508 Q812.857 73.7508 806.497 67.4314 Q800.177 61.1119 800.177 50.3365 Q800.177 39.1965 806.173 32.6746 Q812.208 26.1121 822.417 26.1121 Q831.572 26.1121 836.878 32.0264 Q842.226 37.9003 842.226 48.0275 M834.772 45.84 Q834.691 39.7232 831.329 36.0774 Q828.007 32.4315 822.498 32.4315 Q816.259 32.4315 812.492 35.9558 Q808.765 39.4801 808.198 45.8805 L834.772 45.84 Z" fill="#000000" fill-rule="evenodd" fill-opacity="1"></path><path clip-path="url(#clip760)" d="M892.173 45.1919 L892.173 72.576 L884.72 72.576 L884.72 45.4349 Q884.72 38.994 882.208 35.7938 Q879.696 32.5936 874.673 32.5936 Q868.637 32.5936 865.154 36.4419 Q861.67 40.2903 861.67 46.9338 L861.67 72.576 L854.176 72.576 L854.176 27.2059 L861.67 27.2059 L861.67 34.2544 Q864.344 30.163 867.949 28.1376 Q871.595 26.1121 876.334 26.1121 Q884.152 26.1121 888.163 30.9732 Q892.173 35.7938 892.173 45.1919 Z" fill="#000000" fill-rule="evenodd" fill-opacity="1"></path><path clip-path="url(#clip760)" d="M939.69 28.9478 L939.69 35.9153 Q936.531 34.1734 933.33 33.3227 Q930.171 32.4315 926.93 32.4315 Q919.679 32.4315 915.668 37.0496 Q911.658 41.6271 911.658 49.9314 Q911.658 58.2358 915.668 62.8538 Q919.679 67.4314 926.93 67.4314 Q930.171 67.4314 933.33 66.5807 Q936.531 65.6895 939.69 63.9476 L939.69 70.8341 Q936.571 72.2924 933.209 73.0216 Q929.887 73.7508 926.12 73.7508 Q915.871 73.7508 909.835 67.3098 Q903.799 60.8689 903.799 49.9314 Q903.799 38.832 909.876 32.472 Q915.993 26.1121 926.606 26.1121 Q930.049 26.1121 933.33 26.8413 Q936.612 27.5299 939.69 28.9478 Z" fill="#000000" fill-rule="evenodd" fill-opacity="1"></path><path clip-path="url(#clip760)" d="M991.461 48.0275 L991.461 51.6733 L957.19 51.6733 Q957.676 59.3701 961.808 63.421 Q965.981 67.4314 973.394 67.4314 Q977.688 67.4314 981.698 66.3781 Q985.749 65.3249 989.719 63.2184 L989.719 70.267 Q985.709 71.9684 981.496 72.8596 Q977.283 73.7508 972.948 73.7508 Q962.092 73.7508 955.732 67.4314 Q949.413 61.1119 949.413 50.3365 Q949.413 39.1965 955.408 32.6746 Q961.444 26.1121 971.652 26.1121 Q980.807 26.1121 986.114 32.0264 Q991.461 37.9003 991.461 48.0275 M984.007 45.84 Q983.926 39.7232 980.564 36.0774 Q977.242 32.4315 971.733 32.4315 Q965.495 32.4315 961.727 35.9558 Q958 39.4801 957.433 45.8805 L984.007 45.84 Z" fill="#000000" fill-rule="evenodd" fill-opacity="1"></path><path clip-path="url(#clip760)" d="M1050.69 49.7694 Q1041.65 49.7694 1038.17 51.8354 Q1034.68 53.9013 1034.68 58.8839 Q1034.68 62.8538 1037.28 65.2034 Q1039.91 67.5124 1044.41 67.5124 Q1050.6 67.5124 1054.33 63.1374 Q1058.1 58.7219 1058.1 51.4303 L1058.1 49.7694 L1050.69 49.7694 M1065.55 46.6907 L1065.55 72.576 L1058.1 72.576 L1058.1 65.6895 Q1055.55 69.8214 1051.74 71.8063 Q1047.93 73.7508 1042.42 73.7508 Q1035.45 73.7508 1031.32 69.8619 Q1027.23 65.9325 1027.23 59.3701 Q1027.23 51.7138 1032.33 47.825 Q1037.48 43.9361 1047.65 43.9361 L1058.1 43.9361 L1058.1 43.2069 Q1058.1 38.0623 1054.7 35.2672 Q1051.33 32.4315 1045.22 32.4315 Q1041.33 32.4315 1037.64 33.3632 Q1033.95 34.295 1030.55 36.1584 L1030.55 29.2718 Q1034.64 27.692 1038.49 26.9223 Q1042.34 26.1121 1045.99 26.1121 Q1055.83 26.1121 1060.69 31.2163 Q1065.55 36.3204 1065.55 46.6907 Z" fill="#000000" fill-rule="evenodd" fill-opacity="1"></path><path clip-path="url(#clip760)" d="M1118.62 45.1919 L1118.62 72.576 L1111.17 72.576 L1111.17 45.4349 Q1111.17 38.994 1108.65 35.7938 Q1106.14 32.5936 1101.12 32.5936 Q1095.08 32.5936 1091.6 36.4419 Q1088.12 40.2903 1088.12 46.9338 L1088.12 72.576 L1080.62 72.576 L1080.62 27.2059 L1088.12 27.2059 L1088.12 34.2544 Q1090.79 30.163 1094.39 28.1376 Q1098.04 26.1121 1102.78 26.1121 Q1110.6 26.1121 1114.61 30.9732 Q1118.62 35.7938 1118.62 45.1919 Z" fill="#000000" fill-rule="evenodd" fill-opacity="1"></path><path clip-path="url(#clip760)" d="M1154.1 49.7694 Q1145.07 49.7694 1141.59 51.8354 Q1138.1 53.9013 1138.1 58.8839 Q1138.1 62.8538 1140.7 65.2034 Q1143.33 67.5124 1147.83 67.5124 Q1154.02 67.5124 1157.75 63.1374 Q1161.52 58.7219 1161.52 51.4303 L1161.52 49.7694 L1154.1 49.7694 M1168.97 46.6907 L1168.97 72.576 L1161.52 72.576 L1161.52 65.6895 Q1158.97 69.8214 1155.16 71.8063 Q1151.35 73.7508 1145.84 73.7508 Q1138.87 73.7508 1134.74 69.8619 Q1130.65 65.9325 1130.65 59.3701 Q1130.65 51.7138 1135.75 47.825 Q1140.9 43.9361 1151.07 43.9361 L1161.52 43.9361 L1161.52 43.2069 Q1161.52 38.0623 1158.12 35.2672 Q1154.75 32.4315 1148.64 32.4315 Q1144.75 32.4315 1141.06 33.3632 Q1137.37 34.295 1133.97 36.1584 L1133.97 29.2718 Q1138.06 27.692 1141.91 26.9223 Q1145.76 26.1121 1149.41 26.1121 Q1159.25 26.1121 1164.11 31.2163 Q1168.97 36.3204 1168.97 46.6907 Z" fill="#000000" fill-rule="evenodd" fill-opacity="1"></path><path clip-path="url(#clip760)" d="M1184.32 9.54393 L1191.78 9.54393 L1191.78 72.576 L1184.32 72.576 L1184.32 9.54393 Z" fill="#000000" fill-rule="evenodd" fill-opacity="1"></path><path clip-path="url(#clip760)" d="M1226.25 76.7889 Q1223.09 84.8907 1220.09 87.3618 Q1217.1 89.8329 1212.07 89.8329 L1206.12 89.8329 L1206.12 83.5945 L1210.49 83.5945 Q1213.57 83.5945 1215.27 82.1361 Q1216.97 80.6778 1219.04 75.2496 L1220.38 71.8468 L1202.03 27.2059 L1209.93 27.2059 L1224.1 62.6918 L1238.28 27.2059 L1246.18 27.2059 L1226.25 76.7889 Z" fill="#000000" fill-rule="evenodd" fill-opacity="1"></path><path clip-path="url(#clip760)" d="M1285.39 28.5427 L1285.39 35.5912 Q1282.23 33.9709 1278.83 33.1607 Q1275.43 32.3505 1271.78 32.3505 Q1266.23 32.3505 1263.44 34.0519 Q1260.68 35.7533 1260.68 39.156 Q1260.68 41.7486 1262.67 43.2475 Q1264.65 44.7058 1270.65 46.0426 L1273.2 46.6097 Q1281.14 48.3111 1284.46 51.4303 Q1287.83 54.509 1287.83 60.0587 Q1287.83 66.3781 1282.8 70.0644 Q1277.82 73.7508 1269.07 73.7508 Q1265.42 73.7508 1261.45 73.0216 Q1257.52 72.3329 1253.15 70.9151 L1253.15 63.2184 Q1257.28 65.3654 1261.29 66.4591 Q1265.3 67.5124 1269.23 67.5124 Q1274.5 67.5124 1277.33 65.73 Q1280.17 63.9071 1280.17 60.6258 Q1280.17 57.5877 1278.1 55.9673 Q1276.08 54.3469 1269.15 52.8481 L1266.56 52.2405 Q1259.63 50.7821 1256.55 47.7845 Q1253.47 44.7463 1253.47 39.4801 Q1253.47 33.0797 1258.01 29.5959 Q1262.55 26.1121 1270.89 26.1121 Q1275.02 26.1121 1278.67 26.7198 Q1282.32 27.3274 1285.39 28.5427 Z" fill="#000000" fill-rule="evenodd" fill-opacity="1"></path><path clip-path="url(#clip760)" d="M1299.69 27.2059 L1307.15 27.2059 L1307.15 72.576 L1299.69 72.576 L1299.69 27.2059 M1299.69 9.54393 L1307.15 9.54393 L1307.15 18.9825 L1299.69 18.9825 L1299.69 9.54393 Z" fill="#000000" fill-rule="evenodd" fill-opacity="1"></path><path clip-path="url(#clip760)" d="M1351.67 28.5427 L1351.67 35.5912 Q1348.51 33.9709 1345.1 33.1607 Q1341.7 32.3505 1338.06 32.3505 Q1332.51 32.3505 1329.71 34.0519 Q1326.96 35.7533 1326.96 39.156 Q1326.96 41.7486 1328.94 43.2475 Q1330.93 44.7058 1336.92 46.0426 L1339.47 46.6097 Q1347.41 48.3111 1350.74 51.4303 Q1354.1 54.509 1354.1 60.0587 Q1354.1 66.3781 1349.07 70.0644 Q1344.09 73.7508 1335.34 73.7508 Q1331.7 73.7508 1327.73 73.0216 Q1323.8 72.3329 1319.42 70.9151 L1319.42 63.2184 Q1323.55 65.3654 1327.56 66.4591 Q1331.57 67.5124 1335.5 67.5124 Q1340.77 67.5124 1343.61 65.73 Q1346.44 63.9071 1346.44 60.6258 Q1346.44 57.5877 1344.38 55.9673 Q1342.35 54.3469 1335.42 52.8481 L1332.83 52.2405 Q1325.9 50.7821 1322.82 47.7845 Q1319.75 44.7463 1319.75 39.4801 Q1319.75 33.0797 1324.28 29.5959 Q1328.82 26.1121 1337.17 26.1121 Q1341.3 26.1121 1344.94 26.7198 Q1348.59 27.3274 1351.67 28.5427 Z" fill="#000000" fill-rule="evenodd" fill-opacity="1"></path><path clip-path="url(#clip760)" d="M1415.31 9.54393 L1415.31 15.7418 L1408.18 15.7418 Q1404.17 15.7418 1402.59 17.3622 Q1401.05 18.9825 1401.05 23.1955 L1401.05 27.2059 L1413.32 27.2059 L1413.32 32.9987 L1401.05 32.9987 L1401.05 72.576 L1393.55 72.576 L1393.55 32.9987 L1386.42 32.9987 L1386.42 27.2059 L1393.55 27.2059 L1393.55 24.0462 Q1393.55 16.471 1397.08 13.0277 Q1400.6 9.54393 1408.26 9.54393 L1415.31 9.54393 Z" fill="#000000" fill-rule="evenodd" fill-opacity="1"></path><path clip-path="url(#clip760)" d="M1439.13 32.4315 Q1433.13 32.4315 1429.65 37.1306 Q1426.16 41.7891 1426.16 49.9314 Q1426.16 58.0738 1429.61 62.7728 Q1433.09 67.4314 1439.13 67.4314 Q1445.08 67.4314 1448.56 62.7323 Q1452.05 58.0333 1452.05 49.9314 Q1452.05 41.8701 1448.56 37.1711 Q1445.08 32.4315 1439.13 32.4315 M1439.13 26.1121 Q1448.85 26.1121 1454.4 32.4315 Q1459.95 38.7509 1459.95 49.9314 Q1459.95 61.0714 1454.4 67.4314 Q1448.85 73.7508 1439.13 73.7508 Q1429.36 73.7508 1423.81 67.4314 Q1418.3 61.0714 1418.3 49.9314 Q1418.3 38.7509 1423.81 32.4315 Q1429.36 26.1121 1439.13 26.1121 Z" fill="#000000" fill-rule="evenodd" fill-opacity="1"></path><path clip-path="url(#clip760)" d="M1498.59 34.1734 Q1497.34 33.4443 1495.84 33.1202 Q1494.38 32.7556 1492.6 32.7556 Q1486.28 32.7556 1482.88 36.8875 Q1479.51 40.9789 1479.51 48.6757 L1479.51 72.576 L1472.02 72.576 L1472.02 27.2059 L1479.51 27.2059 L1479.51 34.2544 Q1481.86 30.1225 1485.63 28.1376 Q1489.4 26.1121 1494.79 26.1121 Q1495.56 26.1121 1496.49 26.2337 Q1497.42 26.3147 1498.55 26.5172 L1498.59 34.1734 Z" fill="#000000" fill-rule="evenodd" fill-opacity="1"></path><path clip-path="url(#clip760)" d="M1553.32 20.1573 L1542.22 50.2555 L1564.46 50.2555 L1553.32 20.1573 M1548.7 12.096 L1557.98 12.096 L1581.03 72.576 L1572.52 72.576 L1567.01 57.061 L1539.75 57.061 L1534.24 72.576 L1525.61 72.576 L1548.7 12.096 Z" fill="#000000" fill-rule="evenodd" fill-opacity="1"></path><path clip-path="url(#clip760)" d="M1624.86 35.9153 Q1627.66 30.8922 1631.54 28.5022 Q1635.43 26.1121 1640.7 26.1121 Q1647.79 26.1121 1651.64 31.0947 Q1655.49 36.0368 1655.49 45.1919 L1655.49 72.576 L1647.99 72.576 L1647.99 45.4349 Q1647.99 38.913 1645.68 35.7533 Q1643.37 32.5936 1638.63 32.5936 Q1632.84 32.5936 1629.48 36.4419 Q1626.12 40.2903 1626.12 46.9338 L1626.12 72.576 L1618.62 72.576 L1618.62 45.4349 Q1618.62 38.8725 1616.31 35.7533 Q1614 32.5936 1609.18 32.5936 Q1603.47 32.5936 1600.11 36.4824 Q1596.75 40.3308 1596.75 46.9338 L1596.75 72.576 L1589.25 72.576 L1589.25 27.2059 L1596.75 27.2059 L1596.75 34.2544 Q1599.3 30.082 1602.86 28.0971 Q1606.43 26.1121 1611.33 26.1121 Q1616.27 26.1121 1619.72 28.6237 Q1623.2 31.1352 1624.86 35.9153 Z" fill="#000000" fill-rule="evenodd" fill-opacity="1"></path><path clip-path="url(#clip760)" d="M1709.16 48.0275 L1709.16 51.6733 L1674.89 51.6733 Q1675.38 59.3701 1679.51 63.421 Q1683.68 67.4314 1691.09 67.4314 Q1695.39 67.4314 1699.4 66.3781 Q1703.45 65.3249 1707.42 63.2184 L1707.42 70.267 Q1703.41 71.9684 1699.19 72.8596 Q1694.98 73.7508 1690.65 73.7508 Q1679.79 73.7508 1673.43 67.4314 Q1667.11 61.1119 1667.11 50.3365 Q1667.11 39.1965 1673.11 32.6746 Q1679.14 26.1121 1689.35 26.1121 Q1698.51 26.1121 1703.81 32.0264 Q1709.16 37.9003 1709.16 48.0275 M1701.71 45.84 Q1701.62 39.7232 1698.26 36.0774 Q1694.94 32.4315 1689.43 32.4315 Q1683.19 32.4315 1679.43 35.9558 Q1675.7 39.4801 1675.13 45.8805 L1701.71 45.84 Z" fill="#000000" fill-rule="evenodd" fill-opacity="1"></path><path clip-path="url(#clip760)" d="M1747.68 34.1734 Q1746.43 33.4443 1744.93 33.1202 Q1743.47 32.7556 1741.69 32.7556 Q1735.37 32.7556 1731.97 36.8875 Q1728.6 40.9789 1728.6 48.6757 L1728.6 72.576 L1721.11 72.576 L1721.11 27.2059 L1728.6 27.2059 L1728.6 34.2544 Q1730.95 30.1225 1734.72 28.1376 Q1738.49 26.1121 1743.88 26.1121 Q1744.65 26.1121 1745.58 26.2337 Q1746.51 26.3147 1747.64 26.5172 L1747.68 34.1734 Z" fill="#000000" fill-rule="evenodd" fill-opacity="1"></path><path clip-path="url(#clip760)" d="M1755.5 27.2059 L1762.96 27.2059 L1762.96 72.576 L1755.5 72.576 L1755.5 27.2059 M1755.5 9.54393 L1762.96 9.54393 L1762.96 18.9825 L1755.5 18.9825 L1755.5 9.54393 Z" fill="#000000" fill-rule="evenodd" fill-opacity="1"></path><path clip-path="url(#clip760)" d="M1811.2 28.9478 L1811.2 35.9153 Q1808.04 34.1734 1804.84 33.3227 Q1801.68 32.4315 1798.44 32.4315 Q1791.19 32.4315 1787.18 37.0496 Q1783.17 41.6271 1783.17 49.9314 Q1783.17 58.2358 1787.18 62.8538 Q1791.19 67.4314 1798.44 67.4314 Q1801.68 67.4314 1804.84 66.5807 Q1808.04 65.6895 1811.2 63.9476 L1811.2 70.8341 Q1808.08 72.2924 1804.72 73.0216 Q1801.4 73.7508 1797.63 73.7508 Q1787.38 73.7508 1781.35 67.3098 Q1775.31 60.8689 1775.31 49.9314 Q1775.31 38.832 1781.39 32.472 Q1787.5 26.1121 1798.12 26.1121 Q1801.56 26.1121 1804.84 26.8413 Q1808.12 27.5299 1811.2 28.9478 Z" fill="#000000" fill-rule="evenodd" fill-opacity="1"></path><path clip-path="url(#clip760)" d="M1844.78 49.7694 Q1835.75 49.7694 1832.27 51.8354 Q1828.78 53.9013 1828.78 58.8839 Q1828.78 62.8538 1831.38 65.2034 Q1834.01 67.5124 1838.5 67.5124 Q1844.7 67.5124 1848.43 63.1374 Q1852.2 58.7219 1852.2 51.4303 L1852.2 49.7694 L1844.78 49.7694 M1859.65 46.6907 L1859.65 72.576 L1852.2 72.576 L1852.2 65.6895 Q1849.64 69.8214 1845.84 71.8063 Q1842.03 73.7508 1836.52 73.7508 Q1829.55 73.7508 1825.42 69.8619 Q1821.33 65.9325 1821.33 59.3701 Q1821.33 51.7138 1826.43 47.825 Q1831.58 43.9361 1841.75 43.9361 L1852.2 43.9361 L1852.2 43.2069 Q1852.2 38.0623 1848.79 35.2672 Q1845.43 32.4315 1839.32 32.4315 Q1835.43 32.4315 1831.74 33.3632 Q1828.05 34.295 1824.65 36.1584 L1824.65 29.2718 Q1828.74 27.692 1832.59 26.9223 Q1836.44 26.1121 1840.08 26.1121 Q1849.93 26.1121 1854.79 31.2163 Q1859.65 36.3204 1859.65 46.6907 Z" fill="#000000" fill-rule="evenodd" fill-opacity="1"></path><path clip-path="url(#clip760)" d="M1912.72 45.1919 L1912.72 72.576 L1905.26 72.576 L1905.26 45.4349 Q1905.26 38.994 1902.75 35.7938 Q1900.24 32.5936 1895.22 32.5936 Q1889.18 32.5936 1885.7 36.4419 Q1882.21 40.2903 1882.21 46.9338 L1882.21 72.576 L1874.72 72.576 L1874.72 27.2059 L1882.21 27.2059 L1882.21 34.2544 Q1884.89 30.163 1888.49 28.1376 Q1892.14 26.1121 1896.88 26.1121 Q1904.7 26.1121 1908.71 30.9732 Q1912.72 35.7938 1912.72 45.1919 Z" fill="#000000" fill-rule="evenodd" fill-opacity="1"></path><path clip-path="url(#clip760)" d="M1923.82 46.5287 L1945.65 46.5287 L1945.65 53.1722 L1923.82 53.1722 L1923.82 46.5287 Z" fill="#000000" fill-rule="evenodd" fill-opacity="1"></path><path clip-path="url(#clip760)" d="M1964.73 65.7705 L1964.73 89.8329 L1957.24 89.8329 L1957.24 27.2059 L1964.73 27.2059 L1964.73 34.0924 Q1967.08 30.0415 1970.65 28.0971 Q1974.25 26.1121 1979.23 26.1121 Q1987.5 26.1121 1992.64 32.6746 Q1997.83 39.2371 1997.83 49.9314 Q1997.83 60.6258 1992.64 67.1883 Q1987.5 73.7508 1979.23 73.7508 Q1974.25 73.7508 1970.65 71.8063 Q1967.08 69.8214 1964.73 65.7705 M1990.09 49.9314 Q1990.09 41.7081 1986.69 37.0496 Q1983.32 32.3505 1977.41 32.3505 Q1971.5 32.3505 1968.09 37.0496 Q1964.73 41.7081 1964.73 49.9314 Q1964.73 58.1548 1968.09 62.8538 Q1971.5 67.5124 1977.41 67.5124 Q1983.32 67.5124 1986.69 62.8538 Q1990.09 58.1548 1990.09 49.9314 Z" fill="#000000" fill-rule="evenodd" fill-opacity="1"></path><path clip-path="url(#clip760)" d="M2009.41 54.671 L2009.41 27.2059 L2016.87 27.2059 L2016.87 54.3874 Q2016.87 60.8284 2019.38 64.0691 Q2021.89 67.2693 2026.91 67.2693 Q2032.95 67.2693 2036.43 63.421 Q2039.96 59.5726 2039.96 52.9291 L2039.96 27.2059 L2047.41 27.2059 L2047.41 72.576 L2039.96 72.576 L2039.96 65.6084 Q2037.24 69.7404 2033.64 71.7658 Q2030.07 73.7508 2025.33 73.7508 Q2017.51 73.7508 2013.46 68.8897 Q2009.41 64.0286 2009.41 54.671 M2028.17 26.1121 L2028.17 26.1121 Z" fill="#000000" fill-rule="evenodd" fill-opacity="1"></path><path clip-path="url(#clip760)" d="M2070.14 14.324 L2070.14 27.2059 L2085.49 27.2059 L2085.49 32.9987 L2070.14 32.9987 L2070.14 57.6282 Q2070.14 63.1779 2071.63 64.7578 Q2073.17 66.3376 2077.83 66.3376 L2085.49 66.3376 L2085.49 72.576 L2077.83 72.576 Q2069.2 72.576 2065.92 69.3758 Q2062.64 66.1351 2062.64 57.6282 L2062.64 32.9987 L2057.17 32.9987 L2057.17 27.2059 L2062.64 27.2059 L2062.64 14.324 L2070.14 14.324 Z" fill="#000000" fill-rule="evenodd" fill-opacity="1"></path><polyline clip-path="url(#clip762)" style="stroke:#009af9; stroke-linecap:butt; stroke-linejoin:round; stroke-width:4; stroke-opacity:1; fill:none" points="
  247.59,806.544 254.425,1142.54 261.261,1447.87 268.096,1173.76 274.932,1423.38 281.768,1237.02 288.603,1391.44 295.439,1287.06 302.274,1347.21 309.11,1331.91 
  315.946,1327.28 322.781,1365.08 329.617,1320.21 336.453,1394.84 343.288,1319.57 350.124,1406.27 356.959,1323.33 363.795,1393.91 370.631,1329.99 377.466,1380.47 
  384.302,1336.42 391.138,1369.04 397.973,1344.28 404.809,1361.51 411.644,1352.1 418.48,1355.8 425.316,1360.09 432.151,1351.71 438.987,1368.17 445.823,1349.43 
  452.658,1376.32 459.494,1348.62 466.329,1384 473.165,1348.45 480.001,1387.68 486.836,1349.06 493.672,1383.99 500.508,1350.25 507.343,1379.5 514.179,1351.86 
  521.014,1374.81 527.85,1353.79 534.686,1371.25 541.521,1356.14 548.357,1368.11 555.192,1358.82 562.028,1365.23 568.864,1361.53 575.699,1363.11 582.535,1364.4 
  589.371,1361.42 596.206,1367.34 603.042,1360.29 609.877,1370.36 616.713,1359.41 623.549,1373.48 630.384,1358.86 637.22,1376.56 644.056,1358.55 650.891,1379.66 
  657.727,1358.46 664.562,1380.55 671.398,1358.65 678.234,1378.82 685.069,1359.09 691.905,1376.89 698.741,1359.66 705.576,1374.81 712.412,1360.4 719.247,1372.98 
  726.083,1361.31 732.919,1371.25 739.754,1362.27 746.59,1369.68 753.426,1363.34 760.261,1368.31 767.097,1364.51 773.932,1367.15 780.768,1365.78 787.604,1366.21 
  794.439,1367.06 801.275,1365.45 808.11,1368.4 814.946,1364.77 821.782,1369.82 828.617,1364.17 835.453,1371.31 842.289,1363.75 849.124,1372.82 855.96,1363.44 
  862.795,1374.38 869.631,1363.28 876.467,1375.95 883.302,1363.2 890.138,1377.56 896.974,1363.23 903.809,1377.17 910.645,1363.34 917.48,1376.22 924.316,1363.54 
  931.152,1375.1 937.987,1363.81 944.823,1374.02 951.659,1364.14 958.494,1373.03 965.33,1364.56 972.165,1372 979.001,1364.98 985.837,1371.07 992.672,1365.46 
  999.508,1370.27 1006.34,1366.02 1013.18,1369.55 1020.01,1366.61 1026.85,1368.92 1033.69,1367.24 1040.52,1368.35 1047.36,1367.93 1054.19,1367.8 1061.03,1368.65 
  1067.86,1367.33 1074.7,1369.4 1081.54,1366.93 1088.37,1370.18 1095.21,1366.61 1102.04,1371 1108.88,1366.34 1115.71,1371.83 1122.55,1366.12 1129.38,1372.69 
  1136.22,1365.96 1143.06,1373.57 1149.89,1365.86 1156.73,1374.49 1163.56,1365.82 1170.4,1375.42 1177.23,1365.83 1184.07,1375.73 1190.91,1365.86 1197.74,1375.25 
  1204.58,1365.93 1211.41,1374.65 1218.25,1366.02 1225.08,1373.95 1231.92,1366.16 1238.75,1373.32 1245.59,1366.33 1252.43,1372.72 1259.26,1366.54 1266.1,1372.11 
  1272.93,1366.78 1279.77,1371.55 1286.6,1367.05 1293.44,1371.05 1300.28,1367.35 1307.11,1370.58 1313.95,1367.68 1320.78,1370.15 1327.62,1368.03 1334.45,1369.73 
  1341.29,1368.4 1348.12,1369.36 1354.96,1368.79 1361.8,1369.03 1368.63,1369.21 1375.47,1368.71 1382.3,1369.66 1389.14,1368.44 1395.97,1370.12 1402.81,1368.2 
  1409.65,1370.6 1416.48,1367.99 1423.32,1371.1 1430.15,1367.83 1436.99,1371.61 1443.82,1367.69 1450.66,1372.14 1457.49,1367.59 1464.33,1372.67 1471.17,1367.5 
  1478,1373.22 1484.84,1367.44 1491.67,1373.78 1498.51,1367.4 1505.34,1374.35 1512.18,1367.38 1519.02,1374.68 1525.85,1367.38 1532.69,1374.43 1539.52,1367.4 
  1546.36,1374.08 1553.19,1367.45 1560.03,1373.64 1566.86,1367.53 1573.7,1373.24 1580.54,1367.63 1587.37,1372.84 1594.21,1367.73 1601.04,1372.43 1607.88,1367.86 
  1614.71,1372.04 1621.55,1368 1628.39,1371.69 1635.22,1368.16 1642.06,1371.36 1648.89,1368.34 1655.73,1371.04 1662.56,1368.54 1669.4,1370.75 1676.23,1368.76 
  1683.07,1370.46 1689.91,1368.99 1696.74,1370.18 1703.58,1369.23 1710.41,1369.93 1717.25,1369.49 1724.08,1369.71 1730.92,1369.76 1737.76,1369.5 1744.59,1370.04 
  1751.43,1369.32 1758.26,1370.33 1765.1,1369.15 1771.93,1370.63 1778.77,1369.01 1785.6,1370.94 1792.44,1368.88 1799.28,1371.26 1806.11,1368.78 1812.95,1371.58 
  1819.78,1368.68 1826.62,1371.92 1833.45,1368.59 1840.29,1372.27 1847.12,1368.52 1853.96,1372.63 1860.8,1368.46 1867.63,1373 1874.47,1368.42 1881.3,1373.38 
  1888.14,1368.4 1894.97,1373.76 1901.81,1368.39 1908.65,1373.99 1915.48,1368.39 1922.32,1373.83 1929.15,1368.41 1935.99,1373.6 1942.82,1368.43 1949.66,1373.3 
  1956.49,1368.47 1963.33,1373.02 1970.17,1368.52 1977,1372.75 1983.84,1368.59 1990.67,1372.47 1997.51,1368.67 2004.34,1372.21 2011.18,1368.75 2018.02,1371.95 
  2024.85,1368.86 2031.69,1371.71 2038.52,1368.96 2045.36,1371.48 2052.19,1369.09 2059.03,1371.26 2065.86,1369.22 2072.7,1371.04 2079.54,1369.36 2086.37,1370.83 
  2093.21,1369.51 2100.04,1370.64 2106.88,1369.66 2113.71,1370.46 2120.55,1369.83 2127.39,1370.3 2134.22,1370 2141.06,1370.15 2147.89,1370.17 2154.73,1370.01 
  2161.56,1370.36 2168.4,1369.88 2175.23,1370.55 2182.07,1369.76 2188.91,1370.75 2195.74,1369.66 2202.58,1370.96 2209.41,1369.56 2216.25,1371.18 2223.08,1369.47 
  2229.92,1371.4 2236.76,1369.39 2243.59,1371.63 2250.43,1369.32 2257.26,1371.87 2264.1,1369.26 2270.93,1372.11 2277.77,1369.21 2284.6,1372.36 2291.44,1369.17 
  
  "></polyline>
<polyline clip-path="url(#clip762)" style="stroke:#e26f46; stroke-linecap:butt; stroke-linejoin:round; stroke-width:4; stroke-opacity:1; fill:none" points="
  247.59,162.047 254.425,769.769 261.261,972.343 268.096,1073.63 274.932,1134.4 281.768,1174.92 288.603,1203.86 295.439,1225.56 302.274,1242.44 309.11,1255.95 
  315.946,1267 322.781,1276.2 329.617,1284 336.453,1290.67 343.288,1296.46 350.124,1301.53 356.959,1305.99 363.795,1309.97 370.631,1313.52 377.466,1316.72 
  384.302,1319.61 391.138,1322.24 397.973,1324.65 404.809,1326.85 411.644,1328.87 418.48,1330.74 425.316,1332.47 432.151,1334.08 438.987,1335.58 445.823,1336.98 
  452.658,1338.28 459.494,1339.51 466.329,1340.66 473.165,1341.74 480.001,1342.76 486.836,1343.73 493.672,1344.64 500.508,1345.51 507.343,1346.33 514.179,1347.11 
  521.014,1347.85 527.85,1348.55 534.686,1349.23 541.521,1349.87 548.357,1350.48 555.192,1351.07 562.028,1351.63 568.864,1352.17 575.699,1352.69 582.535,1353.18 
  589.371,1353.66 596.206,1354.12 603.042,1354.56 609.877,1354.98 616.713,1355.39 623.549,1355.79 630.384,1356.17 637.22,1356.54 644.056,1356.89 650.891,1357.23 
  657.727,1357.57 664.562,1357.89 671.398,1358.2 678.234,1358.5 685.069,1358.79 691.905,1359.08 698.741,1359.35 705.576,1359.62 712.412,1359.88 719.247,1360.13 
  726.083,1360.37 732.919,1360.61 739.754,1360.84 746.59,1361.07 753.426,1361.29 760.261,1361.5 767.097,1361.71 773.932,1361.91 780.768,1362.11 787.604,1362.3 
  794.439,1362.49 801.275,1362.67 808.11,1362.85 814.946,1363.02 821.782,1363.19 828.617,1363.36 835.453,1363.52 842.289,1363.68 849.124,1363.83 855.96,1363.99 
  862.795,1364.13 869.631,1364.28 876.467,1364.42 883.302,1364.56 890.138,1364.7 896.974,1364.83 903.809,1364.96 910.645,1365.09 917.48,1365.21 924.316,1365.34 
  931.152,1365.46 937.987,1365.58 944.823,1365.69 951.659,1365.8 958.494,1365.92 965.33,1366.02 972.165,1366.13 979.001,1366.24 985.837,1366.34 992.672,1366.44 
  999.508,1366.54 1006.34,1366.64 1013.18,1366.74 1020.01,1366.83 1026.85,1366.92 1033.69,1367.01 1040.52,1367.1 1047.36,1367.19 1054.19,1367.28 1061.03,1367.36 
  1067.86,1367.45 1074.7,1367.53 1081.54,1367.61 1088.37,1367.69 1095.21,1367.77 1102.04,1367.84 1108.88,1367.92 1115.71,1368 1122.55,1368.07 1129.38,1368.14 
  1136.22,1368.21 1143.06,1368.28 1149.89,1368.35 1156.73,1368.42 1163.56,1368.49 1170.4,1368.55 1177.23,1368.62 1184.07,1368.68 1190.91,1368.75 1197.74,1368.81 
  1204.58,1368.87 1211.41,1368.93 1218.25,1368.99 1225.08,1369.05 1231.92,1369.11 1238.75,1369.17 1245.59,1369.22 1252.43,1369.28 1259.26,1369.33 1266.1,1369.39 
  1272.93,1369.44 1279.77,1369.49 1286.6,1369.55 1293.44,1369.6 1300.28,1369.65 1307.11,1369.7 1313.95,1369.75 1320.78,1369.8 1327.62,1369.85 1334.45,1369.89 
  1341.29,1369.94 1348.12,1369.99 1354.96,1370.03 1361.8,1370.08 1368.63,1370.12 1375.47,1370.17 1382.3,1370.21 1389.14,1370.26 1395.97,1370.3 1402.81,1370.34 
  1409.65,1370.38 1416.48,1370.42 1423.32,1370.47 1430.15,1370.51 1436.99,1370.55 1443.82,1370.59 1450.66,1370.62 1457.49,1370.66 1464.33,1370.7 1471.17,1370.74 
  1478,1370.78 1484.84,1370.81 1491.67,1370.85 1498.51,1370.89 1505.34,1370.92 1512.18,1370.96 1519.02,1370.99 1525.85,1371.03 1532.69,1371.06 1539.52,1371.09 
  1546.36,1371.13 1553.19,1371.16 1560.03,1371.19 1566.86,1371.23 1573.7,1371.26 1580.54,1371.29 1587.37,1371.32 1594.21,1371.35 1601.04,1371.38 1607.88,1371.41 
  1614.71,1371.44 1621.55,1371.47 1628.39,1371.5 1635.22,1371.53 1642.06,1371.56 1648.89,1371.59 1655.73,1371.62 1662.56,1371.65 1669.4,1371.68 1676.23,1371.7 
  1683.07,1371.73 1689.91,1371.76 1696.74,1371.78 1703.58,1371.81 1710.41,1371.84 1717.25,1371.86 1724.08,1371.89 1730.92,1371.92 1737.76,1371.94 1744.59,1371.97 
  1751.43,1371.99 1758.26,1372.02 1765.1,1372.04 1771.93,1372.07 1778.77,1372.09 1785.6,1372.11 1792.44,1372.14 1799.28,1372.16 1806.11,1372.18 1812.95,1372.21 
  1819.78,1372.23 1826.62,1372.25 1833.45,1372.27 1840.29,1372.3 1847.12,1372.32 1853.96,1372.34 1860.8,1372.36 1867.63,1372.38 1874.47,1372.41 1881.3,1372.43 
  1888.14,1372.45 1894.97,1372.47 1901.81,1372.49 1908.65,1372.51 1915.48,1372.53 1922.32,1372.55 1929.15,1372.57 1935.99,1372.59 1942.82,1372.61 1949.66,1372.63 
  1956.49,1372.65 1963.33,1372.67 1970.17,1372.69 1977,1372.71 1983.84,1372.72 1990.67,1372.74 1997.51,1372.76 2004.34,1372.78 2011.18,1372.8 2018.02,1372.82 
  2024.85,1372.83 2031.69,1372.85 2038.52,1372.87 2045.36,1372.89 2052.19,1372.9 2059.03,1372.92 2065.86,1372.94 2072.7,1372.96 2079.54,1372.97 2086.37,1372.99 
  2093.21,1373.01 2100.04,1373.02 2106.88,1373.04 2113.71,1373.06 2120.55,1373.07 2127.39,1373.09 2134.22,1373.1 2141.06,1373.12 2147.89,1373.13 2154.73,1373.15 
  2161.56,1373.17 2168.4,1373.18 2175.23,1373.2 2182.07,1373.21 2188.91,1373.23 2195.74,1373.24 2202.58,1373.26 2209.41,1373.27 2216.25,1373.29 2223.08,1373.3 
  2229.92,1373.31 2236.76,1373.33 2243.59,1373.34 2250.43,1373.36 2257.26,1373.37 2264.1,1373.39 2270.93,1373.4 2277.77,1373.41 2284.6,1373.43 2291.44,1373.44 
  
  "></polyline>
<path clip-path="url(#clip760)" d="
M1077.19 324.425 L2280.54 324.425 L2280.54 168.905 L1077.19 168.905  Z
  " fill="#ffffff" fill-rule="evenodd" fill-opacity="1"></path>
<polyline clip-path="url(#clip760)" style="stroke:#000000; stroke-linecap:butt; stroke-linejoin:round; stroke-width:4; stroke-opacity:1; fill:none" points="
  1077.19,324.425 2280.54,324.425 2280.54,168.905 1077.19,168.905 1077.19,324.425 
  "></polyline>
<polyline clip-path="url(#clip760)" style="stroke:#009af9; stroke-linecap:butt; stroke-linejoin:round; stroke-width:4; stroke-opacity:1; fill:none" points="
  1101.26,220.745 1245.69,220.745 
  "></polyline>
<path clip-path="url(#clip760)" d="M1274.44 207.307 L1274.44 234.182 L1280.09 234.182 Q1287.24 234.182 1290.55 230.941 Q1293.88 227.701 1293.88 220.71 Q1293.88 213.766 1290.55 210.548 Q1287.24 207.307 1280.09 207.307 L1274.44 207.307 M1269.76 203.465 L1279.37 203.465 Q1289.41 203.465 1294.11 207.654 Q1298.81 211.821 1298.81 220.71 Q1298.81 229.645 1294.09 233.835 Q1289.37 238.025 1279.37 238.025 L1269.76 238.025 L1269.76 203.465 Z" fill="#000000" fill-rule="evenodd" fill-opacity="1"></path><path clip-path="url(#clip760)" d="M1306.08 212.099 L1310.34 212.099 L1310.34 238.025 L1306.08 238.025 L1306.08 212.099 M1306.08 202.006 L1310.34 202.006 L1310.34 207.4 L1306.08 207.4 L1306.08 202.006 Z" fill="#000000" fill-rule="evenodd" fill-opacity="1"></path><path clip-path="url(#clip760)" d="M1332.38 202.006 L1332.38 205.548 L1328.3 205.548 Q1326.01 205.548 1325.11 206.474 Q1324.23 207.4 1324.23 209.807 L1324.23 212.099 L1331.24 212.099 L1331.24 215.409 L1324.23 215.409 L1324.23 238.025 L1319.95 238.025 L1319.95 215.409 L1315.87 215.409 L1315.87 212.099 L1319.95 212.099 L1319.95 210.293 Q1319.95 205.965 1321.96 203.997 Q1323.97 202.006 1328.35 202.006 L1332.38 202.006 Z" fill="#000000" fill-rule="evenodd" fill-opacity="1"></path><path clip-path="url(#clip760)" d="M1349.07 202.006 L1349.07 205.548 L1344.99 205.548 Q1342.7 205.548 1341.8 206.474 Q1340.92 207.4 1340.92 209.807 L1340.92 212.099 L1347.93 212.099 L1347.93 215.409 L1340.92 215.409 L1340.92 238.025 L1336.64 238.025 L1336.64 215.409 L1332.56 215.409 L1332.56 212.099 L1336.64 212.099 L1336.64 210.293 Q1336.64 205.965 1338.65 203.997 Q1340.66 202.006 1345.04 202.006 L1349.07 202.006 Z" fill="#000000" fill-rule="evenodd" fill-opacity="1"></path><path clip-path="url(#clip760)" d="M1374.81 223.997 L1374.81 226.08 L1355.22 226.08 Q1355.5 230.478 1357.86 232.793 Q1360.25 235.085 1364.48 235.085 Q1366.94 235.085 1369.23 234.483 Q1371.54 233.881 1373.81 232.677 L1373.81 236.705 Q1371.52 237.677 1369.11 238.187 Q1366.71 238.696 1364.23 238.696 Q1358.03 238.696 1354.39 235.085 Q1350.78 231.474 1350.78 225.316 Q1350.78 218.951 1354.21 215.224 Q1357.66 211.474 1363.49 211.474 Q1368.72 211.474 1371.75 214.853 Q1374.81 218.21 1374.81 223.997 M1370.55 222.747 Q1370.5 219.252 1368.58 217.168 Q1366.68 215.085 1363.53 215.085 Q1359.97 215.085 1357.82 217.099 Q1355.69 219.113 1355.36 222.77 L1370.55 222.747 Z" fill="#000000" fill-rule="evenodd" fill-opacity="1"></path><path clip-path="url(#clip760)" d="M1396.82 216.08 Q1396.1 215.664 1395.25 215.478 Q1394.41 215.27 1393.4 215.27 Q1389.78 215.27 1387.84 217.631 Q1385.92 219.969 1385.92 224.367 L1385.92 238.025 L1381.64 238.025 L1381.64 212.099 L1385.92 212.099 L1385.92 216.127 Q1387.26 213.766 1389.41 212.631 Q1391.57 211.474 1394.65 211.474 Q1395.09 211.474 1395.62 211.543 Q1396.15 211.59 1396.8 211.705 L1396.82 216.08 Z" fill="#000000" fill-rule="evenodd" fill-opacity="1"></path><path clip-path="url(#clip760)" d="M1422.42 223.997 L1422.42 226.08 L1402.84 226.08 Q1403.12 230.478 1405.48 232.793 Q1407.86 235.085 1412.1 235.085 Q1414.55 235.085 1416.84 234.483 Q1419.16 233.881 1421.43 232.677 L1421.43 236.705 Q1419.14 237.677 1416.73 238.187 Q1414.32 238.696 1411.84 238.696 Q1405.64 238.696 1402.01 235.085 Q1398.4 231.474 1398.4 225.316 Q1398.4 218.951 1401.82 215.224 Q1405.27 211.474 1411.1 211.474 Q1416.34 211.474 1419.37 214.853 Q1422.42 218.21 1422.42 223.997 M1418.16 222.747 Q1418.12 219.252 1416.2 217.168 Q1414.3 215.085 1411.15 215.085 Q1407.59 215.085 1405.43 217.099 Q1403.3 219.113 1402.98 222.77 L1418.16 222.747 Z" fill="#000000" fill-rule="evenodd" fill-opacity="1"></path><path clip-path="url(#clip760)" d="M1450.96 222.377 L1450.96 238.025 L1446.71 238.025 L1446.71 222.515 Q1446.71 218.835 1445.27 217.006 Q1443.84 215.178 1440.96 215.178 Q1437.52 215.178 1435.53 217.377 Q1433.53 219.576 1433.53 223.372 L1433.53 238.025 L1429.25 238.025 L1429.25 212.099 L1433.53 212.099 L1433.53 216.127 Q1435.06 213.789 1437.12 212.631 Q1439.21 211.474 1441.91 211.474 Q1446.38 211.474 1448.67 214.252 Q1450.96 217.006 1450.96 222.377 Z" fill="#000000" fill-rule="evenodd" fill-opacity="1"></path><path clip-path="url(#clip760)" d="M1478.12 213.094 L1478.12 217.076 Q1476.31 216.08 1474.48 215.594 Q1472.68 215.085 1470.83 215.085 Q1466.68 215.085 1464.39 217.724 Q1462.1 220.34 1462.1 225.085 Q1462.1 229.83 1464.39 232.469 Q1466.68 235.085 1470.83 235.085 Q1472.68 235.085 1474.48 234.599 Q1476.31 234.089 1478.12 233.094 L1478.12 237.029 Q1476.34 237.863 1474.41 238.279 Q1472.52 238.696 1470.36 238.696 Q1464.51 238.696 1461.06 235.015 Q1457.61 231.335 1457.61 225.085 Q1457.61 218.742 1461.08 215.108 Q1464.58 211.474 1470.64 211.474 Q1472.61 211.474 1474.48 211.891 Q1476.36 212.284 1478.12 213.094 Z" fill="#000000" fill-rule="evenodd" fill-opacity="1"></path><path clip-path="url(#clip760)" d="M1507.7 223.997 L1507.7 226.08 L1488.12 226.08 Q1488.4 230.478 1490.76 232.793 Q1493.14 235.085 1497.38 235.085 Q1499.83 235.085 1502.12 234.483 Q1504.44 233.881 1506.71 232.677 L1506.71 236.705 Q1504.41 237.677 1502.01 238.187 Q1499.6 238.696 1497.12 238.696 Q1490.92 238.696 1487.28 235.085 Q1483.67 231.474 1483.67 225.316 Q1483.67 218.951 1487.1 215.224 Q1490.55 211.474 1496.38 211.474 Q1501.61 211.474 1504.65 214.853 Q1507.7 218.21 1507.7 223.997 M1503.44 222.747 Q1503.4 219.252 1501.47 217.168 Q1499.58 215.085 1496.43 215.085 Q1492.86 215.085 1490.71 217.099 Q1488.58 219.113 1488.26 222.77 L1503.44 222.747 Z" fill="#000000" fill-rule="evenodd" fill-opacity="1"></path><path clip-path="url(#clip760)" d="M1539.81 215.085 Q1536.38 215.085 1534.39 217.77 Q1532.4 220.432 1532.4 225.085 Q1532.4 229.738 1534.37 232.423 Q1536.36 235.085 1539.81 235.085 Q1543.21 235.085 1545.2 232.4 Q1547.19 229.715 1547.19 225.085 Q1547.19 220.478 1545.2 217.793 Q1543.21 215.085 1539.81 215.085 M1539.81 211.474 Q1545.36 211.474 1548.53 215.085 Q1551.71 218.696 1551.71 225.085 Q1551.71 231.451 1548.53 235.085 Q1545.36 238.696 1539.81 238.696 Q1534.23 238.696 1531.06 235.085 Q1527.91 231.451 1527.91 225.085 Q1527.91 218.696 1531.06 215.085 Q1534.23 211.474 1539.81 211.474 Z" fill="#000000" fill-rule="evenodd" fill-opacity="1"></path><path clip-path="url(#clip760)" d="M1571.89 202.006 L1571.89 205.548 L1567.82 205.548 Q1565.52 205.548 1564.62 206.474 Q1563.74 207.4 1563.74 209.807 L1563.74 212.099 L1570.76 212.099 L1570.76 215.409 L1563.74 215.409 L1563.74 238.025 L1559.46 238.025 L1559.46 215.409 L1555.39 215.409 L1555.39 212.099 L1559.46 212.099 L1559.46 210.293 Q1559.46 205.965 1561.47 203.997 Q1563.49 202.006 1567.86 202.006 L1571.89 202.006 Z" fill="#000000" fill-rule="evenodd" fill-opacity="1"></path><path clip-path="url(#clip760)" d="M1595.39 221.52 L1595.39 234.182 L1602.89 234.182 Q1606.66 234.182 1608.46 232.631 Q1610.29 231.057 1610.29 227.84 Q1610.29 224.599 1608.46 223.071 Q1606.66 221.52 1602.89 221.52 L1595.39 221.52 M1595.39 207.307 L1595.39 217.724 L1602.31 217.724 Q1605.73 217.724 1607.4 216.451 Q1609.09 215.154 1609.09 212.516 Q1609.09 209.9 1607.4 208.604 Q1605.73 207.307 1602.31 207.307 L1595.39 207.307 M1590.71 203.465 L1602.65 203.465 Q1608 203.465 1610.89 205.687 Q1613.79 207.909 1613.79 212.006 Q1613.79 215.178 1612.31 217.053 Q1610.83 218.928 1607.95 219.39 Q1611.4 220.131 1613.3 222.492 Q1615.22 224.83 1615.22 228.349 Q1615.22 232.978 1612.08 235.502 Q1608.93 238.025 1603.12 238.025 L1590.71 238.025 L1590.71 203.465 Z" fill="#000000" fill-rule="evenodd" fill-opacity="1"></path><path clip-path="url(#clip760)" d="M1623.05 212.099 L1627.31 212.099 L1627.31 238.025 L1623.05 238.025 L1623.05 212.099 M1623.05 202.006 L1627.31 202.006 L1627.31 207.4 L1623.05 207.4 L1623.05 202.006 Z" fill="#000000" fill-rule="evenodd" fill-opacity="1"></path><path clip-path="url(#clip760)" d="M1657.77 222.377 L1657.77 238.025 L1653.51 238.025 L1653.51 222.515 Q1653.51 218.835 1652.07 217.006 Q1650.64 215.178 1647.77 215.178 Q1644.32 215.178 1642.33 217.377 Q1640.34 219.576 1640.34 223.372 L1640.34 238.025 L1636.06 238.025 L1636.06 212.099 L1640.34 212.099 L1640.34 216.127 Q1641.87 213.789 1643.93 212.631 Q1646.01 211.474 1648.72 211.474 Q1653.19 211.474 1655.48 214.252 Q1657.77 217.006 1657.77 222.377 Z" fill="#000000" fill-rule="evenodd" fill-opacity="1"></path><path clip-path="url(#clip760)" d="M1676.31 215.085 Q1672.88 215.085 1670.89 217.77 Q1668.9 220.432 1668.9 225.085 Q1668.9 229.738 1670.87 232.423 Q1672.86 235.085 1676.31 235.085 Q1679.71 235.085 1681.7 232.4 Q1683.7 229.715 1683.7 225.085 Q1683.7 220.478 1681.7 217.793 Q1679.71 215.085 1676.31 215.085 M1676.31 211.474 Q1681.87 211.474 1685.04 215.085 Q1688.21 218.696 1688.21 225.085 Q1688.21 231.451 1685.04 235.085 Q1681.87 238.696 1676.31 238.696 Q1670.73 238.696 1667.56 235.085 Q1664.41 231.451 1664.41 225.085 Q1664.41 218.696 1667.56 215.085 Q1670.73 211.474 1676.31 211.474 Z" fill="#000000" fill-rule="evenodd" fill-opacity="1"></path><path clip-path="url(#clip760)" d="M1715.45 217.076 Q1717.05 214.205 1719.27 212.84 Q1721.5 211.474 1724.51 211.474 Q1728.56 211.474 1730.75 214.321 Q1732.95 217.145 1732.95 222.377 L1732.95 238.025 L1728.67 238.025 L1728.67 222.515 Q1728.67 218.789 1727.35 216.983 Q1726.03 215.178 1723.32 215.178 Q1720.01 215.178 1718.09 217.377 Q1716.17 219.576 1716.17 223.372 L1716.17 238.025 L1711.89 238.025 L1711.89 222.515 Q1711.89 218.765 1710.57 216.983 Q1709.25 215.178 1706.5 215.178 Q1703.23 215.178 1701.31 217.4 Q1699.39 219.599 1699.39 223.372 L1699.39 238.025 L1695.11 238.025 L1695.11 212.099 L1699.39 212.099 L1699.39 216.127 Q1700.85 213.742 1702.88 212.608 Q1704.92 211.474 1707.72 211.474 Q1710.55 211.474 1712.51 212.909 Q1714.51 214.344 1715.45 217.076 Z" fill="#000000" fill-rule="evenodd" fill-opacity="1"></path><path clip-path="url(#clip760)" d="M1741.45 212.099 L1745.71 212.099 L1745.71 238.025 L1741.45 238.025 L1741.45 212.099 M1741.45 202.006 L1745.71 202.006 L1745.71 207.4 L1741.45 207.4 L1741.45 202.006 Z" fill="#000000" fill-rule="evenodd" fill-opacity="1"></path><path clip-path="url(#clip760)" d="M1766.4 224.992 Q1761.24 224.992 1759.25 226.173 Q1757.26 227.353 1757.26 230.201 Q1757.26 232.469 1758.74 233.812 Q1760.25 235.131 1762.81 235.131 Q1766.36 235.131 1768.49 232.631 Q1770.64 230.108 1770.64 225.941 L1770.64 224.992 L1766.4 224.992 M1774.9 223.233 L1774.9 238.025 L1770.64 238.025 L1770.64 234.089 Q1769.18 236.451 1767 237.585 Q1764.83 238.696 1761.68 238.696 Q1757.7 238.696 1755.34 236.474 Q1753 234.228 1753 230.478 Q1753 226.103 1755.92 223.881 Q1758.86 221.659 1764.67 221.659 L1770.64 221.659 L1770.64 221.242 Q1770.64 218.303 1768.69 216.705 Q1766.77 215.085 1763.28 215.085 Q1761.06 215.085 1758.95 215.617 Q1756.84 216.15 1754.9 217.215 L1754.9 213.279 Q1757.24 212.377 1759.44 211.937 Q1761.63 211.474 1763.72 211.474 Q1769.34 211.474 1772.12 214.391 Q1774.9 217.307 1774.9 223.233 Z" fill="#000000" fill-rule="evenodd" fill-opacity="1"></path><path clip-path="url(#clip760)" d="M1783.67 202.006 L1787.93 202.006 L1787.93 238.025 L1783.67 238.025 L1783.67 202.006 Z" fill="#000000" fill-rule="evenodd" fill-opacity="1"></path><path clip-path="url(#clip760)" d="M1816.77 207.307 L1816.77 220.293 L1822.65 220.293 Q1825.92 220.293 1827.7 218.603 Q1829.48 216.914 1829.48 213.789 Q1829.48 210.687 1827.7 208.997 Q1825.92 207.307 1822.65 207.307 L1816.77 207.307 M1812.1 203.465 L1822.65 203.465 Q1828.46 203.465 1831.43 206.104 Q1834.41 208.719 1834.41 213.789 Q1834.41 218.904 1831.43 221.52 Q1828.46 224.136 1822.65 224.136 L1816.77 224.136 L1816.77 238.025 L1812.1 238.025 L1812.1 203.465 Z" fill="#000000" fill-rule="evenodd" fill-opacity="1"></path><path clip-path="url(#clip760)" d="M1854.69 216.08 Q1853.97 215.664 1853.12 215.478 Q1852.28 215.27 1851.26 215.27 Q1847.65 215.27 1845.71 217.631 Q1843.79 219.969 1843.79 224.367 L1843.79 238.025 L1839.5 238.025 L1839.5 212.099 L1843.79 212.099 L1843.79 216.127 Q1845.13 213.766 1847.28 212.631 Q1849.43 211.474 1852.51 211.474 Q1852.95 211.474 1853.49 211.543 Q1854.02 211.59 1854.67 211.705 L1854.69 216.08 Z" fill="#000000" fill-rule="evenodd" fill-opacity="1"></path><path clip-path="url(#clip760)" d="M1859.16 212.099 L1863.42 212.099 L1863.42 238.025 L1859.16 238.025 L1859.16 212.099 M1859.16 202.006 L1863.42 202.006 L1863.42 207.4 L1859.16 207.4 L1859.16 202.006 Z" fill="#000000" fill-rule="evenodd" fill-opacity="1"></path><path clip-path="url(#clip760)" d="M1890.99 213.094 L1890.99 217.076 Q1889.18 216.08 1887.35 215.594 Q1885.55 215.085 1883.69 215.085 Q1879.55 215.085 1877.26 217.724 Q1874.97 220.34 1874.97 225.085 Q1874.97 229.83 1877.26 232.469 Q1879.55 235.085 1883.69 235.085 Q1885.55 235.085 1887.35 234.599 Q1889.18 234.089 1890.99 233.094 L1890.99 237.029 Q1889.2 237.863 1887.28 238.279 Q1885.38 238.696 1883.23 238.696 Q1877.37 238.696 1873.93 235.015 Q1870.48 231.335 1870.48 225.085 Q1870.48 218.742 1873.95 215.108 Q1877.44 211.474 1883.51 211.474 Q1885.48 211.474 1887.35 211.891 Q1889.23 212.284 1890.99 213.094 Z" fill="#000000" fill-rule="evenodd" fill-opacity="1"></path><path clip-path="url(#clip760)" d="M1920.57 223.997 L1920.57 226.08 L1900.99 226.08 Q1901.26 230.478 1903.62 232.793 Q1906.01 235.085 1910.24 235.085 Q1912.7 235.085 1914.99 234.483 Q1917.3 233.881 1919.57 232.677 L1919.57 236.705 Q1917.28 237.677 1914.87 238.187 Q1912.47 238.696 1909.99 238.696 Q1903.79 238.696 1900.15 235.085 Q1896.54 231.474 1896.54 225.316 Q1896.54 218.951 1899.97 215.224 Q1903.42 211.474 1909.25 211.474 Q1914.48 211.474 1917.51 214.853 Q1920.57 218.21 1920.57 223.997 M1916.31 222.747 Q1916.26 219.252 1914.34 217.168 Q1912.44 215.085 1909.3 215.085 Q1905.73 215.085 1903.58 217.099 Q1901.45 219.113 1901.12 222.77 L1916.31 222.747 Z" fill="#000000" fill-rule="evenodd" fill-opacity="1"></path><path clip-path="url(#clip760)" d="M1954.41 224.992 Q1949.25 224.992 1947.26 226.173 Q1945.27 227.353 1945.27 230.201 Q1945.27 232.469 1946.75 233.812 Q1948.25 235.131 1950.82 235.131 Q1954.36 235.131 1956.49 232.631 Q1958.65 230.108 1958.65 225.941 L1958.65 224.992 L1954.41 224.992 M1962.91 223.233 L1962.91 238.025 L1958.65 238.025 L1958.65 234.089 Q1957.19 236.451 1955.01 237.585 Q1952.84 238.696 1949.69 238.696 Q1945.71 238.696 1943.35 236.474 Q1941.01 234.228 1941.01 230.478 Q1941.01 226.103 1943.93 223.881 Q1946.86 221.659 1952.68 221.659 L1958.65 221.659 L1958.65 221.242 Q1958.65 218.303 1956.7 216.705 Q1954.78 215.085 1951.29 215.085 Q1949.06 215.085 1946.96 215.617 Q1944.85 216.15 1942.91 217.215 L1942.91 213.279 Q1945.24 212.377 1947.44 211.937 Q1949.64 211.474 1951.73 211.474 Q1957.35 211.474 1960.13 214.391 Q1962.91 217.307 1962.91 223.233 Z" fill="#000000" fill-rule="evenodd" fill-opacity="1"></path><path clip-path="url(#clip760)" d="M1993.23 222.377 L1993.23 238.025 L1988.97 238.025 L1988.97 222.515 Q1988.97 218.835 1987.54 217.006 Q1986.1 215.178 1983.23 215.178 Q1979.78 215.178 1977.79 217.377 Q1975.8 219.576 1975.8 223.372 L1975.8 238.025 L1971.52 238.025 L1971.52 212.099 L1975.8 212.099 L1975.8 216.127 Q1977.33 213.789 1979.39 212.631 Q1981.47 211.474 1984.18 211.474 Q1988.65 211.474 1990.94 214.252 Q1993.23 217.006 1993.23 222.377 Z" fill="#000000" fill-rule="evenodd" fill-opacity="1"></path><path clip-path="url(#clip760)" d="M2018.79 216.034 L2018.79 202.006 L2023.05 202.006 L2023.05 238.025 L2018.79 238.025 L2018.79 234.136 Q2017.44 236.451 2015.38 237.585 Q2013.35 238.696 2010.48 238.696 Q2005.78 238.696 2002.81 234.946 Q1999.87 231.196 1999.87 225.085 Q1999.87 218.974 2002.81 215.224 Q2005.78 211.474 2010.48 211.474 Q2013.35 211.474 2015.38 212.608 Q2017.44 213.719 2018.79 216.034 M2004.27 225.085 Q2004.27 229.784 2006.19 232.469 Q2008.14 235.131 2011.52 235.131 Q2014.9 235.131 2016.84 232.469 Q2018.79 229.784 2018.79 225.085 Q2018.79 220.386 2016.84 217.724 Q2014.9 215.039 2011.52 215.039 Q2008.14 215.039 2006.19 217.724 Q2004.27 220.386 2004.27 225.085 Z" fill="#000000" fill-rule="evenodd" fill-opacity="1"></path><path clip-path="url(#clip760)" d="M2051.75 221.52 L2051.75 234.182 L2059.25 234.182 Q2063.02 234.182 2064.83 232.631 Q2066.66 231.057 2066.66 227.84 Q2066.66 224.599 2064.83 223.071 Q2063.02 221.52 2059.25 221.52 L2051.75 221.52 M2051.75 207.307 L2051.75 217.724 L2058.67 217.724 Q2062.1 217.724 2063.76 216.451 Q2065.45 215.154 2065.45 212.516 Q2065.45 209.9 2063.76 208.604 Q2062.1 207.307 2058.67 207.307 L2051.75 207.307 M2047.07 203.465 L2059.02 203.465 Q2064.36 203.465 2067.26 205.687 Q2070.15 207.909 2070.15 212.006 Q2070.15 215.178 2068.67 217.053 Q2067.19 218.928 2064.32 219.39 Q2067.77 220.131 2069.67 222.492 Q2071.59 224.83 2071.59 228.349 Q2071.59 232.978 2068.44 235.502 Q2065.29 238.025 2059.48 238.025 L2047.07 238.025 L2047.07 203.465 Z" fill="#000000" fill-rule="evenodd" fill-opacity="1"></path><path clip-path="url(#clip760)" d="M2099.48 204.599 L2099.48 209.159 Q2096.82 207.886 2094.46 207.261 Q2092.1 206.636 2089.9 206.636 Q2086.08 206.636 2083.99 208.117 Q2081.93 209.599 2081.93 212.33 Q2081.93 214.622 2083.3 215.803 Q2084.69 216.96 2088.53 217.678 L2091.35 218.256 Q2096.59 219.252 2099.06 221.775 Q2101.56 224.275 2101.56 228.488 Q2101.56 233.511 2098.18 236.103 Q2094.83 238.696 2088.32 238.696 Q2085.87 238.696 2083.09 238.14 Q2080.34 237.585 2077.37 236.497 L2077.37 231.682 Q2080.22 233.279 2082.95 234.089 Q2085.68 234.9 2088.32 234.9 Q2092.33 234.9 2094.5 233.326 Q2096.68 231.752 2096.68 228.835 Q2096.68 226.289 2095.1 224.853 Q2093.55 223.418 2089.99 222.701 L2087.14 222.145 Q2081.91 221.103 2079.57 218.881 Q2077.23 216.659 2077.23 212.701 Q2077.23 208.117 2080.45 205.479 Q2083.69 202.84 2089.36 202.84 Q2091.79 202.84 2094.32 203.279 Q2096.84 203.719 2099.48 204.599 Z" fill="#000000" fill-rule="evenodd" fill-opacity="1"></path><path clip-path="url(#clip760)" d="M2128.6 207.307 L2128.6 220.293 L2134.48 220.293 Q2137.74 220.293 2139.53 218.603 Q2141.31 216.914 2141.31 213.789 Q2141.31 210.687 2139.53 208.997 Q2137.74 207.307 2134.48 207.307 L2128.6 207.307 M2123.92 203.465 L2134.48 203.465 Q2140.29 203.465 2143.25 206.104 Q2146.24 208.719 2146.24 213.789 Q2146.24 218.904 2143.25 221.52 Q2140.29 224.136 2134.48 224.136 L2128.6 224.136 L2128.6 238.025 L2123.92 238.025 L2123.92 203.465 Z" fill="#000000" fill-rule="evenodd" fill-opacity="1"></path><path clip-path="url(#clip760)" d="M2166.52 216.08 Q2165.8 215.664 2164.94 215.478 Q2164.11 215.27 2163.09 215.27 Q2159.48 215.27 2157.54 217.631 Q2155.61 219.969 2155.61 224.367 L2155.61 238.025 L2151.33 238.025 L2151.33 212.099 L2155.61 212.099 L2155.61 216.127 Q2156.96 213.766 2159.11 212.631 Q2161.26 211.474 2164.34 211.474 Q2164.78 211.474 2165.31 211.543 Q2165.85 211.59 2166.49 211.705 L2166.52 216.08 Z" fill="#000000" fill-rule="evenodd" fill-opacity="1"></path><path clip-path="url(#clip760)" d="M2170.98 212.099 L2175.24 212.099 L2175.24 238.025 L2170.98 238.025 L2170.98 212.099 M2170.98 202.006 L2175.24 202.006 L2175.24 207.4 L2170.98 207.4 L2170.98 202.006 Z" fill="#000000" fill-rule="evenodd" fill-opacity="1"></path><path clip-path="url(#clip760)" d="M2202.81 213.094 L2202.81 217.076 Q2201.01 216.08 2199.18 215.594 Q2197.37 215.085 2195.52 215.085 Q2191.38 215.085 2189.09 217.724 Q2186.79 220.34 2186.79 225.085 Q2186.79 229.83 2189.09 232.469 Q2191.38 235.085 2195.52 235.085 Q2197.37 235.085 2199.18 234.599 Q2201.01 234.089 2202.81 233.094 L2202.81 237.029 Q2201.03 237.863 2199.11 238.279 Q2197.21 238.696 2195.06 238.696 Q2189.2 238.696 2185.75 235.015 Q2182.3 231.335 2182.3 225.085 Q2182.3 218.742 2185.78 215.108 Q2189.27 211.474 2195.34 211.474 Q2197.3 211.474 2199.18 211.891 Q2201.05 212.284 2202.81 213.094 Z" fill="#000000" fill-rule="evenodd" fill-opacity="1"></path><path clip-path="url(#clip760)" d="M2232.4 223.997 L2232.4 226.08 L2212.81 226.08 Q2213.09 230.478 2215.45 232.793 Q2217.84 235.085 2222.07 235.085 Q2224.53 235.085 2226.82 234.483 Q2229.13 233.881 2231.4 232.677 L2231.4 236.705 Q2229.11 237.677 2226.7 238.187 Q2224.29 238.696 2221.82 238.696 Q2215.61 238.696 2211.98 235.085 Q2208.37 231.474 2208.37 225.316 Q2208.37 218.951 2211.79 215.224 Q2215.24 211.474 2221.08 211.474 Q2226.31 211.474 2229.34 214.853 Q2232.4 218.21 2232.4 223.997 M2228.14 222.747 Q2228.09 219.252 2226.17 217.168 Q2224.27 215.085 2221.12 215.085 Q2217.56 215.085 2215.41 217.099 Q2213.28 219.113 2212.95 222.77 L2228.14 222.747 Z" fill="#000000" fill-rule="evenodd" fill-opacity="1"></path><polyline clip-path="url(#clip760)" style="stroke:#e26f46; stroke-linecap:butt; stroke-linejoin:round; stroke-width:4; stroke-opacity:1; fill:none" points="
  1101.26,272.585 1245.69,272.585 
  "></polyline>
<path clip-path="url(#clip760)" d="M1270.43 285.929 L1278.07 285.929 L1278.07 259.564 L1269.76 261.231 L1269.76 256.971 L1278.03 255.305 L1282.7 255.305 L1282.7 285.929 L1290.34 285.929 L1290.34 289.865 L1270.43 289.865 L1270.43 285.929 Z" fill="#000000" fill-rule="evenodd" fill-opacity="1"></path><path clip-path="url(#clip760)" d="M1306.75 255.305 L1310.69 255.305 L1298.65 294.263 L1294.72 294.263 L1306.75 255.305 Z" fill="#000000" fill-rule="evenodd" fill-opacity="1"></path><path clip-path="url(#clip760)" d="M1336.71 274.217 L1336.71 289.865 L1332.45 289.865 L1332.45 274.355 Q1332.45 270.675 1331.01 268.846 Q1329.58 267.018 1326.71 267.018 Q1323.26 267.018 1321.27 269.217 Q1319.28 271.416 1319.28 275.212 L1319.28 289.865 L1314.99 289.865 L1314.99 263.939 L1319.28 263.939 L1319.28 267.967 Q1320.8 265.629 1322.86 264.471 Q1324.95 263.314 1327.66 263.314 Q1332.12 263.314 1334.41 266.092 Q1336.71 268.846 1336.71 274.217 Z" fill="#000000" fill-rule="evenodd" fill-opacity="1"></path><path clip-path="url(#clip760)" d="M1377.61 260.143 L1377.61 273.036 L1390.5 273.036 L1390.5 276.971 L1377.61 276.971 L1377.61 289.865 L1373.72 289.865 L1373.72 276.971 L1360.83 276.971 L1360.83 273.036 L1373.72 273.036 L1373.72 260.143 L1377.61 260.143 Z" fill="#000000" fill-rule="evenodd" fill-opacity="1"></path><path clip-path="url(#clip760)" d="M1425.66 258.383 Q1422.05 258.383 1420.22 261.948 Q1418.42 265.49 1418.42 272.619 Q1418.42 279.726 1420.22 283.291 Q1422.05 286.832 1425.66 286.832 Q1429.3 286.832 1431.1 283.291 Q1432.93 279.726 1432.93 272.619 Q1432.93 265.49 1431.1 261.948 Q1429.3 258.383 1425.66 258.383 M1425.66 254.68 Q1431.47 254.68 1434.53 259.286 Q1437.61 263.869 1437.61 272.619 Q1437.61 281.346 1434.53 285.953 Q1431.47 290.536 1425.66 290.536 Q1419.85 290.536 1416.78 285.953 Q1413.72 281.346 1413.72 272.619 Q1413.72 263.869 1416.78 259.286 Q1419.85 254.68 1425.66 254.68 Z" fill="#000000" fill-rule="evenodd" fill-opacity="1"></path><path clip-path="url(#clip760)" d="M1445.83 283.985 L1450.71 283.985 L1450.71 289.865 L1445.83 289.865 L1445.83 283.985 Z" fill="#000000" fill-rule="evenodd" fill-opacity="1"></path><path clip-path="url(#clip760)" d="M1470.9 258.383 Q1467.28 258.383 1465.46 261.948 Q1463.65 265.49 1463.65 272.619 Q1463.65 279.726 1465.46 283.291 Q1467.28 286.832 1470.9 286.832 Q1474.53 286.832 1476.34 283.291 Q1478.16 279.726 1478.16 272.619 Q1478.16 265.49 1476.34 261.948 Q1474.53 258.383 1470.9 258.383 M1470.9 254.68 Q1476.71 254.68 1479.76 259.286 Q1482.84 263.869 1482.84 272.619 Q1482.84 281.346 1479.76 285.953 Q1476.71 290.536 1470.9 290.536 Q1465.09 290.536 1462.01 285.953 Q1458.95 281.346 1458.95 272.619 Q1458.95 263.869 1462.01 259.286 Q1465.09 254.68 1470.9 254.68 Z" fill="#000000" fill-rule="evenodd" fill-opacity="1"></path><path clip-path="url(#clip760)" d="M1501.64 270.721 Q1498.49 270.721 1496.64 272.874 Q1494.81 275.027 1494.81 278.777 Q1494.81 282.504 1496.64 284.679 Q1498.49 286.832 1501.64 286.832 Q1504.78 286.832 1506.61 284.679 Q1508.46 282.504 1508.46 278.777 Q1508.46 275.027 1506.61 272.874 Q1504.78 270.721 1501.64 270.721 M1510.92 256.069 L1510.92 260.328 Q1509.16 259.494 1507.35 259.055 Q1505.57 258.615 1503.81 258.615 Q1499.18 258.615 1496.73 261.74 Q1494.3 264.865 1493.95 271.184 Q1495.32 269.17 1497.38 268.106 Q1499.44 267.018 1501.91 267.018 Q1507.12 267.018 1510.13 270.189 Q1513.16 273.337 1513.16 278.777 Q1513.16 284.101 1510.02 287.318 Q1506.87 290.536 1501.64 290.536 Q1495.64 290.536 1492.47 285.953 Q1489.3 281.346 1489.3 272.619 Q1489.3 264.425 1493.19 259.564 Q1497.08 254.68 1503.63 254.68 Q1505.39 254.68 1507.17 255.027 Q1508.97 255.374 1510.92 256.069 Z" fill="#000000" fill-rule="evenodd" fill-opacity="1"></path></svg>