<svg xmlns="http://www.w3.org/2000/svg" xmlns:xlink="http://www.w3.org/1999/xlink" width="600" height="400" viewBox="0 0 2400 1600">
<defs>
  <clipPath id="clip280">
    <rect x="0" y="0" width="2400" height="1600"></rect>
  </clipPath>
</defs>
<path clip-path="url(#clip280)" d="
M0 1600 L2400 1600 L2400 0 L0 0  Z
  " fill="#ffffff" fill-rule="evenodd" fill-opacity="1"></path>
<defs>
  <clipPath id="clip281">
    <rect x="480" y="0" width="1681" height="1600"></rect>
  </clipPath>
</defs>
<path clip-path="url(#clip280)" d="
M232.389 1423.18 L2352.76 1423.18 L2352.76 47.2441 L232.389 47.2441  Z
  " fill="#ffffff" fill-rule="evenodd" fill-opacity="1"></path>
<defs>
  <clipPath id="clip282">
    <rect x="232" y="47" width="2121" height="1377"></rect>
  </clipPath>
</defs>
<polyline clip-path="url(#clip282)" style="stroke:#000000; stroke-linecap:butt; stroke-linejoin:round; stroke-width:2; stroke-opacity:0.1; fill:none" points="
  292.4,1423.18 292.4,47.2441 
  "></polyline>
<polyline clip-path="url(#clip282)" style="stroke:#000000; stroke-linecap:butt; stroke-linejoin:round; stroke-width:2; stroke-opacity:0.1; fill:none" points="
  792.486,1423.18 792.486,47.2441 
  "></polyline>
<polyline clip-path="url(#clip282)" style="stroke:#000000; stroke-linecap:butt; stroke-linejoin:round; stroke-width:2; stroke-opacity:0.1; fill:none" points="
  1292.57,1423.18 1292.57,47.2441 
  "></polyline>
<polyline clip-path="url(#clip282)" style="stroke:#000000; stroke-linecap:butt; stroke-linejoin:round; stroke-width:2; stroke-opacity:0.1; fill:none" points="
  1792.66,1423.18 1792.66,47.2441 
  "></polyline>
<polyline clip-path="url(#clip282)" style="stroke:#000000; stroke-linecap:butt; stroke-linejoin:round; stroke-width:2; stroke-opacity:0.1; fill:none" points="
  2292.75,1423.18 2292.75,47.2441 
  "></polyline>
<polyline clip-path="url(#clip280)" style="stroke:#000000; stroke-linecap:butt; stroke-linejoin:round; stroke-width:4; stroke-opacity:1; fill:none" points="
  232.389,1423.18 2352.76,1423.18 
  "></polyline>
<polyline clip-path="url(#clip280)" style="stroke:#000000; stroke-linecap:butt; stroke-linejoin:round; stroke-width:4; stroke-opacity:1; fill:none" points="
  292.4,1423.18 292.4,1404.28 
  "></polyline>
<polyline clip-path="url(#clip280)" style="stroke:#000000; stroke-linecap:butt; stroke-linejoin:round; stroke-width:4; stroke-opacity:1; fill:none" points="
  792.486,1423.18 792.486,1404.28 
  "></polyline>
<polyline clip-path="url(#clip280)" style="stroke:#000000; stroke-linecap:butt; stroke-linejoin:round; stroke-width:4; stroke-opacity:1; fill:none" points="
  1292.57,1423.18 1292.57,1404.28 
  "></polyline>
<polyline clip-path="url(#clip280)" style="stroke:#000000; stroke-linecap:butt; stroke-linejoin:round; stroke-width:4; stroke-opacity:1; fill:none" points="
  1792.66,1423.18 1792.66,1404.28 
  "></polyline>
<polyline clip-path="url(#clip280)" style="stroke:#000000; stroke-linecap:butt; stroke-linejoin:round; stroke-width:4; stroke-opacity:1; fill:none" points="
  2292.75,1423.18 2292.75,1404.28 
  "></polyline>
<path clip-path="url(#clip280)" d="M218.395 1481.64 L234.715 1481.64 L234.715 1485.58 L212.771 1485.58 L212.771 1481.64 Q215.433 1478.89 220.016 1474.26 Q224.622 1469.61 225.803 1468.27 Q228.048 1465.74 228.928 1464.01 Q229.831 1462.25 229.831 1460.56 Q229.831 1457.8 227.886 1456.07 Q225.965 1454.33 222.863 1454.33 Q220.664 1454.33 218.21 1455.09 Q215.78 1455.86 213.002 1457.41 L213.002 1452.69 Q215.826 1451.55 218.28 1450.97 Q220.733 1450.39 222.77 1450.39 Q228.141 1450.39 231.335 1453.08 Q234.53 1455.77 234.53 1460.26 Q234.53 1462.39 233.719 1464.31 Q232.932 1466.2 230.826 1468.8 Q230.247 1469.47 227.145 1472.69 Q224.044 1475.88 218.395 1481.64 Z" fill="#000000" fill-rule="evenodd" fill-opacity="1"></path><path clip-path="url(#clip280)" d="M254.53 1454.1 Q250.918 1454.1 249.09 1457.66 Q247.284 1461.2 247.284 1468.33 Q247.284 1475.44 249.09 1479.01 Q250.918 1482.55 254.53 1482.55 Q258.164 1482.55 259.969 1479.01 Q261.798 1475.44 261.798 1468.33 Q261.798 1461.2 259.969 1457.66 Q258.164 1454.1 254.53 1454.1 M254.53 1450.39 Q260.34 1450.39 263.395 1455 Q266.474 1459.58 266.474 1468.33 Q266.474 1477.06 263.395 1481.67 Q260.34 1486.25 254.53 1486.25 Q248.719 1486.25 245.641 1481.67 Q242.585 1477.06 242.585 1468.33 Q242.585 1459.58 245.641 1455 Q248.719 1450.39 254.53 1450.39 Z" fill="#000000" fill-rule="evenodd" fill-opacity="1"></path><path clip-path="url(#clip280)" d="M274.691 1479.7 L279.576 1479.7 L279.576 1485.58 L274.691 1485.58 L274.691 1479.7 Z" fill="#000000" fill-rule="evenodd" fill-opacity="1"></path><path clip-path="url(#clip280)" d="M299.761 1454.1 Q296.15 1454.1 294.321 1457.66 Q292.515 1461.2 292.515 1468.33 Q292.515 1475.44 294.321 1479.01 Q296.15 1482.55 299.761 1482.55 Q303.395 1482.55 305.201 1479.01 Q307.029 1475.44 307.029 1468.33 Q307.029 1461.2 305.201 1457.66 Q303.395 1454.1 299.761 1454.1 M299.761 1450.39 Q305.571 1450.39 308.626 1455 Q311.705 1459.58 311.705 1468.33 Q311.705 1477.06 308.626 1481.67 Q305.571 1486.25 299.761 1486.25 Q293.951 1486.25 290.872 1481.67 Q287.816 1477.06 287.816 1468.33 Q287.816 1459.58 290.872 1455 Q293.951 1450.39 299.761 1450.39 Z" fill="#000000" fill-rule="evenodd" fill-opacity="1"></path><path clip-path="url(#clip280)" d="M329.923 1454.1 Q326.312 1454.1 324.483 1457.66 Q322.677 1461.2 322.677 1468.33 Q322.677 1475.44 324.483 1479.01 Q326.312 1482.55 329.923 1482.55 Q333.557 1482.55 335.362 1479.01 Q337.191 1475.44 337.191 1468.33 Q337.191 1461.2 335.362 1457.66 Q333.557 1454.1 329.923 1454.1 M329.923 1450.39 Q335.733 1450.39 338.788 1455 Q341.867 1459.58 341.867 1468.33 Q341.867 1477.06 338.788 1481.67 Q335.733 1486.25 329.923 1486.25 Q324.113 1486.25 321.034 1481.67 Q317.978 1477.06 317.978 1468.33 Q317.978 1459.58 321.034 1455 Q324.113 1450.39 329.923 1450.39 Z" fill="#000000" fill-rule="evenodd" fill-opacity="1"></path><path clip-path="url(#clip280)" d="M360.085 1454.1 Q356.473 1454.1 354.645 1457.66 Q352.839 1461.2 352.839 1468.33 Q352.839 1475.44 354.645 1479.01 Q356.473 1482.55 360.085 1482.55 Q363.719 1482.55 365.524 1479.01 Q367.353 1475.44 367.353 1468.33 Q367.353 1461.2 365.524 1457.66 Q363.719 1454.1 360.085 1454.1 M360.085 1450.39 Q365.895 1450.39 368.95 1455 Q372.029 1459.58 372.029 1468.33 Q372.029 1477.06 368.95 1481.67 Q365.895 1486.25 360.085 1486.25 Q354.274 1486.25 351.196 1481.67 Q348.14 1477.06 348.14 1468.33 Q348.14 1459.58 351.196 1455 Q354.274 1450.39 360.085 1450.39 Z" fill="#000000" fill-rule="evenodd" fill-opacity="1"></path><path clip-path="url(#clip280)" d="M718.98 1481.64 L735.299 1481.64 L735.299 1485.58 L713.355 1485.58 L713.355 1481.64 Q716.017 1478.89 720.6 1474.26 Q725.206 1469.61 726.387 1468.27 Q728.632 1465.74 729.512 1464.01 Q730.415 1462.25 730.415 1460.56 Q730.415 1457.8 728.47 1456.07 Q726.549 1454.33 723.447 1454.33 Q721.248 1454.33 718.794 1455.09 Q716.364 1455.86 713.586 1457.41 L713.586 1452.69 Q716.41 1451.55 718.864 1450.97 Q721.318 1450.39 723.355 1450.39 Q728.725 1450.39 731.919 1453.08 Q735.114 1455.77 735.114 1460.26 Q735.114 1462.39 734.304 1464.31 Q733.517 1466.2 731.41 1468.8 Q730.831 1469.47 727.73 1472.69 Q724.628 1475.88 718.98 1481.64 Z" fill="#000000" fill-rule="evenodd" fill-opacity="1"></path><path clip-path="url(#clip280)" d="M755.114 1454.1 Q751.503 1454.1 749.674 1457.66 Q747.868 1461.2 747.868 1468.33 Q747.868 1475.44 749.674 1479.01 Q751.503 1482.55 755.114 1482.55 Q758.748 1482.55 760.553 1479.01 Q762.382 1475.44 762.382 1468.33 Q762.382 1461.2 760.553 1457.66 Q758.748 1454.1 755.114 1454.1 M755.114 1450.39 Q760.924 1450.39 763.979 1455 Q767.058 1459.58 767.058 1468.33 Q767.058 1477.06 763.979 1481.67 Q760.924 1486.25 755.114 1486.25 Q749.304 1486.25 746.225 1481.67 Q743.169 1477.06 743.169 1468.33 Q743.169 1459.58 746.225 1455 Q749.304 1450.39 755.114 1450.39 Z" fill="#000000" fill-rule="evenodd" fill-opacity="1"></path><path clip-path="url(#clip280)" d="M775.276 1479.7 L780.16 1479.7 L780.16 1485.58 L775.276 1485.58 L775.276 1479.7 Z" fill="#000000" fill-rule="evenodd" fill-opacity="1"></path><path clip-path="url(#clip280)" d="M800.345 1454.1 Q796.734 1454.1 794.905 1457.66 Q793.1 1461.2 793.1 1468.33 Q793.1 1475.44 794.905 1479.01 Q796.734 1482.55 800.345 1482.55 Q803.979 1482.55 805.785 1479.01 Q807.613 1475.44 807.613 1468.33 Q807.613 1461.2 805.785 1457.66 Q803.979 1454.1 800.345 1454.1 M800.345 1450.39 Q806.155 1450.39 809.211 1455 Q812.289 1459.58 812.289 1468.33 Q812.289 1477.06 809.211 1481.67 Q806.155 1486.25 800.345 1486.25 Q794.535 1486.25 791.456 1481.67 Q788.401 1477.06 788.401 1468.33 Q788.401 1459.58 791.456 1455 Q794.535 1450.39 800.345 1450.39 Z" fill="#000000" fill-rule="evenodd" fill-opacity="1"></path><path clip-path="url(#clip280)" d="M824.535 1481.64 L840.854 1481.64 L840.854 1485.58 L818.91 1485.58 L818.91 1481.64 Q821.572 1478.89 826.155 1474.26 Q830.761 1469.61 831.942 1468.27 Q834.187 1465.74 835.067 1464.01 Q835.97 1462.25 835.97 1460.56 Q835.97 1457.8 834.025 1456.07 Q832.104 1454.33 829.002 1454.33 Q826.803 1454.33 824.349 1455.09 Q821.919 1455.86 819.141 1457.41 L819.141 1452.69 Q821.965 1451.55 824.419 1450.97 Q826.873 1450.39 828.91 1450.39 Q834.28 1450.39 837.474 1453.08 Q840.669 1455.77 840.669 1460.26 Q840.669 1462.39 839.859 1464.31 Q839.072 1466.2 836.965 1468.8 Q836.386 1469.47 833.285 1472.69 Q830.183 1475.88 824.535 1481.64 Z" fill="#000000" fill-rule="evenodd" fill-opacity="1"></path><path clip-path="url(#clip280)" d="M850.715 1451.02 L869.071 1451.02 L869.071 1454.96 L854.997 1454.96 L854.997 1463.43 Q856.016 1463.08 857.034 1462.92 Q858.053 1462.73 859.071 1462.73 Q864.858 1462.73 868.238 1465.9 Q871.618 1469.08 871.618 1474.49 Q871.618 1480.07 868.145 1483.17 Q864.673 1486.25 858.354 1486.25 Q856.178 1486.25 853.909 1485.88 Q851.664 1485.51 849.257 1484.77 L849.257 1480.07 Q851.34 1481.2 853.562 1481.76 Q855.784 1482.32 858.261 1482.32 Q862.266 1482.32 864.604 1480.21 Q866.942 1478.1 866.942 1474.49 Q866.942 1470.88 864.604 1468.77 Q862.266 1466.67 858.261 1466.67 Q856.386 1466.67 854.511 1467.08 Q852.659 1467.5 850.715 1468.38 L850.715 1451.02 Z" fill="#000000" fill-rule="evenodd" fill-opacity="1"></path><path clip-path="url(#clip280)" d="M1218.57 1481.64 L1234.89 1481.64 L1234.89 1485.58 L1212.94 1485.58 L1212.94 1481.64 Q1215.61 1478.89 1220.19 1474.26 Q1224.8 1469.61 1225.98 1468.27 Q1228.22 1465.74 1229.1 1464.01 Q1230 1462.25 1230 1460.56 Q1230 1457.8 1228.06 1456.07 Q1226.14 1454.33 1223.04 1454.33 Q1220.84 1454.33 1218.38 1455.09 Q1215.95 1455.86 1213.17 1457.41 L1213.17 1452.69 Q1216 1451.55 1218.45 1450.97 Q1220.91 1450.39 1222.94 1450.39 Q1228.31 1450.39 1231.51 1453.08 Q1234.7 1455.77 1234.7 1460.26 Q1234.7 1462.39 1233.89 1464.31 Q1233.11 1466.2 1231 1468.8 Q1230.42 1469.47 1227.32 1472.69 Q1224.22 1475.88 1218.57 1481.64 Z" fill="#000000" fill-rule="evenodd" fill-opacity="1"></path><path clip-path="url(#clip280)" d="M1254.7 1454.1 Q1251.09 1454.1 1249.26 1457.66 Q1247.46 1461.2 1247.46 1468.33 Q1247.46 1475.44 1249.26 1479.01 Q1251.09 1482.55 1254.7 1482.55 Q1258.34 1482.55 1260.14 1479.01 Q1261.97 1475.44 1261.97 1468.33 Q1261.97 1461.2 1260.14 1457.66 Q1258.34 1454.1 1254.7 1454.1 M1254.7 1450.39 Q1260.51 1450.39 1263.57 1455 Q1266.65 1459.58 1266.65 1468.33 Q1266.65 1477.06 1263.57 1481.67 Q1260.51 1486.25 1254.7 1486.25 Q1248.89 1486.25 1245.81 1481.67 Q1242.76 1477.06 1242.76 1468.33 Q1242.76 1459.58 1245.81 1455 Q1248.89 1450.39 1254.7 1450.39 Z" fill="#000000" fill-rule="evenodd" fill-opacity="1"></path><path clip-path="url(#clip280)" d="M1274.86 1479.7 L1279.75 1479.7 L1279.75 1485.58 L1274.86 1485.58 L1274.86 1479.7 Z" fill="#000000" fill-rule="evenodd" fill-opacity="1"></path><path clip-path="url(#clip280)" d="M1299.93 1454.1 Q1296.32 1454.1 1294.49 1457.66 Q1292.69 1461.2 1292.69 1468.33 Q1292.69 1475.44 1294.49 1479.01 Q1296.32 1482.55 1299.93 1482.55 Q1303.57 1482.55 1305.37 1479.01 Q1307.2 1475.44 1307.2 1468.33 Q1307.2 1461.2 1305.37 1457.66 Q1303.57 1454.1 1299.93 1454.1 M1299.93 1450.39 Q1305.74 1450.39 1308.8 1455 Q1311.88 1459.58 1311.88 1468.33 Q1311.88 1477.06 1308.8 1481.67 Q1305.74 1486.25 1299.93 1486.25 Q1294.12 1486.25 1291.04 1481.67 Q1287.99 1477.06 1287.99 1468.33 Q1287.99 1459.58 1291.04 1455 Q1294.12 1450.39 1299.93 1450.39 Z" fill="#000000" fill-rule="evenodd" fill-opacity="1"></path><path clip-path="url(#clip280)" d="M1320.14 1451.02 L1338.5 1451.02 L1338.5 1454.96 L1324.42 1454.96 L1324.42 1463.43 Q1325.44 1463.08 1326.46 1462.92 Q1327.48 1462.73 1328.5 1462.73 Q1334.29 1462.73 1337.66 1465.9 Q1341.04 1469.08 1341.04 1474.49 Q1341.04 1480.07 1337.57 1483.17 Q1334.1 1486.25 1327.78 1486.25 Q1325.6 1486.25 1323.34 1485.88 Q1321.09 1485.51 1318.68 1484.77 L1318.68 1480.07 Q1320.77 1481.2 1322.99 1481.76 Q1325.21 1482.32 1327.69 1482.32 Q1331.69 1482.32 1334.03 1480.21 Q1336.37 1478.1 1336.37 1474.49 Q1336.37 1470.88 1334.03 1468.77 Q1331.69 1466.67 1327.69 1466.67 Q1325.81 1466.67 1323.94 1467.08 Q1322.09 1467.5 1320.14 1468.38 L1320.14 1451.02 Z" fill="#000000" fill-rule="evenodd" fill-opacity="1"></path><path clip-path="url(#clip280)" d="M1360.26 1454.1 Q1356.65 1454.1 1354.82 1457.66 Q1353.01 1461.2 1353.01 1468.33 Q1353.01 1475.44 1354.82 1479.01 Q1356.65 1482.55 1360.26 1482.55 Q1363.89 1482.55 1365.7 1479.01 Q1367.53 1475.44 1367.53 1468.33 Q1367.53 1461.2 1365.7 1457.66 Q1363.89 1454.1 1360.26 1454.1 M1360.26 1450.39 Q1366.07 1450.39 1369.12 1455 Q1372.2 1459.58 1372.2 1468.33 Q1372.2 1477.06 1369.12 1481.67 Q1366.07 1486.25 1360.26 1486.25 Q1354.45 1486.25 1351.37 1481.67 Q1348.31 1477.06 1348.31 1468.33 Q1348.31 1459.58 1351.37 1455 Q1354.45 1450.39 1360.26 1450.39 Z" fill="#000000" fill-rule="evenodd" fill-opacity="1"></path><path clip-path="url(#clip280)" d="M1719.15 1481.64 L1735.47 1481.64 L1735.47 1485.58 L1713.53 1485.58 L1713.53 1481.64 Q1716.19 1478.89 1720.77 1474.26 Q1725.38 1469.61 1726.56 1468.27 Q1728.81 1465.74 1729.68 1464.01 Q1730.59 1462.25 1730.59 1460.56 Q1730.59 1457.8 1728.64 1456.07 Q1726.72 1454.33 1723.62 1454.33 Q1721.42 1454.33 1718.97 1455.09 Q1716.54 1455.86 1713.76 1457.41 L1713.76 1452.69 Q1716.58 1451.55 1719.04 1450.97 Q1721.49 1450.39 1723.53 1450.39 Q1728.9 1450.39 1732.09 1453.08 Q1735.29 1455.77 1735.29 1460.26 Q1735.29 1462.39 1734.48 1464.31 Q1733.69 1466.2 1731.58 1468.8 Q1731 1469.47 1727.9 1472.69 Q1724.8 1475.88 1719.15 1481.64 Z" fill="#000000" fill-rule="evenodd" fill-opacity="1"></path><path clip-path="url(#clip280)" d="M1755.29 1454.1 Q1751.68 1454.1 1749.85 1457.66 Q1748.04 1461.2 1748.04 1468.33 Q1748.04 1475.44 1749.85 1479.01 Q1751.68 1482.55 1755.29 1482.55 Q1758.92 1482.55 1760.73 1479.01 Q1762.56 1475.44 1762.56 1468.33 Q1762.56 1461.2 1760.73 1457.66 Q1758.92 1454.1 1755.29 1454.1 M1755.29 1450.39 Q1761.1 1450.39 1764.15 1455 Q1767.23 1459.58 1767.23 1468.33 Q1767.23 1477.06 1764.15 1481.67 Q1761.1 1486.25 1755.29 1486.25 Q1749.48 1486.25 1746.4 1481.67 Q1743.34 1477.06 1743.34 1468.33 Q1743.34 1459.58 1746.4 1455 Q1749.48 1450.39 1755.29 1450.39 Z" fill="#000000" fill-rule="evenodd" fill-opacity="1"></path><path clip-path="url(#clip280)" d="M1775.45 1479.7 L1780.33 1479.7 L1780.33 1485.58 L1775.45 1485.58 L1775.45 1479.7 Z" fill="#000000" fill-rule="evenodd" fill-opacity="1"></path><path clip-path="url(#clip280)" d="M1800.52 1454.1 Q1796.91 1454.1 1795.08 1457.66 Q1793.27 1461.2 1793.27 1468.33 Q1793.27 1475.44 1795.08 1479.01 Q1796.91 1482.55 1800.52 1482.55 Q1804.15 1482.55 1805.96 1479.01 Q1807.79 1475.44 1807.79 1468.33 Q1807.79 1461.2 1805.96 1457.66 Q1804.15 1454.1 1800.52 1454.1 M1800.52 1450.39 Q1806.33 1450.39 1809.38 1455 Q1812.46 1459.58 1812.46 1468.33 Q1812.46 1477.06 1809.38 1481.67 Q1806.33 1486.25 1800.52 1486.25 Q1794.71 1486.25 1791.63 1481.67 Q1788.57 1477.06 1788.57 1468.33 Q1788.57 1459.58 1791.63 1455 Q1794.71 1450.39 1800.52 1450.39 Z" fill="#000000" fill-rule="evenodd" fill-opacity="1"></path><path clip-path="url(#clip280)" d="M1819.5 1451.02 L1841.72 1451.02 L1841.72 1453.01 L1829.18 1485.58 L1824.29 1485.58 L1836.1 1454.96 L1819.5 1454.96 L1819.5 1451.02 Z" fill="#000000" fill-rule="evenodd" fill-opacity="1"></path><path clip-path="url(#clip280)" d="M1850.89 1451.02 L1869.24 1451.02 L1869.24 1454.96 L1855.17 1454.96 L1855.17 1463.43 Q1856.19 1463.08 1857.21 1462.92 Q1858.23 1462.73 1859.24 1462.73 Q1865.03 1462.73 1868.41 1465.9 Q1871.79 1469.08 1871.79 1474.49 Q1871.79 1480.07 1868.32 1483.17 Q1864.85 1486.25 1858.53 1486.25 Q1856.35 1486.25 1854.08 1485.88 Q1851.84 1485.51 1849.43 1484.77 L1849.43 1480.07 Q1851.51 1481.2 1853.74 1481.76 Q1855.96 1482.32 1858.43 1482.32 Q1862.44 1482.32 1864.78 1480.21 Q1867.11 1478.1 1867.11 1474.49 Q1867.11 1470.88 1864.78 1468.77 Q1862.44 1466.67 1858.43 1466.67 Q1856.56 1466.67 1854.68 1467.08 Q1852.83 1467.5 1850.89 1468.38 L1850.89 1451.02 Z" fill="#000000" fill-rule="evenodd" fill-opacity="1"></path><path clip-path="url(#clip280)" d="M2218.74 1481.64 L2235.06 1481.64 L2235.06 1485.58 L2213.12 1485.58 L2213.12 1481.64 Q2215.78 1478.89 2220.36 1474.26 Q2224.97 1469.61 2226.15 1468.27 Q2228.39 1465.74 2229.27 1464.01 Q2230.18 1462.25 2230.18 1460.56 Q2230.18 1457.8 2228.23 1456.07 Q2226.31 1454.33 2223.21 1454.33 Q2221.01 1454.33 2218.56 1455.09 Q2216.13 1455.86 2213.35 1457.41 L2213.35 1452.69 Q2216.17 1451.55 2218.63 1450.97 Q2221.08 1450.39 2223.12 1450.39 Q2228.49 1450.39 2231.68 1453.08 Q2234.88 1455.77 2234.88 1460.26 Q2234.88 1462.39 2234.07 1464.31 Q2233.28 1466.2 2231.17 1468.8 Q2230.59 1469.47 2227.49 1472.69 Q2224.39 1475.88 2218.74 1481.64 Z" fill="#000000" fill-rule="evenodd" fill-opacity="1"></path><path clip-path="url(#clip280)" d="M2254.88 1454.1 Q2251.26 1454.1 2249.44 1457.66 Q2247.63 1461.2 2247.63 1468.33 Q2247.63 1475.44 2249.44 1479.01 Q2251.26 1482.55 2254.88 1482.55 Q2258.51 1482.55 2260.32 1479.01 Q2262.14 1475.44 2262.14 1468.33 Q2262.14 1461.2 2260.32 1457.66 Q2258.51 1454.1 2254.88 1454.1 M2254.88 1450.39 Q2260.69 1450.39 2263.74 1455 Q2266.82 1459.58 2266.82 1468.33 Q2266.82 1477.06 2263.74 1481.67 Q2260.69 1486.25 2254.88 1486.25 Q2249.07 1486.25 2245.99 1481.67 Q2242.93 1477.06 2242.93 1468.33 Q2242.93 1459.58 2245.99 1455 Q2249.07 1450.39 2254.88 1450.39 Z" fill="#000000" fill-rule="evenodd" fill-opacity="1"></path><path clip-path="url(#clip280)" d="M2275.04 1479.7 L2279.92 1479.7 L2279.92 1485.58 L2275.04 1485.58 L2275.04 1479.7 Z" fill="#000000" fill-rule="evenodd" fill-opacity="1"></path><path clip-path="url(#clip280)" d="M2290.92 1481.64 L2298.56 1481.64 L2298.56 1455.28 L2290.25 1456.95 L2290.25 1452.69 L2298.51 1451.02 L2303.19 1451.02 L2303.19 1481.64 L2310.82 1481.64 L2310.82 1485.58 L2290.92 1485.58 L2290.92 1481.64 Z" fill="#000000" fill-rule="evenodd" fill-opacity="1"></path><path clip-path="url(#clip280)" d="M2330.27 1454.1 Q2326.66 1454.1 2324.83 1457.66 Q2323.02 1461.2 2323.02 1468.33 Q2323.02 1475.44 2324.83 1479.01 Q2326.66 1482.55 2330.27 1482.55 Q2333.9 1482.55 2335.71 1479.01 Q2337.54 1475.44 2337.54 1468.33 Q2337.54 1461.2 2335.71 1457.66 Q2333.9 1454.1 2330.27 1454.1 M2330.27 1450.39 Q2336.08 1450.39 2339.13 1455 Q2342.21 1459.58 2342.21 1468.33 Q2342.21 1477.06 2339.13 1481.67 Q2336.08 1486.25 2330.27 1486.25 Q2324.46 1486.25 2321.38 1481.67 Q2318.32 1477.06 2318.32 1468.33 Q2318.32 1459.58 2321.38 1455 Q2324.46 1450.39 2330.27 1450.39 Z" fill="#000000" fill-rule="evenodd" fill-opacity="1"></path><path clip-path="url(#clip280)" d="M2360.43 1454.1 Q2356.82 1454.1 2354.99 1457.66 Q2353.19 1461.2 2353.19 1468.33 Q2353.19 1475.44 2354.99 1479.01 Q2356.82 1482.55 2360.43 1482.55 Q2364.06 1482.55 2365.87 1479.01 Q2367.7 1475.44 2367.7 1468.33 Q2367.7 1461.2 2365.87 1457.66 Q2364.06 1454.1 2360.43 1454.1 M2360.43 1450.39 Q2366.24 1450.39 2369.3 1455 Q2372.37 1459.58 2372.37 1468.33 Q2372.37 1477.06 2369.3 1481.67 Q2366.24 1486.25 2360.43 1486.25 Q2354.62 1486.25 2351.54 1481.67 Q2348.49 1477.06 2348.49 1468.33 Q2348.49 1459.58 2351.54 1455 Q2354.62 1450.39 2360.43 1450.39 Z" fill="#000000" fill-rule="evenodd" fill-opacity="1"></path><path clip-path="url(#clip280)" d="M1306.43 1522.08 L1306.43 1528.35 Q1302.77 1526.6 1299.53 1525.74 Q1296.28 1524.88 1293.26 1524.88 Q1288.01 1524.88 1285.14 1526.92 Q1282.31 1528.96 1282.31 1532.71 Q1282.31 1535.87 1284.19 1537.49 Q1286.1 1539.08 1291.38 1540.07 L1295.26 1540.86 Q1302.46 1542.23 1305.86 1545.7 Q1309.3 1549.14 1309.3 1554.93 Q1309.3 1561.84 1304.65 1565.4 Q1300.04 1568.97 1291.09 1568.97 Q1287.72 1568.97 1283.9 1568.2 Q1280.11 1567.44 1276.04 1565.94 L1276.04 1559.32 Q1279.95 1561.52 1283.71 1562.63 Q1287.46 1563.75 1291.09 1563.75 Q1296.6 1563.75 1299.59 1561.58 Q1302.58 1559.42 1302.58 1555.41 Q1302.58 1551.91 1300.42 1549.93 Q1298.29 1547.96 1293.38 1546.97 L1289.47 1546.21 Q1282.28 1544.78 1279.06 1541.72 Q1275.85 1538.67 1275.85 1533.22 Q1275.85 1526.92 1280.27 1523.29 Q1284.73 1519.66 1292.52 1519.66 Q1295.87 1519.66 1299.34 1520.27 Q1302.81 1520.87 1306.43 1522.08 Z" fill="#000000" fill-rule="evenodd" fill-opacity="1"></path><polyline clip-path="url(#clip282)" style="stroke:#000000; stroke-linecap:butt; stroke-linejoin:round; stroke-width:2; stroke-opacity:0.1; fill:none" points="
  232.389,1158.54 2352.76,1158.54 
  "></polyline>
<polyline clip-path="url(#clip282)" style="stroke:#000000; stroke-linecap:butt; stroke-linejoin:round; stroke-width:2; stroke-opacity:0.1; fill:none" points="
  232.389,890.45 2352.76,890.45 
  "></polyline>
<polyline clip-path="url(#clip282)" style="stroke:#000000; stroke-linecap:butt; stroke-linejoin:round; stroke-width:2; stroke-opacity:0.1; fill:none" points="
  232.389,622.362 2352.76,622.362 
  "></polyline>
<polyline clip-path="url(#clip282)" style="stroke:#000000; stroke-linecap:butt; stroke-linejoin:round; stroke-width:2; stroke-opacity:0.1; fill:none" points="
  232.389,354.274 2352.76,354.274 
  "></polyline>
<polyline clip-path="url(#clip282)" style="stroke:#000000; stroke-linecap:butt; stroke-linejoin:round; stroke-width:2; stroke-opacity:0.1; fill:none" points="
  232.389,86.1857 2352.76,86.1857 
  "></polyline>
<polyline clip-path="url(#clip280)" style="stroke:#000000; stroke-linecap:butt; stroke-linejoin:round; stroke-width:4; stroke-opacity:1; fill:none" points="
  232.389,1423.18 232.389,47.2441 
  "></polyline>
<polyline clip-path="url(#clip280)" style="stroke:#000000; stroke-linecap:butt; stroke-linejoin:round; stroke-width:4; stroke-opacity:1; fill:none" points="
  232.389,1158.54 251.287,1158.54 
  "></polyline>
<polyline clip-path="url(#clip280)" style="stroke:#000000; stroke-linecap:butt; stroke-linejoin:round; stroke-width:4; stroke-opacity:1; fill:none" points="
  232.389,890.45 251.287,890.45 
  "></polyline>
<polyline clip-path="url(#clip280)" style="stroke:#000000; stroke-linecap:butt; stroke-linejoin:round; stroke-width:4; stroke-opacity:1; fill:none" points="
  232.389,622.362 251.287,622.362 
  "></polyline>
<polyline clip-path="url(#clip280)" style="stroke:#000000; stroke-linecap:butt; stroke-linejoin:round; stroke-width:4; stroke-opacity:1; fill:none" points="
  232.389,354.274 251.287,354.274 
  "></polyline>
<polyline clip-path="url(#clip280)" style="stroke:#000000; stroke-linecap:butt; stroke-linejoin:round; stroke-width:4; stroke-opacity:1; fill:none" points="
  232.389,86.1857 251.287,86.1857 
  "></polyline>
<path clip-path="url(#clip280)" d="M148.311 1171.88 L164.63 1171.88 L164.63 1175.82 L142.686 1175.82 L142.686 1171.88 Q145.348 1169.13 149.931 1164.5 Q154.538 1159.85 155.718 1158.5 Q157.964 1155.98 158.843 1154.24 Q159.746 1152.49 159.746 1150.8 Q159.746 1148.04 157.802 1146.3 Q155.88 1144.57 152.778 1144.57 Q150.579 1144.57 148.126 1145.33 Q145.695 1146.1 142.917 1147.65 L142.917 1142.93 Q145.741 1141.79 148.195 1141.21 Q150.649 1140.63 152.686 1140.63 Q158.056 1140.63 161.251 1143.32 Q164.445 1146 164.445 1150.49 Q164.445 1152.62 163.635 1154.55 Q162.848 1156.44 160.741 1159.04 Q160.163 1159.71 157.061 1162.93 Q153.959 1166.12 148.311 1171.88 Z" fill="#000000" fill-rule="evenodd" fill-opacity="1"></path><path clip-path="url(#clip280)" d="M184.445 1144.34 Q180.834 1144.34 179.005 1147.9 Q177.2 1151.44 177.2 1158.57 Q177.2 1165.68 179.005 1169.24 Q180.834 1172.79 184.445 1172.79 Q188.079 1172.79 189.885 1169.24 Q191.713 1165.68 191.713 1158.57 Q191.713 1151.44 189.885 1147.9 Q188.079 1144.34 184.445 1144.34 M184.445 1140.63 Q190.255 1140.63 193.311 1145.24 Q196.389 1149.82 196.389 1158.57 Q196.389 1167.3 193.311 1171.91 Q190.255 1176.49 184.445 1176.49 Q178.635 1176.49 175.556 1171.91 Q172.501 1167.3 172.501 1158.57 Q172.501 1149.82 175.556 1145.24 Q178.635 1140.63 184.445 1140.63 Z" fill="#000000" fill-rule="evenodd" fill-opacity="1"></path><path clip-path="url(#clip280)" d="M157.13 877.244 L145.325 895.693 L157.13 895.693 L157.13 877.244 M155.903 873.17 L161.783 873.17 L161.783 895.693 L166.714 895.693 L166.714 899.582 L161.783 899.582 L161.783 907.73 L157.13 907.73 L157.13 899.582 L141.529 899.582 L141.529 895.068 L155.903 873.17 Z" fill="#000000" fill-rule="evenodd" fill-opacity="1"></path><path clip-path="url(#clip280)" d="M184.445 876.249 Q180.834 876.249 179.005 879.814 Q177.2 883.355 177.2 890.485 Q177.2 897.591 179.005 901.156 Q180.834 904.698 184.445 904.698 Q188.079 904.698 189.885 901.156 Q191.713 897.591 191.713 890.485 Q191.713 883.355 189.885 879.814 Q188.079 876.249 184.445 876.249 M184.445 872.545 Q190.255 872.545 193.311 877.152 Q196.389 881.735 196.389 890.485 Q196.389 899.212 193.311 903.818 Q190.255 908.402 184.445 908.402 Q178.635 908.402 175.556 903.818 Q172.501 899.212 172.501 890.485 Q172.501 881.735 175.556 877.152 Q178.635 872.545 184.445 872.545 Z" fill="#000000" fill-rule="evenodd" fill-opacity="1"></path><path clip-path="url(#clip280)" d="M154.862 620.499 Q151.714 620.499 149.862 622.651 Q148.033 624.804 148.033 628.554 Q148.033 632.281 149.862 634.457 Q151.714 636.61 154.862 636.61 Q158.01 636.61 159.839 634.457 Q161.69 632.281 161.69 628.554 Q161.69 624.804 159.839 622.651 Q158.01 620.499 154.862 620.499 M164.144 605.846 L164.144 610.105 Q162.385 609.272 160.579 608.832 Q158.797 608.392 157.038 608.392 Q152.408 608.392 149.954 611.517 Q147.524 614.642 147.177 620.962 Q148.542 618.948 150.603 617.883 Q152.663 616.795 155.14 616.795 Q160.348 616.795 163.357 619.966 Q166.39 623.114 166.39 628.554 Q166.39 633.878 163.241 637.096 Q160.093 640.313 154.862 640.313 Q148.866 640.313 145.695 635.73 Q142.524 631.124 142.524 622.397 Q142.524 614.202 146.413 609.341 Q150.302 604.457 156.853 604.457 Q158.612 604.457 160.394 604.804 Q162.2 605.152 164.144 605.846 Z" fill="#000000" fill-rule="evenodd" fill-opacity="1"></path><path clip-path="url(#clip280)" d="M184.445 608.161 Q180.834 608.161 179.005 611.726 Q177.2 615.267 177.2 622.397 Q177.2 629.503 179.005 633.068 Q180.834 636.61 184.445 636.61 Q188.079 636.61 189.885 633.068 Q191.713 629.503 191.713 622.397 Q191.713 615.267 189.885 611.726 Q188.079 608.161 184.445 608.161 M184.445 604.457 Q190.255 604.457 193.311 609.064 Q196.389 613.647 196.389 622.397 Q196.389 631.124 193.311 635.73 Q190.255 640.313 184.445 640.313 Q178.635 640.313 175.556 635.73 Q172.501 631.124 172.501 622.397 Q172.501 613.647 175.556 609.064 Q178.635 604.457 184.445 604.457 Z" fill="#000000" fill-rule="evenodd" fill-opacity="1"></path><path clip-path="url(#clip280)" d="M154.283 355.142 Q150.95 355.142 149.028 356.924 Q147.13 358.707 147.13 361.832 Q147.13 364.957 149.028 366.739 Q150.95 368.521 154.283 368.521 Q157.616 368.521 159.538 366.739 Q161.459 364.934 161.459 361.832 Q161.459 358.707 159.538 356.924 Q157.64 355.142 154.283 355.142 M149.607 353.151 Q146.598 352.41 144.908 350.35 Q143.241 348.29 143.241 345.327 Q143.241 341.184 146.181 338.776 Q149.144 336.369 154.283 336.369 Q159.445 336.369 162.385 338.776 Q165.325 341.184 165.325 345.327 Q165.325 348.29 163.635 350.35 Q161.968 352.41 158.982 353.151 Q162.362 353.938 164.237 356.23 Q166.135 358.522 166.135 361.832 Q166.135 366.855 163.056 369.54 Q160.001 372.225 154.283 372.225 Q148.566 372.225 145.487 369.54 Q142.431 366.855 142.431 361.832 Q142.431 358.522 144.329 356.23 Q146.228 353.938 149.607 353.151 M147.894 345.767 Q147.894 348.452 149.561 349.957 Q151.251 351.461 154.283 351.461 Q157.292 351.461 158.982 349.957 Q160.695 348.452 160.695 345.767 Q160.695 343.082 158.982 341.577 Q157.292 340.073 154.283 340.073 Q151.251 340.073 149.561 341.577 Q147.894 343.082 147.894 345.767 Z" fill="#000000" fill-rule="evenodd" fill-opacity="1"></path><path clip-path="url(#clip280)" d="M184.445 340.073 Q180.834 340.073 179.005 343.637 Q177.2 347.179 177.2 354.309 Q177.2 361.415 179.005 364.98 Q180.834 368.521 184.445 368.521 Q188.079 368.521 189.885 364.98 Q191.713 361.415 191.713 354.309 Q191.713 347.179 189.885 343.637 Q188.079 340.073 184.445 340.073 M184.445 336.369 Q190.255 336.369 193.311 340.975 Q196.389 345.559 196.389 354.309 Q196.389 363.035 193.311 367.642 Q190.255 372.225 184.445 372.225 Q178.635 372.225 175.556 367.642 Q172.501 363.035 172.501 354.309 Q172.501 345.559 175.556 340.975 Q178.635 336.369 184.445 336.369 Z" fill="#000000" fill-rule="evenodd" fill-opacity="1"></path><path clip-path="url(#clip280)" d="M114.931 99.5305 L122.57 99.5305 L122.57 73.1649 L114.26 74.8316 L114.26 70.5723 L122.524 68.9057 L127.2 68.9057 L127.2 99.5305 L134.839 99.5305 L134.839 103.466 L114.931 103.466 L114.931 99.5305 Z" fill="#000000" fill-rule="evenodd" fill-opacity="1"></path><path clip-path="url(#clip280)" d="M154.283 71.9844 Q150.672 71.9844 148.843 75.5492 Q147.038 79.0908 147.038 86.2204 Q147.038 93.3268 148.843 96.8916 Q150.672 100.433 154.283 100.433 Q157.917 100.433 159.723 96.8916 Q161.552 93.3268 161.552 86.2204 Q161.552 79.0908 159.723 75.5492 Q157.917 71.9844 154.283 71.9844 M154.283 68.2807 Q160.093 68.2807 163.149 72.8871 Q166.227 77.4704 166.227 86.2204 Q166.227 94.9472 163.149 99.5537 Q160.093 104.137 154.283 104.137 Q148.473 104.137 145.394 99.5537 Q142.339 94.9472 142.339 86.2204 Q142.339 77.4704 145.394 72.8871 Q148.473 68.2807 154.283 68.2807 Z" fill="#000000" fill-rule="evenodd" fill-opacity="1"></path><path clip-path="url(#clip280)" d="M184.445 71.9844 Q180.834 71.9844 179.005 75.5492 Q177.2 79.0908 177.2 86.2204 Q177.2 93.3268 179.005 96.8916 Q180.834 100.433 184.445 100.433 Q188.079 100.433 189.885 96.8916 Q191.713 93.3268 191.713 86.2204 Q191.713 79.0908 189.885 75.5492 Q188.079 71.9844 184.445 71.9844 M184.445 68.2807 Q190.255 68.2807 193.311 72.8871 Q196.389 77.4704 196.389 86.2204 Q196.389 94.9472 193.311 99.5537 Q190.255 104.137 184.445 104.137 Q178.635 104.137 175.556 99.5537 Q172.501 94.9472 172.501 86.2204 Q172.501 77.4704 175.556 72.8871 Q178.635 68.2807 184.445 68.2807 Z" fill="#000000" fill-rule="evenodd" fill-opacity="1"></path><path clip-path="url(#clip280)" d="M28.3562 752.559 L28.3562 746.352 L58.275 735.212 L28.3562 724.072 L28.3562 717.865 L64.0042 731.233 L64.0042 739.191 L28.3562 752.559 Z" fill="#000000" fill-rule="evenodd" fill-opacity="1"></path><polyline clip-path="url(#clip282)" style="stroke:#009af9; stroke-linecap:butt; stroke-linejoin:round; stroke-width:4; stroke-opacity:1; fill:none" points="
  292.4,1384.24 312.403,1383.62 332.407,1383 352.41,1382.37 372.414,1381.75 392.417,1381.12 412.42,1380.48 432.424,1379.85 452.427,1379.2 472.431,1378.55 
  492.434,1377.89 512.438,1377.23 532.441,1376.55 552.445,1375.86 572.448,1375.16 592.452,1374.45 612.455,1373.73 632.459,1372.99 652.462,1372.23 672.465,1371.46 
  692.469,1370.67 712.472,1369.85 732.476,1369.02 752.479,1368.16 772.483,1367.28 792.486,1366.38 812.49,1365.44 832.493,1364.48 852.497,1363.49 872.5,1362.46 
  892.503,1361.4 912.507,1360.3 932.51,1359.17 952.514,1357.99 972.517,1356.77 992.521,1355.5 1012.52,1354.19 1032.53,1352.82 1052.53,1351.4 1072.53,1349.92 
  1092.54,1348.38 1112.54,1346.78 1132.54,1345.1 1152.55,1343.36 1172.55,1341.54 1192.56,1339.63 1212.56,1337.64 1232.56,1335.56 1252.57,1333.39 1272.57,1331.11 
  1292.57,1328.72 1312.58,1326.21 1332.58,1323.58 1352.58,1320.82 1372.59,1317.92 1392.59,1314.87 1412.59,1311.66 1432.6,1308.28 1452.6,1304.71 1472.6,1300.96 
  1492.61,1296.99 1512.61,1292.8 1532.61,1288.37 1552.62,1283.68 1572.62,1278.71 1592.62,1273.44 1612.63,1267.85 1632.63,1261.91 1652.63,1255.59 1672.64,1248.87 
  1692.64,1241.69 1712.65,1234.04 1732.65,1225.86 1752.65,1217.1 1772.66,1207.71 1792.66,1197.64 1812.66,1186.81 1832.67,1175.15 1852.67,1162.57 1872.67,1148.98 
  1892.68,1134.27 1912.68,1118.31 1932.68,1100.95 1952.69,1082.04 1972.69,1061.39 1992.69,1038.77 2012.7,1013.94 2032.7,986.587 2052.7,956.375 2072.71,922.89 
  2092.71,885.646 2112.71,844.063 2132.72,797.442 2152.72,744.941 2172.72,685.534 2192.73,617.959 2212.73,540.653 2232.74,451.663 2252.74,348.517 2272.74,228.055 
  2292.75,86.1857 
  "></polyline>
<path clip-path="url(#clip280)" d="
M1644.79 196.789 L2282.08 196.789 L2282.08 93.1086 L1644.79 93.1086  Z
  " fill="#ffffff" fill-rule="evenodd" fill-opacity="1"></path>
<polyline clip-path="url(#clip280)" style="stroke:#000000; stroke-linecap:butt; stroke-linejoin:round; stroke-width:4; stroke-opacity:1; fill:none" points="
  1644.79,196.789 2282.08,196.789 2282.08,93.1086 1644.79,93.1086 1644.79,196.789 
  "></polyline>
<polyline clip-path="url(#clip280)" style="stroke:#009af9; stroke-linecap:butt; stroke-linejoin:round; stroke-width:4; stroke-opacity:1; fill:none" points="
  1668.35,144.949 1809.71,144.949 
  "></polyline>
<path clip-path="url(#clip280)" d="M1849.29 130.84 Q1844.2 130.84 1841.19 134.636 Q1838.2 138.432 1838.2 144.983 Q1838.2 151.511 1841.19 155.307 Q1844.2 159.104 1849.29 159.104 Q1854.38 159.104 1857.34 155.307 Q1860.33 151.511 1860.33 144.983 Q1860.33 138.432 1857.34 134.636 Q1854.38 130.84 1849.29 130.84 M1849.29 127.044 Q1856.56 127.044 1860.91 131.928 Q1865.26 136.789 1865.26 144.983 Q1865.26 153.155 1860.91 158.039 Q1856.56 162.9 1849.29 162.9 Q1842 162.9 1837.62 158.039 Q1833.27 153.178 1833.27 144.983 Q1833.27 136.789 1837.62 131.928 Q1842 127.044 1849.29 127.044 Z" fill="#000000" fill-rule="evenodd" fill-opacity="1"></path><path clip-path="url(#clip280)" d="M1876.51 158.34 L1876.51 172.09 L1872.23 172.09 L1872.23 136.303 L1876.51 136.303 L1876.51 140.238 Q1877.85 137.923 1879.89 136.812 Q1881.95 135.678 1884.8 135.678 Q1889.52 135.678 1892.46 139.428 Q1895.42 143.178 1895.42 149.289 Q1895.42 155.4 1892.46 159.15 Q1889.52 162.9 1884.8 162.9 Q1881.95 162.9 1879.89 161.789 Q1877.85 160.655 1876.51 158.34 M1891 149.289 Q1891 144.59 1889.06 141.928 Q1887.14 139.243 1883.76 139.243 Q1880.38 139.243 1878.43 141.928 Q1876.51 144.59 1876.51 149.289 Q1876.51 153.988 1878.43 156.673 Q1880.38 159.335 1883.76 159.335 Q1887.14 159.335 1889.06 156.673 Q1891 153.988 1891 149.289 Z" fill="#000000" fill-rule="evenodd" fill-opacity="1"></path><path clip-path="url(#clip280)" d="M1906.7 128.942 L1906.7 136.303 L1915.47 136.303 L1915.47 139.613 L1906.7 139.613 L1906.7 153.687 Q1906.7 156.858 1907.55 157.761 Q1908.43 158.664 1911.09 158.664 L1915.47 158.664 L1915.47 162.229 L1911.09 162.229 Q1906.16 162.229 1904.29 160.4 Q1902.41 158.548 1902.41 153.687 L1902.41 139.613 L1899.29 139.613 L1899.29 136.303 L1902.41 136.303 L1902.41 128.942 L1906.7 128.942 Z" fill="#000000" fill-rule="evenodd" fill-opacity="1"></path><path clip-path="url(#clip280)" d="M1921.07 136.303 L1925.33 136.303 L1925.33 162.229 L1921.07 162.229 L1921.07 136.303 M1921.07 126.21 L1925.33 126.21 L1925.33 131.604 L1921.07 131.604 L1921.07 126.21 Z" fill="#000000" fill-rule="evenodd" fill-opacity="1"></path><path clip-path="url(#clip280)" d="M1954.43 141.28 Q1956.02 138.409 1958.25 137.044 Q1960.47 135.678 1963.48 135.678 Q1967.53 135.678 1969.73 138.525 Q1971.93 141.349 1971.93 146.581 L1971.93 162.229 L1967.64 162.229 L1967.64 146.719 Q1967.64 142.993 1966.32 141.187 Q1965.01 139.382 1962.3 139.382 Q1958.99 139.382 1957.07 141.581 Q1955.14 143.78 1955.14 147.576 L1955.14 162.229 L1950.86 162.229 L1950.86 146.719 Q1950.86 142.969 1949.54 141.187 Q1948.22 139.382 1945.47 139.382 Q1942.2 139.382 1940.28 141.604 Q1938.36 143.803 1938.36 147.576 L1938.36 162.229 L1934.08 162.229 L1934.08 136.303 L1938.36 136.303 L1938.36 140.331 Q1939.82 137.946 1941.86 136.812 Q1943.89 135.678 1946.7 135.678 Q1949.52 135.678 1951.49 137.113 Q1953.48 138.548 1954.43 141.28 Z" fill="#000000" fill-rule="evenodd" fill-opacity="1"></path><path clip-path="url(#clip280)" d="M1992.2 149.196 Q1987.04 149.196 1985.05 150.377 Q1983.06 151.557 1983.06 154.405 Q1983.06 156.673 1984.54 158.016 Q1986.05 159.335 1988.62 159.335 Q1992.16 159.335 1994.29 156.835 Q1996.44 154.312 1996.44 150.145 L1996.44 149.196 L1992.2 149.196 M2000.7 147.437 L2000.7 162.229 L1996.44 162.229 L1996.44 158.293 Q1994.98 160.655 1992.81 161.789 Q1990.63 162.9 1987.48 162.9 Q1983.5 162.9 1981.14 160.678 Q1978.8 158.432 1978.8 154.682 Q1978.8 150.307 1981.72 148.085 Q1984.66 145.863 1990.47 145.863 L1996.44 145.863 L1996.44 145.446 Q1996.44 142.507 1994.5 140.909 Q1992.57 139.289 1989.08 139.289 Q1986.86 139.289 1984.75 139.821 Q1982.64 140.354 1980.7 141.419 L1980.7 137.483 Q1983.04 136.581 1985.24 136.141 Q1987.44 135.678 1989.52 135.678 Q1995.14 135.678 1997.92 138.594 Q2000.7 141.511 2000.7 147.437 Z" fill="#000000" fill-rule="evenodd" fill-opacity="1"></path><path clip-path="url(#clip280)" d="M2009.47 126.21 L2013.73 126.21 L2013.73 162.229 L2009.47 162.229 L2009.47 126.21 Z" fill="#000000" fill-rule="evenodd" fill-opacity="1"></path><path clip-path="url(#clip280)" d="M2058.62 128.803 L2058.62 133.363 Q2055.95 132.09 2053.59 131.465 Q2051.23 130.84 2049.03 130.84 Q2045.21 130.84 2043.13 132.321 Q2041.07 133.803 2041.07 136.534 Q2041.07 138.826 2042.44 140.007 Q2043.82 141.164 2047.67 141.882 L2050.49 142.46 Q2055.72 143.456 2058.2 145.979 Q2060.7 148.479 2060.7 152.692 Q2060.7 157.715 2057.32 160.307 Q2053.96 162.9 2047.46 162.9 Q2045.01 162.9 2042.23 162.344 Q2039.47 161.789 2036.51 160.701 L2036.51 155.886 Q2039.36 157.483 2042.09 158.293 Q2044.82 159.104 2047.46 159.104 Q2051.46 159.104 2053.64 157.53 Q2055.82 155.956 2055.82 153.039 Q2055.82 150.493 2054.24 149.057 Q2052.69 147.622 2049.13 146.905 L2046.28 146.349 Q2041.05 145.307 2038.71 143.085 Q2036.37 140.863 2036.37 136.905 Q2036.37 132.321 2039.59 129.682 Q2042.83 127.044 2048.5 127.044 Q2050.93 127.044 2053.45 127.483 Q2055.98 127.923 2058.62 128.803 Z" fill="#000000" fill-rule="evenodd" fill-opacity="1"></path><path clip-path="url(#clip280)" d="M2072.02 128.942 L2072.02 136.303 L2080.79 136.303 L2080.79 139.613 L2072.02 139.613 L2072.02 153.687 Q2072.02 156.858 2072.88 157.761 Q2073.75 158.664 2076.42 158.664 L2080.79 158.664 L2080.79 162.229 L2076.42 162.229 Q2071.49 162.229 2069.61 160.4 Q2067.74 158.548 2067.74 153.687 L2067.74 139.613 L2064.61 139.613 L2064.61 136.303 L2067.74 136.303 L2067.74 128.942 L2072.02 128.942 Z" fill="#000000" fill-rule="evenodd" fill-opacity="1"></path><path clip-path="url(#clip280)" d="M2101.42 140.284 Q2100.7 139.868 2099.84 139.682 Q2099.01 139.474 2097.99 139.474 Q2094.38 139.474 2092.44 141.835 Q2090.51 144.173 2090.51 148.571 L2090.51 162.229 L2086.23 162.229 L2086.23 136.303 L2090.51 136.303 L2090.51 140.331 Q2091.86 137.969 2094.01 136.835 Q2096.16 135.678 2099.24 135.678 Q2099.68 135.678 2100.21 135.747 Q2100.75 135.794 2101.39 135.909 L2101.42 140.284 Z" fill="#000000" fill-rule="evenodd" fill-opacity="1"></path><path clip-path="url(#clip280)" d="M2117.67 149.196 Q2112.5 149.196 2110.51 150.377 Q2108.52 151.557 2108.52 154.405 Q2108.52 156.673 2110 158.016 Q2111.51 159.335 2114.08 159.335 Q2117.62 159.335 2119.75 156.835 Q2121.9 154.312 2121.9 150.145 L2121.9 149.196 L2117.67 149.196 M2126.16 147.437 L2126.16 162.229 L2121.9 162.229 L2121.9 158.293 Q2120.44 160.655 2118.27 161.789 Q2116.09 162.9 2112.94 162.9 Q2108.96 162.9 2106.6 160.678 Q2104.26 158.432 2104.26 154.682 Q2104.26 150.307 2107.18 148.085 Q2110.12 145.863 2115.93 145.863 L2121.9 145.863 L2121.9 145.446 Q2121.9 142.507 2119.96 140.909 Q2118.04 139.289 2114.54 139.289 Q2112.32 139.289 2110.21 139.821 Q2108.11 140.354 2106.16 141.419 L2106.16 137.483 Q2108.5 136.581 2110.7 136.141 Q2112.9 135.678 2114.98 135.678 Q2120.61 135.678 2123.38 138.594 Q2126.16 141.511 2126.16 147.437 Z" fill="#000000" fill-rule="evenodd" fill-opacity="1"></path><path clip-path="url(#clip280)" d="M2139.15 128.942 L2139.15 136.303 L2147.92 136.303 L2147.92 139.613 L2139.15 139.613 L2139.15 153.687 Q2139.15 156.858 2140 157.761 Q2140.88 158.664 2143.55 158.664 L2147.92 158.664 L2147.92 162.229 L2143.55 162.229 Q2138.62 162.229 2136.74 160.4 Q2134.87 158.548 2134.87 153.687 L2134.87 139.613 L2131.74 139.613 L2131.74 136.303 L2134.87 136.303 L2134.87 128.942 L2139.15 128.942 Z" fill="#000000" fill-rule="evenodd" fill-opacity="1"></path><path clip-path="url(#clip280)" d="M2175.7 148.201 L2175.7 150.284 L2156.12 150.284 Q2156.39 154.682 2158.75 156.997 Q2161.14 159.289 2165.37 159.289 Q2167.83 159.289 2170.12 158.687 Q2172.43 158.085 2174.7 156.881 L2174.7 160.909 Q2172.41 161.881 2170 162.391 Q2167.6 162.9 2165.12 162.9 Q2158.92 162.9 2155.28 159.289 Q2151.67 155.678 2151.67 149.52 Q2151.67 143.155 2155.1 139.428 Q2158.55 135.678 2164.38 135.678 Q2169.61 135.678 2172.64 139.057 Q2175.7 142.414 2175.7 148.201 M2171.44 146.951 Q2171.39 143.456 2169.47 141.372 Q2167.57 139.289 2164.43 139.289 Q2160.86 139.289 2158.71 141.303 Q2156.58 143.317 2156.25 146.974 L2171.44 146.951 Z" fill="#000000" fill-rule="evenodd" fill-opacity="1"></path><path clip-path="url(#clip280)" d="M2199.75 148.965 Q2199.75 144.335 2197.83 141.789 Q2195.93 139.243 2192.48 139.243 Q2189.06 139.243 2187.13 141.789 Q2185.24 144.335 2185.24 148.965 Q2185.24 153.571 2187.13 156.118 Q2189.06 158.664 2192.48 158.664 Q2195.93 158.664 2197.83 156.118 Q2199.75 153.571 2199.75 148.965 M2204.01 159.011 Q2204.01 165.631 2201.07 168.849 Q2198.13 172.09 2192.06 172.09 Q2189.82 172.09 2187.83 171.742 Q2185.84 171.418 2183.96 170.724 L2183.96 166.58 Q2185.84 167.599 2187.67 168.085 Q2189.5 168.571 2191.39 168.571 Q2195.58 168.571 2197.67 166.372 Q2199.75 164.196 2199.75 159.775 L2199.75 157.668 Q2198.43 159.96 2196.37 161.094 Q2194.31 162.229 2191.44 162.229 Q2186.67 162.229 2183.75 158.594 Q2180.84 154.96 2180.84 148.965 Q2180.84 142.946 2183.75 139.312 Q2186.67 135.678 2191.44 135.678 Q2194.31 135.678 2196.37 136.812 Q2198.43 137.946 2199.75 140.238 L2199.75 136.303 L2204.01 136.303 L2204.01 159.011 Z" fill="#000000" fill-rule="evenodd" fill-opacity="1"></path><path clip-path="url(#clip280)" d="M2223.57 164.636 Q2221.76 169.266 2220.05 170.678 Q2218.34 172.09 2215.47 172.09 L2212.06 172.09 L2212.06 168.525 L2214.56 168.525 Q2216.32 168.525 2217.3 167.692 Q2218.27 166.858 2219.45 163.756 L2220.21 161.812 L2209.73 136.303 L2214.24 136.303 L2222.34 156.581 L2230.44 136.303 L2234.96 136.303 L2223.57 164.636 Z" fill="#000000" fill-rule="evenodd" fill-opacity="1"></path></svg>